<?xml version="1.0" standalone="no"?>
<!DOCTYPE svg PUBLIC "-//W3C//DTD SVG 1.1//EN" "http://www.w3.org/Graphics/SVG/1.1/DTD/svg11.dtd" >
<svg xmlns="http://www.w3.org/2000/svg" xmlns:xlink="http://www.w3.org/1999/xlink" version="1.1">
<metadata>
Created by FontForge 20170731 at Tue Mar  1 22:12:43 2022
 By Aleksey,,,
</metadata>
<defs>
<font id="ElegantIcons" horiz-adv-x="2048" >
  <font-face 
    font-family="ElegantIcons"
    font-weight="400"
    font-stretch="normal"
    units-per-em="2048"
    panose-1="2 0 5 3 0 0 0 0 0 0"
    ascent="1920"
    descent="-128"
    x-height="1536"
    cap-height="1792"
    bbox="-7 -135 2053 1920.75"
    underline-thickness="0"
    underline-position="0"
    unicode-range="U+0021-F000"
  />
<missing-glyph 
 />
    <glyph glyph-name=".notdef" 
 />
    <glyph glyph-name=".notdef" 
 />
    <glyph glyph-name=".null" horiz-adv-x="0" 
 />
    <glyph glyph-name="nonmarkingreturn" horiz-adv-x="682" 
 />
    <glyph glyph-name="exclam" unicode="!" 
d="M1088 128q26 0 45 19t19 45v1254l275 -275q19 -19 45 -19t45 19t19 45t-19 45l-384 384q-10 10 -21 14q-24 11 -48 0q-13 -5 -21 -13v-1l-384 -384q-19 -19 -19 -45t19 -45t45 -19t45 19l275 275v-1254q0 -26 19 -45t45 -19z" />
    <glyph glyph-name="quotedbl" unicode="&#x22;" 
d="M1088 1664q-26 0 -45 -19t-19 -45v-1254l-275 275q-19 19 -45 19t-45 -19t-19 -45t19 -45l384 -384v-1q8 -8 21 -13q24 -11 48 0q11 4 21 14l384 384q19 19 19 45t-19 45t-45 19t-45 -19l-275 -275v1254q0 26 -19 45t-45 19z" />
    <glyph glyph-name="numbersign" unicode="#" 
d="M256 960q0 -11 5 -24t13 -21h1l384 -384q19 -19 45 -19t45 19t19 45t-19 45l-275 275h1254q26 0 45 19t19 45t-19 45t-45 19h-1254l275 275q19 19 19 45t-19 45t-45 19t-45 -19l-384 -384h-1q-8 -8 -13 -21t-5 -24v0z" />
    <glyph glyph-name="dollar" unicode="$" 
d="M256 960q0 -26 19 -45t45 -19h1254l-275 -275q-19 -19 -19 -45t19 -45t45 -19t45 19l384 384q10 10 14 21q5 13 5 24v0q0 11 -5 24q-4 11 -14 21l-384 384q-19 19 -45 19t-45 -19t-19 -45t19 -45l275 -275h-1254q-26 0 -45 -19t-19 -45z" />
    <glyph glyph-name="percent" unicode="%" 
d="M256 960q0 -26 19 -45t45 -19t45 19t19 45v486l1299 -1299q19 -19 45 -19t45 19t19 45t-19 45l-1298 1299h485q26 0 45 19t19 45t-19 45t-45 19h-640q-11 0 -24 -5t-21 -13v-1h-1q-8 -8 -13 -21t-5 -24v-640z" />
    <glyph glyph-name="ampersand" unicode="&#x26;" 
d="M275 147q19 -19 45 -19t45 19l1299 1299v-486q0 -26 19 -45t45 -19t45 19t19 45v640q0 11 -5 24q-11 26 -35 35q-13 5 -24 5h-640q-26 0 -45 -19t-19 -45t19 -45t45 -19h486l-1299 -1299q-19 -19 -19 -45t19 -45z" />
    <glyph glyph-name="quotesingle" unicode="'" 
d="M1728 896q-26 0 -45 -19t-19 -45v-486l-1299 1299q-19 19 -45 19t-45 -19t-19 -45t19 -45l1299 -1299h-486q-26 0 -45 -19t-19 -45t19 -45t45 -19h640q11 0 24 5q26 11 35 35q5 13 5 24v640q0 26 -19 45t-45 19z" />
    <glyph glyph-name="parenleft" unicode="(" 
d="M320 896q-26 0 -45 -19t-19 -45v-640q0 -11 5 -24t13 -21h1v-1q9 -9 20 -13q13 -5 25 -5h640q26 0 45 19t19 45t-19 45t-45 19h-486l1299 1299q19 19 19 45t-19 45t-45 19t-45 -19l-1299 -1299v486q0 26 -19 45t-45 19z" />
    <glyph glyph-name="parenright" unicode=")" 
d="M1299 1555q19 -19 45 -19t45 19t19 45t-19 45l-256 256q-10 10 -21 14q-24 11 -48 0q-13 -5 -21 -13v-1l-256 -256q-19 -19 -19 -45t19 -45t45 -19t45 19l147 147v-1612l-147 147q-19 19 -45 19t-45 -19t-19 -45t19 -45l256 -256v-1q8 -8 21 -13q24 -11 48 0q11 4 21 14
l256 256q19 19 19 45t-19 45t-45 19t-45 -19l-147 -147v1612z" />
    <glyph glyph-name="asterisk" unicode="*" 
d="M1170 -110q19 -19 45 -19q27 0 46 19l246 247q19 19 19 45t-19 45t-45 19t-45 -19l-137 -137v1125q0 26 -19 45t-45 19t-45 -19t-19 -45v-1126l-147 147q-19 19 -45.5 19t-45.5 -19t-19 -45t19 -45zM832 511q26 0 45 19t19 45v1127l147 -148q19 -19 45.5 -19t45.5 19
t19 45.5t-19 45.5l-256 256q-18 18 -45 18q-28 0 -46 -18l-246 -247q-19 -19 -19 -45t19 -45t45 -19t45 19l137 136v-1125q0 -26 19 -45t45 -19z" />
    <glyph glyph-name="plus" unicode="+" 
d="M356 412q19 19 19 45.5t-19 45.5l-138 137h1126q26 0 45 19t19 45t-19 45t-45 19h-1126l147 147q19 19 19 45t-19 45t-45 19t-45 -19l-256 -256q-19 -19 -19 -45t19 -45l246 -247q19 -19 45.5 -19t45.5 19zM2029 1132l-246 247q-19 19 -45.5 19t-45.5 -19t-19 -45.5
t19 -45.5l138 -137h-1126q-26 0 -45 -19t-19 -45t19 -45t45 -19h1126l-147 -147q-19 -19 -19 -45.5t19 -45.5t45 -19t45 19l256 256q19 19 19 46q0 26 -19 45z" />
    <glyph glyph-name="comma" unicode="," 
d="M2043 856q-4 11 -14 21l-256 256q-19 19 -45 19t-45 -19t-19 -45t19 -45l147 -147h-1612l147 147q19 19 19 45t-19 45t-45 19t-45 -19l-256 -256h-1q-8 -8 -13 -21t-5 -24v0q0 -11 5 -24t13 -21h1l256 -256q19 -19 45 -19t45 19t19 45t-19 45l-147 147h1612l-147 -147
q-19 -19 -19 -45t19 -45t45 -19t45 19l256 256q10 10 14 21q5 13 5 24v0q0 11 -5 24z" />
    <glyph glyph-name="hyphen" unicode="-" 
d="M256 960q0 -26 19 -45t45 -19t45 19t19 45v486l1190 -1190h-486q-26 0 -45 -19t-19 -45t19 -45t45 -19h640q11 0 24 5q26 11 35 35q5 13 5 24v640q0 26 -19 45t-45 19t-45 -19t-19 -45v-485l-1189 1189h485q26 0 45 19t19 45t-19 45t-45 19h-640q-11 0 -24 -5t-21 -13v-1
h-1q-8 -8 -13 -21t-5 -24v-640z" />
    <glyph glyph-name="period" unicode="." 
d="M320 896q-26 0 -45 -19t-19 -45v-640q0 -11 5 -24t13 -21h1v-1q9 -9 20 -13q13 -5 25 -5h640q26 0 45 19t19 45t-19 45t-45 19h-486l1190 1190v-486q0 -26 19 -45t45 -19t45 19t19 45v640q0 11 -5 24q-11 26 -35 35q-13 5 -24 5h-640q-26 0 -45 -19t-19 -45t19 -45
t45 -19h486l-1190 -1190v486q0 26 -19 45t-45 19z" />
    <glyph glyph-name="slash" unicode="/" 
d="M1901 1773q-19 19 -45 19t-45 -19l-531 -531v358q0 26 -19 45t-45 19t-45 -19t-19 -45v-512q0 -11 5 -24t13 -21h1v-1q9 -9 20 -13q13 -5 25 -5h512q26 0 45 19t19 45t-19 45t-45 19h-358l531 531q19 19 19 45t-19 45zM147 19q19 -19 45 -19t45 19l531 531v-358
q0 -26 19 -45t45 -19t45 19t19 45v512q0 11 -5 24q-11 26 -35 35q-13 5 -24 5h-512q-26 0 -45 -19t-19 -45t19 -45t45 -19h357l-530 -531q-19 -19 -19 -45t19 -45z" />
    <glyph glyph-name="zero" unicode="0" 
d="M1915 1752q-11 26 -35 35q-13 5 -24 5h-512q-26 0 -45 -19t-19 -45t19 -45t45 -19h358l-531 -531q-19 -19 -19 -45t19 -45t45 -19t45 19l531 531v-358q0 -26 19 -45t45 -19t45 19t19 45v512q0 11 -5 24zM192 640q-26 0 -45 -19t-19 -45v-512q0 -11 5 -24t13 -21h1v-1
q9 -9 20 -13q13 -5 25 -5h512q26 0 45 19t19 45t-19 45t-45 19h-358l531 531q19 19 19 45t-19 45t-45 19t-45 -19l-531 -531v358q0 26 -19 45t-45 19z" />
    <glyph glyph-name="one" unicode="1" 
d="M2043 856q-4 11 -14 21l-256 256q-19 19 -45 19t-45 -19t-19 -45t19 -45l147 -147h-678v678l147 -147q19 -19 45 -19t45 19t19 45t-19 45l-256 256v1q-8 8 -21 13t-24 5t-24 -5t-21 -13v-1l-256 -256q-19 -19 -19 -45t19 -45t45 -19t45 19l147 147v-678h-678l147 147
q19 19 19 45t-19 45t-45 19t-45 -19l-256 -256h-1q-8 -8 -13 -21t-5 -24t5 -24t13 -21h1l256 -256q19 -19 45 -19t45 19t19 45t-19 45l-147 147h678v-678l-147 147q-19 19 -45 19t-45 -19t-19 -45t19 -45l256 -256q10 -10 21 -14q13 -5 24 -5t24 5q11 4 21 14l256 256
q19 19 19 45t-19 45t-45 19t-45 -19l-147 -147v678h678l-147 -147q-19 -19 -19 -45t19 -45t45 -19t45 19l256 256q10 10 14 21q5 13 5 24t-5 24z" />
    <glyph glyph-name="two" unicode="2" 
d="M718 627l370 370l370 -370q19 -19 45.5 -19t45.5 19t19 45.5t-19 45.5l-416 415q-18 18 -45 18t-45 -18l-416 -415q-19 -19 -19 -45.5t19 -45.5t45.5 -19t45.5 19z" />
    <glyph glyph-name="three" unicode="3" 
d="M1458 1037l-370 -370l-370 370q-19 19 -45.5 19t-45.5 -19t-19 -45.5t19 -45.5l416 -415q18 -18 45 -18t45 18l416 415q19 19 19 45.5t-19 45.5t-45.5 19t-45.5 -19z" />
    <glyph glyph-name="four" unicode="4" 
d="M787 787l415 -416q19 -19 45.5 -19t45.5 19t19 45.5t-19 45.5l-370 370l370 370q19 19 19 45.5t-19 45.5t-45.5 19t-45.5 -19l-415 -416q-18 -18 -18 -45t18 -45z" />
    <glyph glyph-name="five" unicode="5" 
d="M883 371q19 -19 45.5 -19t45.5 19l415 416q18 18 18 45t-18 45l-415 416q-19 19 -45.5 19t-45.5 -19t-19 -45.5t19 -45.5l370 -370l-370 -370q-19 -19 -19 -45.5t19 -45.5z" />
    <glyph glyph-name="six" unicode="6" 
d="M1501 1010l-428 379q-19 19 -47 19q-27 0 -46 -19l-428 -379q-19 -19 -19 -45.5t19 -45.5t45.5 -19t45.5 19l383 340l384 -340q19 -19 45.5 -19t45.5 19t19 45.5t-19 45.5zM1073 930q-19 19 -47 19q-27 0 -46 -19l-428 -379q-19 -19 -19 -45.5t19 -45.5t45.5 -19t45.5 19
l383 340l384 -340q19 -19 45.5 -19t45.5 19t19 45.5t-19 45.5z" />
    <glyph glyph-name="seven" unicode="7" 
d="M1405 873l-383 -339l-384 339q-19 19 -45.5 19t-45.5 -19t-19 -45.5t19 -45.5l428 -379q19 -19 47 -19q27 0 46 19l428 379q19 19 19 45.5t-19 45.5t-45.5 19t-45.5 -19zM1496 1332q-19 19 -45.5 19t-45.5 -19l-383 -339l-384 339q-19 19 -45.5 19t-45.5 -19t-19 -45.5
t19 -45.5l428 -379q19 -19 47 -19q27 0 46 19l428 379q19 19 19 45.5t-19 45.5z" />
    <glyph glyph-name="eight" unicode="8" 
d="M531 852l379 -428q19 -19 45.5 -19t45.5 19t19 45.5t-19 45.5l-340 383l340 384q19 19 19 45.5t-19 45.5t-45.5 19t-45.5 -19l-379 -428q-19 -19 -19 -47q0 -27 19 -46zM1460 1373q-19 19 -45.5 19t-45.5 -19l-379 -428q-19 -19 -19 -47q0 -27 19 -46l379 -428
q19 -19 45.5 -19t45.5 19t19 45.5t-19 45.5l-340 383l340 384q19 19 19 45.5t-19 45.5z" />
    <glyph glyph-name="nine" unicode="9" 
d="M1517 940l-379 428q-19 19 -45.5 19t-45.5 -19t-19 -45.5t19 -45.5l340 -383l-340 -384q-19 -19 -19 -45.5t19 -45.5t45.5 -19t45.5 19l379 428q19 19 19 47q0 27 -19 46zM588 419q19 -19 45.5 -19t45.5 19l379 428q19 19 19 47q0 27 -19 46l-379 428q-19 19 -45.5 19
t-45.5 -19t-19 -45.5t19 -45.5l340 -383l-340 -384q-19 -19 -19 -45.5t19 -45.5z" />
    <glyph glyph-name="colon" unicode=":" 
d="M1133 1133q-18 18 -45 18t-45 -18l-416 -415q-19 -19 -19 -45.5t19 -45.5t45.5 -19t45.5 19l370 370l370 -370q19 -19 45.5 -19t45.5 19t19 45.5t-19 45.5zM1092 1783q-195 0 -372 -75.5t-305 -203.5t-203.5 -305t-75.5 -371q0 -156 48 -302t136.5 -263.5t206 -206
t263.5 -136.5t302 -48t302 48t263.5 136.5t206 206t136.5 263.5t48 302q0 194 -75.5 371t-203.5 305t-305 203.5t-372 75.5zM1092 0q-168 0 -321.5 66t-264 176.5t-176.5 264t-66 321.5t66 321.5t176.5 264t264 176.5t321.5 66t321.5 -66t264 -176.5t176.5 -264t66 -321.5
t-66 -321.5t-176.5 -264t-264 -176.5t-321.5 -66z" />
    <glyph glyph-name="semicolon" unicode=";" 
d="M1458 1037l-370 -370l-370 370q-19 19 -45.5 19t-45.5 -19t-19 -45.5t19 -45.5l416 -415q18 -18 45 -18t45 18l416 415q19 19 19 45.5t-19 45.5t-45.5 19t-45.5 -19zM1093 1783q-195 0 -372 -75.5t-305 -203.5t-203.5 -305t-75.5 -371q0 -156 48 -302t136.5 -263.5
t206 -206t263.5 -136.5t302 -48q195 0 371.5 75.5t304.5 203.5t203.5 304.5t75.5 371.5t-75.5 372t-203.5 305t-305 203.5t-371 75.5zM1093 0q-168 0 -321.5 65.5t-264 176.5t-176.5 264t-66 321t66 321.5t176.5 264t264 176.5t321.5 66t321 -66t264 -176.5t176.5 -264
t65.5 -321.5q0 -224 -111 -414.5t-301.5 -301.5t-414.5 -111z" />
    <glyph glyph-name="less" unicode="&#x3c;" 
d="M1293 1293q-19 19 -45.5 19t-45.5 -19l-415 -416q-18 -18 -18 -45t18 -45l415 -416q19 -19 45.5 -19t45.5 19t19 45.5t-19 45.5l-370 370l370 370q19 19 19 45.5t-19 45.5zM1088 1792q-195 0 -373 -76t-306.5 -204.5t-204.5 -306.5t-76 -373t76 -373t204.5 -306.5
t306.5 -204.5t373 -76t373 76t306.5 204.5t204.5 306.5t76 373t-76 373t-204.5 306.5t-306.5 204.5t-373 76zM1088 0q-169 0 -323 66t-265.5 177.5t-177.5 265.5t-66 323t66 323t177.5 265.5t265.5 177.5t323 66t323 -66t265.5 -177.5t177.5 -265.5t66 -323t-66 -323
t-177.5 -265.5t-265.5 -177.5t-323 -66z" />
    <glyph glyph-name="equal" unicode="=" 
d="M1389 877l-415 416q-19 19 -45.5 19t-45.5 -19t-19 -45.5t19 -45.5l370 -370l-370 -370q-19 -19 -19 -45.5t19 -45.5t45.5 -19t45.5 19l415 416q18 18 18 45t-18 45zM1093 1783q-156 0 -302 -48t-263.5 -136.5t-206 -206t-136.5 -263.5t-48 -302q0 -194 75.5 -371
t203.5 -305t305 -203.5t372 -75.5t371.5 75.5t304.5 203.5t203.5 304.5t75.5 371.5t-75.5 372t-203.5 305t-305 203.5t-371 75.5zM1093 0q-168 0 -321.5 65.5t-264 176.5t-176.5 264t-66 321t66 321.5t176.5 264t264 176.5t321.5 66t321 -66t264 -176.5t176.5 -264
t65.5 -321.5q0 -224 -111 -414.5t-301.5 -301.5t-414.5 -111z" />
    <glyph glyph-name="greater" unicode="&#x3e;" 
d="M1137 1325q-19 19 -47 19q-27 0 -46 -19l-428 -379q-19 -19 -19 -45.5t19 -45.5t45.5 -19t45.5 19l383 340l384 -340q19 -19 45.5 -19t45.5 19t19 45.5t-19 45.5zM1137 866q-19 19 -47 19q-27 0 -46 -19l-428 -379q-19 -19 -19 -45.5t19 -45.5t45.5 -19t45.5 19l383 340
l384 -340q19 -19 45.5 -19t45.5 19t19 45.5t-19 45.5zM1093 1783q-156 0 -302 -48t-263.5 -136.5t-206 -206t-136.5 -263.5t-48 -302q0 -194 75.5 -371t203.5 -305t305 -203.5t372 -75.5t371.5 75.5t304.5 203.5t203.5 304.5t75.5 371.5t-75.5 372t-203.5 305t-305 203.5
t-371 75.5zM1093 0q-168 0 -321.5 65.5t-264 176.5t-176.5 264t-66 321t66 321.5t176.5 264t264 176.5t321.5 66t321 -66t264 -176.5t176.5 -264t65.5 -321.5q0 -224 -111 -414.5t-301.5 -301.5t-414.5 -111z" />
    <glyph glyph-name="question" unicode="?" 
d="M1469 809l-383 -339l-384 339q-19 19 -45.5 19t-45.5 -19t-19 -45.5t19 -45.5l428 -379q19 -19 47 -19q27 0 46 19l428 379q19 19 19 45.5t-19 45.5t-45.5 19t-45.5 -19zM1469 1268l-383 -339l-384 339q-19 19 -45.5 19t-45.5 -19t-19 -45.5t19 -45.5l428 -379
q19 -19 47 -19q27 0 46 19l428 379q19 19 19 45.5t-19 45.5t-45.5 19t-45.5 -19zM1093 1783q-156 0 -302 -48t-263.5 -136.5t-206 -206t-136.5 -263.5t-48 -302q0 -194 75.5 -371t203.5 -305t305 -203.5t372 -75.5t371.5 75.5t304.5 203.5t203.5 304.5t75.5 371.5t-75.5 372
t-203.5 305t-305 203.5t-371 75.5zM1093 0q-168 0 -321.5 65.5t-264 176.5t-176.5 264t-66 321t66 321.5t176.5 264t264 176.5t321.5 66t321 -66t264 -176.5t176.5 -264t65.5 -321.5q0 -224 -111 -414.5t-301.5 -301.5t-414.5 -111z" />
    <glyph glyph-name="at" unicode="@" 
d="M725 834l340 384q19 19 19 45.5t-19 45.5t-45.5 19t-45.5 -19l-379 -428q-19 -19 -19 -47q0 -27 19 -46l379 -428q19 -19 45.5 -19t45.5 19t19 45.5t-19 45.5zM1524 1309q-19 19 -45.5 19t-45.5 -19l-379 -428q-19 -19 -19 -47q0 -27 19 -46l379 -428q19 -19 45.5 -19
t45.5 19t19 45.5t-19 45.5l-340 383l340 384q19 19 19 45.5t-19 45.5zM1088 1792q-195 0 -373 -76t-306.5 -204.5t-204.5 -306.5t-76 -373t76 -373t204.5 -306.5t306.5 -204.5t373 -76t373 76t306.5 204.5t204.5 306.5t76 373t-76 373t-204.5 306.5t-306.5 204.5t-373 76z
M1088 0q-169 0 -323 66t-265.5 177.5t-177.5 265.5t-66 323t66 323t177.5 265.5t265.5 177.5t323 66t323 -66t265.5 -177.5t177.5 -265.5t66 -323t-66 -323t-177.5 -265.5t-265.5 -177.5t-323 -66z" />
    <glyph glyph-name="A" unicode="A" 
d="M1581 876l-379 428q-19 19 -45.5 19t-45.5 -19t-19 -45.5t19 -45.5l340 -383l-340 -384q-19 -19 -19 -45.5t19 -45.5t45.5 -19t45.5 19l379 428q19 19 19 47q0 27 -19 46zM1141 830q0 27 -19 46l-379 428q-19 19 -45.5 19t-45.5 -19t-19 -45.5t19 -45.5l340 -383
l-340 -384q-19 -19 -19 -45.5t19 -45.5t45.5 -19t45.5 19l379 428q19 19 19 47zM1088 1792q-195 0 -373 -76t-306.5 -204.5t-204.5 -306.5t-76 -373t76 -373t204.5 -306.5t306.5 -204.5t373 -76t373 76t306.5 204.5t204.5 306.5t76 373t-76 373t-204.5 306.5t-306.5 204.5
t-373 76zM1088 0q-169 0 -323 66t-265.5 177.5t-177.5 265.5t-66 323t66 323t177.5 265.5t265.5 177.5t323 66t323 -66t265.5 -177.5t177.5 -265.5t66 -323t-66 -323t-177.5 -265.5t-265.5 -177.5t-323 -66z" />
    <glyph glyph-name="B" unicode="B" 
d="M576 640h894q26 0 46 23v-1q19 21 19 50.5t-19 50.5l-448 496q-19 21 -45 21t-45 -21l-2 -2l-447 -494q-19 -21 -19 -50.5t19 -50.5h1q20 -22 46 -22z" />
    <glyph glyph-name="C" unicode="C" 
d="M1068 661v1l1 1l447 494q19 21 19 50.5t-19 50.5h-1q-20 22 -45 22h-894q-26 0 -46 -23l-1 1q-19 -21 -19 -50.5t19 -50.5l448 -496q19 -21 45.5 -21t45.5 21z" />
    <glyph glyph-name="D" unicode="D" 
d="M1157 1391l-496 -448q-21 -19 -21 -45.5t21 -45.5h1l1 -1l494 -447q21 -19 50.5 -19t50.5 19v1q22 20 22 45v894q0 26 -23 46h1q-21 19 -50.5 19.5t-50.5 -18.5z" />
    <glyph glyph-name="E" unicode="E" 
d="M889 402l490 449q20 19 20 45t-20 45l-1 1q-2 0 -2 1l-487 448q-20 19 -49.5 19t-49.5 -19l-1 -1q-21 -19 -21 -46v-896q0 -26 22 -46q21 -19 50 -19t49 19z" />
    <glyph glyph-name="F" unicode="F" 
d="M1088 1792q-195 0 -373 -76t-306.5 -204.5t-204.5 -306.5t-76 -373t76 -373t204.5 -306.5t306.5 -204.5t373 -76t373 76t306.5 204.5t204.5 306.5t76 373t-76 373t-204.5 306.5t-306.5 204.5t-373 76zM1088 0q-169 0 -323 66t-265.5 177.5t-177.5 265.5t-66 323t66 323
t177.5 265.5t265.5 177.5t323 66t323 -66t265.5 -177.5t177.5 -265.5t66 -323t-66 -323t-177.5 -265.5t-265.5 -177.5t-323 -66zM1126 1131q-16 21 -39 21t-40 -21l-1 -1v-1l-391 -494q-17 -21 -17 -50.5t17 -50.5h1q17 -22 40 -22h782q24 0 40 23v-1q16 21 16 50.5
t-16 50.5z" />
    <glyph glyph-name="G" unicode="G" 
d="M1088 1792q-195 0 -373 -76t-306.5 -204.5t-204.5 -306.5t-76 -373t76 -373t204.5 -306.5t306.5 -204.5t373 -76t373 76t306.5 204.5t204.5 306.5t76 373t-76 373t-204.5 306.5t-306.5 204.5t-373 76zM1088 0q-169 0 -323 66t-265.5 177.5t-177.5 265.5t-66 323t66 323
t177.5 265.5t265.5 177.5t323 66t323 -66t265.5 -177.5t177.5 -265.5t66 -323t-66 -323t-177.5 -265.5t-265.5 -177.5t-323 -66zM1519 1002q-17 22 -40 22h-782q-24 0 -40 -23l-1 1q-16 -21 -16 -50.5t16 -50.5l392 -496q16 -21 39 -21t40 21l2 2l391 494q16 21 16 50.5
t-16 50.5h-1z" />
    <glyph glyph-name="H" unicode="H" 
d="M1088 1792q-195 0 -373 -76t-306.5 -204.5t-204.5 -306.5t-76 -373t76 -373t204.5 -306.5t306.5 -204.5t373 -76t373 76t306.5 204.5t204.5 306.5t76 373t-76 373t-204.5 306.5t-306.5 204.5t-373 76zM1088 0q-169 0 -323 66t-265.5 177.5t-177.5 265.5t-66 323t66 323
t177.5 265.5t265.5 177.5t323 66t323 -66t265.5 -177.5t177.5 -265.5t66 -323t-66 -323t-177.5 -265.5t-265.5 -177.5t-323 -66zM1258 1265q-21 17 -50.5 17t-50.5 -17l-496 -392q-21 -17 -21 -40t21 -39h1l1 -1l494 -391q21 -16 50.5 -16t50.5 16q22 17 22 40v782
q0 25 -23 41h1z" />
    <glyph glyph-name="I" unicode="I" 
d="M1088 1792q-195 0 -373 -76t-306.5 -204.5t-204.5 -306.5t-76 -373t76 -373t204.5 -306.5t306.5 -204.5t373 -76t373 76t306.5 204.5t204.5 306.5t76 373t-76 373t-204.5 306.5t-306.5 204.5t-373 76zM1088 0q-169 0 -323 66t-265.5 177.5t-177.5 265.5t-66 323t66 323
t177.5 265.5t265.5 177.5t323 66t323 -66t265.5 -177.5t177.5 -265.5t66 -323t-66 -323t-177.5 -265.5t-265.5 -177.5t-323 -66zM1513 874l-494 391q-21 17 -50.5 17t-50.5 -17v-1q-22 -17 -22 -40v-782q0 -24 23 -40h-1q21 -16 50.5 -16t50.5 16l496 392q21 16 21 39
t-21 40l-1 1h-1z" />
    <glyph glyph-name="J" unicode="J" 
d="M275 915l384 -384q19 -19 45 -19t45 19t19 45t-19 45l-275 275h934q92 0 167.5 -40t121.5 -105t70.5 -143t24.5 -160q0 -26 19 -45t45 -19t45 19t19 45q0 88 -16 168.5t-54 156t-95.5 130.5t-146.5 88t-200 33h-934l275 275q19 19 19 45t-19 45t-45 19t-45 -19l-384 -384
q-19 -19 -19 -45t19 -45z" />
    <glyph glyph-name="K" unicode="K" 
d="M576 768h1024q26 0 45 19t19 45t-19 45t-45 19h-1024q-26 0 -45 -19t-19 -45t19 -45t45 -19z" />
    <glyph glyph-name="L" unicode="L" 
d="M576 768h448v-448q0 -26 19 -45t45 -19t45 19t19 45v448h448q26 0 45 19t19 45t-19 45t-45 19h-448v448q0 26 -19 45t-45 19t-45 -19t-19 -45v-448h-448q-26 0 -45 -19t-19 -45t19 -45t45 -19z" />
    <glyph glyph-name="M" unicode="M" 
d="M643 387q19 -19 45.5 -19t45.5 19l354 355l354 -355q19 -19 45.5 -19t45.5 19t19 45.5t-19 45.5l-355 354l355 354q19 19 19 45.5t-19 45.5t-45.5 19t-45.5 -19l-354 -355l-354 355q-19 19 -45.5 19t-45.5 -19t-19 -45.5t19 -45.5l355 -354l-355 -354q-19 -19 -19 -45.5
t19 -45.5z" />
    <glyph glyph-name="N" unicode="N" 
d="M882 282q1 -1 3.5 -3t3.5 -3q2 -2 7 -3t6 -2t6 -3t8 -3q10 -2 15 -2q11 -2 22 0q1 1 4 1t4 1q16 3 26 10l3 3q2 1 8 4.5t8 6.5q2 2 4 6l3 6l763 1223q20 31 12.5 67.5t-38.5 56.5t-67.5 12.5t-56.5 -38.5l-704 -1129l-390 379q-27 25 -64 23.5t-63 -28.5
q-25 -27 -23.5 -64t28.5 -63l469 -456q1 0 1 -1z" />
    <glyph glyph-name="O" unicode="O" 
d="M1088 1792q-195 0 -373 -76t-306.5 -204.5t-204.5 -306.5t-76 -373t76 -373t204.5 -306.5t306.5 -204.5t373 -76t373 76t306.5 204.5t204.5 306.5t76 373t-76 373t-204.5 306.5t-306.5 204.5t-373 76zM1088 0q-169 0 -323 66t-265.5 177.5t-177.5 265.5t-66 323t66 323
t177.5 265.5t265.5 177.5t323 66t323 -66t265.5 -177.5t177.5 -265.5t66 -323t-66 -323t-177.5 -265.5t-265.5 -177.5t-323 -66zM1600 896h-1024q-26 0 -45 -19t-19 -45t19 -45t45 -19h1024q26 0 45 19t19 45t-19 45t-45 19z" />
    <glyph glyph-name="P" unicode="P" 
d="M1088 1792q-195 0 -373 -76t-306.5 -204.5t-204.5 -306.5t-76 -373t76 -373t204.5 -306.5t306.5 -204.5t373 -76t373 76t306.5 204.5t204.5 306.5t76 373t-76 373t-204.5 306.5t-306.5 204.5t-373 76zM1088 0q-169 0 -323 66t-265.5 177.5t-177.5 265.5t-66 323t66 323
t177.5 265.5t265.5 177.5t323 66t323 -66t265.5 -177.5t177.5 -265.5t66 -323t-66 -323t-177.5 -265.5t-265.5 -177.5t-323 -66zM1600 896h-448v448q0 26 -19 45t-45 19t-45 -19t-19 -45v-448h-448q-26 0 -45 -19t-19 -45t19 -45t45 -19h448v-448q0 -26 19 -45t45 -19t45 19
t19 45v448h448q26 0 45 19t19 45t-19 45t-45 19z" />
    <glyph glyph-name="Q" unicode="Q" 
d="M1088 1792q-195 0 -373 -76t-306.5 -204.5t-204.5 -306.5t-76 -373t76 -373t204.5 -306.5t306.5 -204.5t373 -76t373 76t306.5 204.5t204.5 306.5t76 373t-76 373t-204.5 306.5t-306.5 204.5t-373 76zM1088 0q-169 0 -323 66t-265.5 177.5t-177.5 265.5t-66 323t66 323
t177.5 265.5t265.5 177.5t323 66t323 -66t265.5 -177.5t177.5 -265.5t66 -323t-66 -323t-177.5 -265.5t-265.5 -177.5t-323 -66zM1442 1277l-352 -352l-315 352q-19 19 -45.5 19t-45.5 -19t-19 -45.5t19 -45.5l316 -352l-357 -356q-19 -19 -19 -45.5t19 -45.5t45.5 -19
t45.5 19l352 352l315 -352q19 -19 45.5 -19t45.5 19t19 45.5t-19 45.5l-316 352l357 356q19 19 19 45.5t-19 45.5t-45.5 19t-45.5 -19z" />
    <glyph glyph-name="R" unicode="R" 
d="M1029 1920q-209 0 -398.5 -81t-326.5 -218t-218 -326.5t-81 -398.5t81 -398.5t218 -326.5t326.5 -218t398.5 -81t398.5 81t326.5 218t218 326.5t81 398.5t-81 398.5t-218 326.5t-326.5 218t-398.5 81zM1029 0q-182 0 -348 71t-286 191t-191 286t-71 348t71 348t191 286
t286 191t348 71t348 -71t286 -191t191 -286t71 -348t-71 -348t-191 -286t-286 -191t-348 -71zM1478 1303q-31 20 -67.5 12.5t-56.5 -38.5l-432 -660l-207 191q-27 25 -64 23.5t-63 -28.5q-25 -27 -23.5 -63.5t28.5 -62.5l286 -265q1 0 1 -1l2 -1q1 -1 3.5 -3t3.5 -3
q2 -2 6.5 -3t5.5 -2l5 -2.5t5.5 -2.5t4.5 -1q10 -2 15 -2q11 -2 22 0q1 1 4 1t4 1q14 3 25 10q0 1 2 2l2 1q2 1 8 4.5t8 6.5q2 2 4 6l3 6l491 750q20 31 12.5 67.5t-38.5 56.5z" />
    <glyph glyph-name="S" unicode="S" 
d="M1216 1920q-169 0 -323.5 -66t-265.5 -177t-177 -265.5t-66 -323.5q0 -293 184 -522l-542 -542q-26 -26 -26 -63t26 -63t63 -26t63 26l542 542q229 -184 522 -184q169 0 323.5 66t265.5 177t177 265.5t66 323.5t-66 323.5t-177 265.5t-265.5 177t-323.5 66zM1216 384
q-191 0 -353 94.5t-256.5 256.5t-94.5 353t94.5 353t256.5 256.5t353 94.5t353 -94.5t256.5 -256.5t94.5 -353t-94.5 -353t-256.5 -256.5t-353 -94.5zM1600 1152h-768q-26 0 -45 -19t-19 -45t19 -45t45 -19h768q26 0 45 19t19 45t-19 45t-45 19z" />
    <glyph glyph-name="T" unicode="T" 
d="M1216 1920q-169 0 -323.5 -66t-265.5 -177t-177 -265.5t-66 -323.5q0 -293 184 -522l-542 -542q-26 -26 -26 -63t26 -63t63 -26t63 26l542 542q229 -184 522 -184q169 0 323.5 66t265.5 177t177 265.5t66 323.5t-66 323.5t-177 265.5t-265.5 177t-323.5 66zM1216 384
q-191 0 -353 94.5t-256.5 256.5t-94.5 353t94.5 353t256.5 256.5t353 94.5t353 -94.5t256.5 -256.5t94.5 -353t-94.5 -353t-256.5 -256.5t-353 -94.5zM1600 1152h-320v320q0 26 -19 45t-45 19t-45 -19t-19 -45v-320h-320q-26 0 -45 -19t-19 -45t19 -45t45 -19h320v-320
q0 -26 19 -45t45 -19t45 19t19 45v320h320q26 0 45 19t19 45t-19 45t-45 19z" />
    <glyph glyph-name="U" unicode="U" 
d="M1216 1920q-169 0 -323.5 -66t-265.5 -177t-177 -265.5t-66 -323.5q0 -292 185 -522l-550 -550q-26 -26 -26 -62.5t26 -62.5t62.5 -26t62.5 26l550 550q230 -185 522 -185q169 0 323.5 66t265.5 177t177 265.5t66 323.5t-66 323.5t-177 265.5t-265.5 177t-323.5 66z
M1216 384q-191 0 -353 94.5t-256.5 256.5t-94.5 353t94.5 353t256.5 256.5t353 94.5t353 -94.5t256.5 -256.5t94.5 -353t-94.5 -353t-256.5 -256.5t-353 -94.5z" />
    <glyph glyph-name="V" unicode="V" 
d="M1664 1664h-1280q-53 0 -90.5 -37.5t-37.5 -90.5v-1280q0 -53 37.5 -90.5t90.5 -37.5h1280q53 0 90.5 37.5t37.5 90.5v1280q0 53 -37.5 90.5t-90.5 37.5zM1664 256h-1280v1280h1280v-1280z" />
    <glyph glyph-name="W" unicode="W" 
d="M1664 1664h-1280q-53 0 -90.5 -37.5t-37.5 -90.5v-1280q0 -53 37.5 -90.5t90.5 -37.5h1280q53 0 90.5 37.5t37.5 90.5v1280q0 53 -37.5 90.5t-90.5 37.5zM1664 256h-1280v1280h1280v-1280zM768 512h512q53 0 90.5 37.5t37.5 90.5v512q0 53 -37.5 90.5t-90.5 37.5h-512
q-53 0 -90.5 -37.5t-37.5 -90.5v-512q0 -53 37.5 -90.5t90.5 -37.5z" />
    <glyph glyph-name="X" unicode="X" 
d="M512 1280v-896q0 -53 37.5 -90.5t90.5 -37.5h896q53 0 90.5 37.5t37.5 90.5v896q0 53 -37.5 90.5t-90.5 37.5h-896q-53 0 -90.5 -37.5t-37.5 -90.5zM1536 384h-896v896h896v-896zM832 768h512q26 0 45 19t19 45t-19 45t-45 19h-512q-26 0 -45 -19t-19 -45t19 -45t45 -19z
" />
    <glyph glyph-name="Y" unicode="Y" 
d="M512 1280v-896q0 -53 37.5 -90.5t90.5 -37.5h896q53 0 90.5 37.5t37.5 90.5v896q0 53 -37.5 90.5t-90.5 37.5h-896q-53 0 -90.5 -37.5t-37.5 -90.5zM1536 384h-896v896h896v-896zM832 768h192v-192q0 -26 19 -45t45 -19t45 19t19 45v192h192q26 0 45 19t19 45t-19 45
t-45 19h-192v192q0 26 -19 45t-45 19t-45 -19t-19 -45v-192h-192q-26 0 -45 -19t-19 -45t19 -45t45 -19z" />
    <glyph glyph-name="Z" unicode="Z" 
d="M1664 256h-1280v1280h944l80 128h-1024q-53 0 -90.5 -37.5t-37.5 -90.5v-1280q0 -53 37.5 -90.5t90.5 -37.5h1280q53 0 90.5 37.5t37.5 90.5v845l-128 -205v-640zM1879 1777q-23 15 -48 15q-48 0 -75 -41l-696 -1003l-269 307q-27 25 -64 23.5t-63 -28.5
q-25 -27 -23.5 -64t28.5 -63l323 -369q2 -3 8 -9l8 -9l2 -1l2 -1q2 -1 3.5 -3.5t2.5 -3.5q6 -4 18 -8q2 -2 4 -2q15 -5 28 -5l1 1q39 0 66 28l3 6t4 6h1l762 1100q20 31 12.5 67.5t-38.5 56.5z" />
    <glyph glyph-name="bracketleft" unicode="[" 
d="M1024 1664q-209 0 -385.5 -103t-279.5 -279.5t-103 -385.5t103 -385.5t279.5 -279.5t385.5 -103t385.5 103t279.5 279.5t103 385.5t-103 385.5t-279.5 279.5t-385.5 103zM1024 256q-130 0 -248.5 51t-204 136.5t-136.5 204t-51 248.5t51 248.5t136.5 204t204 136.5
t248.5 51t248.5 -51t204 -136.5t136.5 -204t51 -248.5t-51 -248.5t-136.5 -204t-204 -136.5t-248.5 -51z" />
    <glyph glyph-name="backslash" unicode="\" 
d="M1024 1664q-209 0 -385.5 -103t-279.5 -279.5t-103 -385.5t103 -385.5t279.5 -279.5t385.5 -103t385.5 103t279.5 279.5t103 385.5t-103 385.5t-279.5 279.5t-385.5 103zM1024 256q-130 0 -248.5 51t-204 136.5t-136.5 204t-51 248.5t51 248.5t136.5 204t204 136.5
t248.5 51t248.5 -51t204 -136.5t136.5 -204t51 -248.5t-51 -248.5t-136.5 -204t-204 -136.5t-248.5 -51zM640 896q0 -159 112.5 -271.5t271.5 -112.5t271.5 112.5t112.5 271.5t-112.5 271.5t-271.5 112.5t-271.5 -112.5t-112.5 -271.5z" />
    <glyph glyph-name="bracketright" unicode="]" 
d="M1024 1920q-209 0 -398.5 -81t-326.5 -218t-218 -326.5t-81 -398.5t81 -398.5t218 -326.5t326.5 -218t398.5 -81t398.5 81t326.5 218t218 326.5t81 398.5t-81 398.5t-218 326.5t-326.5 218t-398.5 81zM1024 0q-182 0 -348 71t-286 191t-191 286t-71 348t71 348t191 286
t286 191t348 71t348 -71t286 -191t191 -286t71 -348t-71 -348t-191 -286t-286 -191t-348 -71zM1280 1280h-512q-53 0 -90.5 -37.5t-37.5 -90.5v-512q0 -53 37.5 -90.5t90.5 -37.5h512q53 0 90.5 37.5t37.5 90.5v512q0 53 -37.5 90.5t-90.5 37.5z" />
    <glyph glyph-name="asciicircum" unicode="^" 
d="M1280 512q53 0 90.5 37.5t37.5 90.5v512q0 53 -37.5 90.5t-90.5 37.5h-512q-53 0 -90.5 -37.5t-37.5 -90.5v-512q0 -53 37.5 -90.5t90.5 -37.5h512z" />
    <glyph glyph-name="underscore" unicode="_" 
d="M1024 -128q209 0 398.5 81t326.5 218t218 326.5t81 398.5t-81 398.5t-218 326.5t-326.5 218t-398.5 81t-398.5 -81t-326.5 -218t-218 -326.5t-81 -398.5t81 -398.5t218 -326.5t326.5 -218t398.5 -81zM1024 1792q182 0 348 -71t286 -191t191 -286t71 -348t-71 -348
t-191 -286t-286 -191t-348 -71t-348 71t-286 191t-191 286t-71 348t71 348t191 286t286 191t348 71zM768 512q53 0 90.5 37.5t37.5 90.5v512q0 53 -37.5 90.5t-90.5 37.5t-90.5 -37.5t-37.5 -90.5v-512q0 -53 37.5 -90.5t90.5 -37.5zM1280 512q53 0 90.5 37.5t37.5 90.5v512
q0 53 -37.5 90.5t-90.5 37.5t-90.5 -37.5t-37.5 -90.5v-512q0 -53 37.5 -90.5t90.5 -37.5z" />
    <glyph glyph-name="grave" unicode="`" 
d="M768 1280q-53 0 -90.5 -37.5t-37.5 -90.5v-512q0 -53 37.5 -90.5t90.5 -37.5t90.5 37.5t37.5 90.5v512q0 53 -37.5 90.5t-90.5 37.5zM1152 640q0 -53 37.5 -90.5t90.5 -37.5t90.5 37.5t37.5 90.5v512q0 53 -37.5 90.5t-90.5 37.5t-90.5 -37.5t-37.5 -90.5v-512z" />
    <glyph glyph-name="a" unicode="a" 
d="M448 896h1152q26 0 45 19t19 45t-19 45t-45 19h-1152q-26 0 -45 -19t-19 -45t19 -45t45 -19zM448 1280h1152q26 0 45 19t19 45t-19 45t-45 19h-1152q-26 0 -45 -19t-19 -45t19 -45t45 -19zM448 512h1152q26 0 45 19t19 45t-19 45t-45 19h-1152q-26 0 -45 -19t-19 -45
t19 -45t45 -19z" />
    <glyph glyph-name="b" unicode="b" 
d="M1920 1792h-1664q-53 0 -90.5 -37.5t-37.5 -90.5v-1664q0 -53 37.5 -90.5t90.5 -37.5h1664q53 0 90.5 37.5t37.5 90.5v1664q0 53 -37.5 90.5t-90.5 37.5zM1920 0h-1664v1664h1664v-1664zM576 768h1024q26 0 45 19t19 45t-19 45t-45 19h-1024q-26 0 -45 -19t-19 -45
t19 -45t45 -19zM576 1152h1024q26 0 45 19t19 45t-19 45t-45 19h-1024q-26 0 -45 -19t-19 -45t19 -45t45 -19zM576 384h1024q26 0 45 19t19 45t-19 45t-45 19h-1024q-26 0 -45 -19t-19 -45t19 -45t45 -19z" />
    <glyph glyph-name="c" unicode="c" 
d="M1088 1792q-195 0 -373 -76t-306.5 -204.5t-204.5 -306.5t-76 -373t76 -373t204.5 -306.5t306.5 -204.5t373 -76t373 76t306.5 204.5t204.5 306.5t76 373t-76 373t-204.5 306.5t-306.5 204.5t-373 76zM1088 0q-169 0 -323 66t-265.5 177.5t-177.5 265.5t-66 323t66 323
t177.5 265.5t265.5 177.5t323 66t323 -66t265.5 -177.5t177.5 -265.5t66 -323t-66 -323t-177.5 -265.5t-265.5 -177.5t-323 -66zM1600 896h-1024q-26 0 -45 -19t-19 -45t19 -45t45 -19h1024q26 0 45 19t19 45t-19 45t-45 19zM1600 1280h-1024q-26 0 -45 -19t-19 -45t19 -45
t45 -19h1024q26 0 45 19t19 45t-19 45t-45 19zM1600 512h-1024q-26 0 -45 -19t-19 -45t19 -45t45 -19h1024q26 0 45 19t19 45t-19 45t-45 19z" />
    <glyph glyph-name="d" unicode="d" 
d="M704 896h1024q26 0 45 19t19 45t-19 45t-45 19h-1024q-26 0 -45 -19t-19 -45t19 -45t45 -19zM704 1408h1024q26 0 45 19t19 45t-19 45t-45 19h-1024q-26 0 -45 -19t-19 -45t19 -45t45 -19zM704 384h1024q26 0 45 19t19 45t-19 45t-45 19h-1024q-26 0 -45 -19t-19 -45
t19 -45t45 -19zM256 1472q0 -26 19 -45t45 -19t45 19t19 45t-19 45t-45 19t-45 -19t-19 -45zM256 960q0 -26 19 -45t45 -19t45 19t19 45t-19 45t-45 19t-45 -19t-19 -45zM256 448q0 -26 19 -45t45 -19t45 19t19 45t-19 45t-45 19t-45 -19t-19 -45z" />
    <glyph glyph-name="e" unicode="e" 
d="M1728 1024h-1024q-26 0 -45 -19t-19 -45t19 -45t45 -19h1024q26 0 45 19t19 45t-19 45t-45 19zM1728 1536h-1024q-26 0 -45 -19t-19 -45t19 -45t45 -19h1024q26 0 45 19t19 45t-19 45t-45 19zM1728 512h-1024q-26 0 -45 -19t-19 -45t19 -45t45 -19h1024q26 0 45 19t19 45
t-19 45t-45 19zM445 1314v316h-36l-69 -37l8 -33l55 30h1v-276h41zM344 861l-33 -33v-26h201v36h-142v1l25 23q57 55 83 92t26 77q0 38 -24 65t-72 27q-53 0 -90 -32l14 -30q34 27 67 27q62 0 62 -62q0 -33 -26 -68t-91 -97zM396 325q-40 0 -69 19l-12 -33q31 -21 82 -21
q55 0 85 27.5t30 67.5q0 32 -19.5 53.5t-50.5 27.5v1q58 21 58 74q0 31 -23.5 53t-67.5 22q-48 0 -82 -24l11 -31q29 21 63 21q28 0 42 -14t14 -34q0 -26 -22 -39.5t-49 -13.5h-24v-32h24q34 0 58 -16t24 -47q1 -23 -16.5 -42t-55.5 -19z" />
    <glyph glyph-name="f" unicode="f" 
d="M1728 1536h-192q0 53 -37.5 90.5t-90.5 37.5h-128q-53 0 -90.5 -37.5t-37.5 -90.5h-832q-26 0 -45 -19t-19 -45t19 -45t45 -19h832q0 -53 37.5 -90.5t90.5 -37.5h128q53 0 90.5 37.5t37.5 90.5h192q26 0 45 19t19 45t-19 45t-45 19zM1408 1408h-128v128h128v-128z
M1728 1024h-832q0 53 -37.5 90.5t-90.5 37.5h-128q-53 0 -90.5 -37.5t-37.5 -90.5h-192q-26 0 -45 -19t-19 -45t19 -45t45 -19h192q0 -53 37.5 -90.5t90.5 -37.5h128q53 0 90.5 37.5t37.5 90.5h832q26 0 45 19t19 45t-19 45t-45 19zM768 896h-128v128h128v-128zM1728 512
h-448q0 53 -37.5 90.5t-90.5 37.5h-128q-53 0 -90.5 -37.5t-37.5 -90.5h-576q-26 0 -45 -19t-19 -45t19 -45t45 -19h576q0 -53 37.5 -90.5t90.5 -37.5h128q53 0 90.5 37.5t37.5 90.5h448q26 0 45 19t19 45t-19 45t-45 19zM1152 384h-128v128h128v-128z" />
    <glyph glyph-name="g" unicode="g" 
d="M640 1408v192q0 26 -19 45t-45 19t-45 -19t-19 -45v-192q-53 0 -90.5 -37.5t-37.5 -90.5v-128q0 -53 37.5 -90.5t90.5 -37.5v-832q0 -26 19 -45t45 -19t45 19t19 45v832q53 0 90.5 37.5t37.5 90.5v128q0 53 -37.5 90.5t-90.5 37.5zM512 1280h128v-128h-128v128zM1152 768
v832q0 26 -19 45t-45 19t-45 -19t-19 -45v-832q-53 0 -90.5 -37.5t-37.5 -90.5v-128q0 -53 37.5 -90.5t90.5 -37.5v-192q0 -26 19 -45t45 -19t45 19t19 45v192q53 0 90.5 37.5t37.5 90.5v128q0 53 -37.5 90.5t-90.5 37.5zM1024 640h128v-128h-128v128zM1664 1152v448
q0 26 -19 45t-45 19t-45 -19t-19 -45v-448q-53 0 -90.5 -37.5t-37.5 -90.5v-128q0 -53 37.5 -90.5t90.5 -37.5v-576q0 -26 19 -45t45 -19t45 19t19 45v576q53 0 90.5 37.5t37.5 90.5v128q0 53 -37.5 90.5t-90.5 37.5zM1536 1024h128v-128h-128v128z" />
    <glyph glyph-name="h" unicode="h" 
d="M256 -128h1536q53 0 90.5 37.5t37.5 90.5v1792q0 53 -37.5 90.5t-90.5 37.5h-1536q-53 0 -90.5 -37.5t-37.5 -90.5v-1792q0 -53 37.5 -90.5t90.5 -37.5zM256 1792h1536v-1792h-1536v1792zM1472 1536h-512q-26 0 -45 -19t-19 -45t19 -45t45 -19h512q26 0 45 19t19 45
t-19 45t-45 19zM1472 1152h-896q-26 0 -45 -19t-19 -45t19 -45t45 -19h896q26 0 45 19t19 45t-19 45t-45 19zM1472 768h-896q-26 0 -45 -19t-19 -45t19 -45t45 -19h896q26 0 45 19t19 45t-19 45t-45 19zM1472 384h-896q-26 0 -45 -19t-19 -45t19 -45t45 -19h896q26 0 45 19
t19 45t-19 45t-45 19z" />
    <glyph glyph-name="i" unicode="i" 
d="M256 128h128v-128q0 -53 37.5 -90.5t90.5 -37.5h1280q53 0 90.5 37.5t37.5 90.5v1536q0 53 -37.5 90.5t-90.5 37.5h-128v128q0 53 -37.5 90.5t-90.5 37.5h-1280q-53 0 -90.5 -37.5t-37.5 -90.5v-1536q0 -53 37.5 -90.5t90.5 -37.5zM1536 256h-1280v1536h1280v-1536z
M1792 1536v-1536h-1280v128h1024q53 0 90.5 37.5t37.5 90.5v1280h128zM640 1472q0 -26 19 -45t45 -19h640q26 0 45 19t19 45t-19 45t-45 19h-640q-26 0 -45 -19t-19 -45zM448 1024h896q26 0 45 19t19 45t-19 45t-45 19h-896q-26 0 -45 -19t-19 -45t19 -45t45 -19zM448 768
h896q26 0 45 19t19 45t-19 45t-45 19h-896q-26 0 -45 -19t-19 -45t19 -45t45 -19zM448 512h896q26 0 45 19t19 45t-19 45t-45 19h-896q-26 0 -45 -19t-19 -45t19 -45t45 -19z" />
    <glyph glyph-name="j" unicode="j" 
d="M1928 -8l-135 406l-1086 1086l-67 -67l-204 -204l1086 -1086zM255 1394l271 271l-134 135q-56 56 -136 56t-136 -56t-56 -136t56 -136z" />
    <glyph glyph-name="k" unicode="k" 
d="M1320 370l344 -114l-114 344l-658 658l-230 -230zM526 1164l230 230l-169 169q-48 48 -115 48t-115 -48t-48 -115t48 -115zM1920 1920h-1792q-53 0 -90.5 -37.5t-37.5 -90.5v-1792q0 -53 37.5 -90.5t90.5 -37.5h1792q53 0 90.5 37.5t37.5 90.5v1792q0 53 -37.5 90.5
t-90.5 37.5zM1920 0h-1792v1792h1792v-1792z" />
    <glyph glyph-name="l" unicode="l" 
d="M1355 565l-114 344l-658 658l-230 -230l658 -658zM48 1872q-48 -48 -48 -115t48 -115l169 -169l230 230l-169 169q-48 48 -115 48t-115 -48zM1920 1536h-907l128 -128h779v-1408h-1408v779l-128 128v-907q0 -53 37.5 -90.5t90.5 -37.5h1408q53 0 90.5 37.5t37.5 90.5
v1408q0 53 -37.5 90.5t-90.5 37.5z" />
    <glyph glyph-name="m" unicode="m" 
d="M1920 1536h-578q-59 0 -111 -31.5t-79 -96.5q-1 -5 -2.5 -13t-10.5 -28.5t-22 -37t-37.5 -31.5t-55.5 -18h-896q-53 0 -90.5 -36.5t-37.5 -89.5v-1154q0 -53 37.5 -90.5t90.5 -37.5h1792q53 0 90.5 37.5t37.5 90.5v1024v130v254q0 53 -37.5 90.5t-90.5 37.5zM1920 1154
v-130v-1024h-1792v1152h896q2 0 6 0.5t6 0.5q84 8 142.5 58.5t86.5 122.5q15 37 37.5 55.5t37.5 18.5h16h564v-254z" />
    <glyph glyph-name="n" unicode="n" 
d="M2048 1282v254q0 53 -37.5 90.5t-90.5 37.5h-640q-53 0 -90.5 -37.5t-37.5 -90.5q-1 -5 -2.5 -13t-10.5 -28.5t-22 -37t-37.5 -31.5t-55.5 -18h-896q-53 0 -90.5 -36.5t-37.5 -89.5v-130h2048v130zM128 -128h1792q53 0 90.5 37.5t37.5 90.5v1024h-2048v-1024
q0 -53 37.5 -90.5t90.5 -37.5zM128 896h1792v-896h-1792v896z" />
    <glyph glyph-name="o" unicode="o" 
d="M1920 1536h-450q-59 0 -111 -31.5t-79 -96.5q-1 -5 -2.5 -13t-10.5 -28.5t-22 -37t-37.5 -31.5t-55.5 -18h-896q-53 0 -90.5 -36.5t-37.5 -89.5v-1154q0 -53 37.5 -90.5t90.5 -37.5h1664q53 0 90.5 37.5t37.5 90.5v1024v130v254q0 53 -37.5 90.5t-90.5 37.5zM1920 1154
v-130v-1024h-1664v1152h896q2 0 6 0.5t6 0.5q84 8 142.5 59t86.5 123q15 37 37.5 55t37.5 18h16h436v-254zM1408 640h-256v256q0 26 -19 45t-45 19t-45 -19t-19 -45v-256h-256q-26 0 -45 -19t-19 -45t19 -45t45 -19h256v-256q0 -26 19 -45t45 -19t45 19t19 45v256h256
q26 0 45 19t19 45t-19 45t-45 19z" />
    <glyph glyph-name="p" unicode="p" 
d="M1024 1920q-209 0 -398.5 -81t-326.5 -218t-218 -326.5t-81 -398.5t81 -398.5t218 -326.5t326.5 -218t398.5 -81t398.5 81t326.5 218t218 326.5t81 398.5t-81 398.5t-218 326.5t-326.5 218t-398.5 81zM1024 0q-182 0 -348 71t-286 191t-191 286t-71 348t71 348t191 286
t286 191t348 71t348 -71t286 -191t191 -286t71 -348t-71 -348t-191 -286t-286 -191t-348 -71zM1024 1152q-53 0 -90.5 -37.5t-37.5 -90.5v-640q0 -53 37.5 -90.5t90.5 -37.5t90.5 37.5t37.5 90.5v640q0 53 -37.5 90.5t-90.5 37.5zM896 1406q0 -53 37.5 -90.5t90.5 -37.5
t90.5 37.5t37.5 90.5t-37.5 90.5t-90.5 37.5t-90.5 -37.5t-37.5 -90.5z" />
    <glyph glyph-name="q" unicode="q" 
d="M1486 1882q-38 38 -91 38h-742q-53 0 -91 -38l-524 -524q-38 -38 -38 -91v-742q0 -53 38 -91l524 -525q37 -37 91 -37h742q54 0 91 37l524 525q38 38 38 91v742q0 53 -38 91zM1920 525l-525 -525h-742l-525 525v742l525 525h742l525 -525v-742zM1024 1536
q-53 0 -90.5 -37.5t-37.5 -90.5v-640q0 -53 37.5 -90.5t90.5 -37.5t90.5 37.5t37.5 90.5v640q0 53 -37.5 90.5t-90.5 37.5zM896 384q0 -53 37.5 -90.5t90.5 -37.5t90.5 37.5t37.5 90.5t-37.5 90.5t-90.5 37.5t-90.5 -37.5t-37.5 -90.5z" />
    <glyph glyph-name="r" unicode="r" 
d="M1024 1920q-209 0 -398.5 -81t-326.5 -218t-218 -326.5t-81 -398.5t81 -398.5t218 -326.5t326.5 -218t398.5 -81t398.5 81t326.5 218t218 326.5t81 398.5t-81 398.5t-218 326.5t-326.5 218t-398.5 81zM1024 0q-182 0 -348 71t-286 191t-191 286t-71 348t71 348t191 286
t286 191t348 71t348 -71t286 -191t191 -286t71 -348t-71 -348t-191 -286t-286 -191t-348 -71zM1024 1536q-53 0 -90.5 -37.5t-37.5 -90.5v-640q0 -53 37.5 -90.5t90.5 -37.5t90.5 37.5t37.5 90.5v640q0 53 -37.5 90.5t-90.5 37.5zM896 386q0 -53 37.5 -90.5t90.5 -37.5
t90.5 37.5t37.5 90.5t-37.5 90.5t-90.5 37.5t-90.5 -37.5t-37.5 -90.5z" />
    <glyph glyph-name="s" unicode="s" 
d="M2025 60l-888 1664q-16 31 -47 49.5t-66 18.5t-66 -18.5t-47 -49.5l-892 -1664q-34 -64 3 -126t110 -62h1780q73 0 110 62t3 126zM132 0l892 1664l888 -1664h-1780zM896 1022v-384q0 -53 37.5 -90.5t90.5 -37.5t90.5 37.5t37.5 90.5v384q0 53 -37.5 90.5t-90.5 37.5
t-90.5 -37.5t-37.5 -90.5zM896 256q0 -53 37.5 -90.5t90.5 -37.5t90.5 37.5t37.5 90.5t-37.5 90.5t-90.5 37.5t-90.5 -37.5t-37.5 -90.5z" />
    <glyph glyph-name="t" unicode="t" 
d="M1024 1920q-209 0 -398.5 -81t-326.5 -218t-218 -326.5t-81 -398.5t81 -398.5t218 -326.5t326.5 -218t398.5 -81t398.5 81t326.5 218t218 326.5t81 398.5t-81 398.5t-218 326.5t-326.5 218t-398.5 81zM1024 0q-182 0 -348 71t-286 191t-191 286t-71 348t71 348t191 286
t286 191t348 71t348 -71t286 -191t191 -286t71 -348t-71 -348t-191 -286t-286 -191t-348 -71zM882 254q0 -55 38 -93.5t93 -38.5t93.5 38.5t38.5 93.5v0q0 55 -38.5 93.5t-93.5 38.5t-93 -38.5t-38 -93.5zM1013 1664q-95 0 -185 -34.5t-163.5 -97t-118.5 -162.5t-45 -221
q0 -53 37.5 -90.5t90.5 -37.5t90.5 37.5t37.5 90.5q0 64 22.5 115t59.5 81.5t81.5 46.5t92.5 16q43 0 81.5 -8t81 -29t68 -67t25.5 -112q0 -40 -8.5 -71t-43 -71.5t-95.5 -73.5q-37 -20 -75 -51t-76 -73.5t-62 -98.5t-24 -113q0 -53 37.5 -90.5t90.5 -37.5t90.5 37.5
t37.5 90.5q0 19 33 54.5t72 57.5q279 154 279 440q0 95 -29 174t-78 133.5t-115 92t-139 55t-151 17.5z" />
    <glyph glyph-name="u" unicode="u" 
d="M882 254q0 -55 38 -93.5t93 -38.5t93.5 38.5t38.5 93.5v0q0 55 -38.5 93.5t-93.5 38.5t-93 -38.5t-38 -93.5zM1246 752q279 154 279 440q0 95 -29 174t-78 133.5t-115 92t-139 55t-151 17.5q-95 0 -185 -34.5t-163.5 -97t-118.5 -162.5t-45 -221q0 -53 37.5 -90.5
t90.5 -37.5t90.5 37.5t37.5 90.5q0 64 22.5 115t59.5 81.5t81.5 46.5t92.5 16q43 0 81.5 -8t81 -29t68 -67t25.5 -112q0 -40 -8.5 -71t-43 -71.5t-95.5 -73.5q-37 -20 -75 -51t-76 -73.5t-62 -98.5t-24 -113q0 -53 37.5 -90.5t90.5 -37.5t90.5 37.5t37.5 90.5q0 19 33 54.5
t72 57.5z" />
    <glyph glyph-name="v" unicode="v" 
d="M121 40q16 -37 58 -37q138 0 261 35t255 113q66 -11 170.5 -20.5t158.5 -9.5q206 0 394 66t324.5 178t217 266.5t80.5 323.5t-80.5 323.5t-217 266.5t-324.5 178t-394 66t-394 -66t-324.5 -178t-217 -266.5t-80.5 -323.5q0 -163 75 -314t213 -267q-64 -145 -166 -266
q-26 -31 -9 -68zM136 955q0 143 70.5 274t189.5 225.5t283.5 150.5t344.5 56t344.5 -56t283.5 -150.5t189.5 -225.5t70.5 -274t-70.5 -274t-189.5 -225.5t-283.5 -150.5t-344.5 -56q-54 0 -167 11t-162 21q-24 5 -46 -8q-172 -106 -335 -132q76 116 120 229q8 20 2 41
t-23 34q-134 101 -205.5 232.5t-71.5 277.5z" />
    <glyph glyph-name="w" unicode="w" 
d="M1786 1165q18 -83 18 -156q0 -203 -106.5 -380.5t-292 -295.5t-414.5 -155q158 -63 324 -63q160 0 308 55q149 -50 355 -50q-72 86 -122 190q91 81 141.5 184t50.5 217q0 135 -69.5 252.5t-192.5 201.5zM94 293q18 -34 57 -34h3q55 2 149.5 38.5t195.5 100.5
q228 -39 307 -39q222 0 406 94.5t290 258.5t106 361q0 194 -107.5 358t-292 259.5t-402.5 95.5q-163 0 -312 -56.5t-256.5 -152t-171 -227.5t-63.5 -277q0 -137 58 -265.5t165 -227.5q-48 -118 -126 -218q-25 -34 -6 -69zM131 1073q0 159 90.5 293.5t246 213t338.5 78.5
t338.5 -78.5t246 -213t90.5 -293.5q0 -165 -88 -299t-242.5 -210.5t-344.5 -76.5q-36 0 -149 15.5t-158 25.5q-29 5 -49 -9q-80 -53 -151 -84q37 70 63 142q7 19 2 38.5t-21 32.5q-102 84 -157 194t-55 231z" />
    <glyph glyph-name="x" unicode="x" 
d="M128 368h293q10 -10 149.5 -128.5t273.5 -231.5l134 -113q38 -23 73 -23h10q34 3 58.5 28t32.5 58v1875q-8 34 -32.5 59t-58.5 28h-10q-35 0 -73 -23q-534 -466 -557 -489h-293q-53 0 -90.5 -37.5t-37.5 -90.5v-16v-752v-16q0 -53 37.5 -90.5t90.5 -37.5zM128 512v752v16
h293q51 0 89 36q41 39 514 451v-1743q-473 397 -513 434q-38 38 -90 38h-293v16zM2025 1227q-23 23 -55 23t-55 -23l-221 -221l-221 221q-23 23 -56 23t-55 -23t-22 -55t22 -55l221 -221l-221 -221q-22 -23 -22 -55t22 -55t55 -23t56 23l221 221l221 -221q23 -23 55 -23
t55 23t23 55t-23 55l-221 221l221 221q23 23 23 55t-23 55z" />
    <glyph glyph-name="y" unicode="y" 
d="M1307 1920q-35 0 -73 -23q-534 -466 -557 -489h-293q-53 0 -90.5 -37.5t-37.5 -90.5v-16v-752v-16q0 -53 37.5 -90.5t90.5 -37.5h293q10 -10 149.5 -128.5t273.5 -231.5l134 -113q38 -23 73 -23h10q34 3 58.5 28t32.5 58v1875q-8 33 -32.5 58t-58.5 28q-1 0 -5 0.5
t-5 0.5zM1280 24q-473 397 -513 434q-38 38 -90 38h-293v16v752v16h293q51 0 89 36q41 39 514 451v-1743zM1605 672q-24 -12 -32 -37t4 -49q17 -35 57 -35q16 0 29 7q97 49 153.5 140t56.5 198t-56.5 198t-153.5 140q-24 12 -49 4t-37 -32t-4 -49t32 -37q65 -32 102.5 -92.5
t37.5 -131.5t-37.5 -131.5t-102.5 -92.5z" />
    <glyph glyph-name="z" unicode="z" 
d="M128 368h293q10 -10 149.5 -128.5t273.5 -231.5l134 -113q38 -23 73 -23h10q34 3 58.5 28t32.5 58v1875q-8 34 -32.5 59t-58.5 28h-10q-35 0 -73 -23q-534 -466 -557 -489h-293q-53 0 -90.5 -37.5t-37.5 -90.5v-16v-752v-16q0 -53 37.5 -90.5t90.5 -37.5zM128 512v752v16
h293q51 0 89 36q41 39 514 451v-1743q-473 397 -513 434q-38 38 -90 38h-293v16zM1349 672q-24 -12 -32 -37t4 -49q17 -35 57 -35q16 0 29 7q97 49 153.5 140t56.5 198t-56.5 198t-153.5 140q-24 12 -49 4t-37 -32t-4 -49t32 -37q65 -32 102.5 -92.5t37.5 -131.5
t-37.5 -131.5t-102.5 -92.5zM1261 161q4 -23 22 -37t41 -14q8 0 12 1q281 55 464.5 277t183.5 508t-183.5 508t-464.5 277q-26 5 -48 -9.5t-27 -40.5t10 -48.5t41 -27.5q236 -46 390 -232t154 -427t-154 -427t-390 -232q-26 -5 -41 -27.5t-10 -48.5z" />
    <glyph glyph-name="braceleft" unicode="{" 
d="M512 1080q0 -81 55 -138t133 -57q50 0 92 25q-19 -222 -255 -413q-20 -17 -23.5 -43t12.5 -47q19 -25 49 -25q22 0 38 13q286 231 304 520q17 203 -84 302l-13 13q-16 14 -30 21l-1 1q-1 0 -1 0.5t-1 0.5l-21 10v-1q-37 14 -66 14q-78 0 -133 -57.5t-55 -138.5z
M1132 1080q0 -81 55.5 -138t133.5 -57q49 0 91 25q-19 -222 -255 -413q-20 -17 -23.5 -43t12.5 -47q19 -25 49 -25q22 0 38 13q287 232 305 520q17 201 -84 302q-1 1 -3.5 4t-5 5t-4.5 4q-17 14 -30 21l-1 1h-1l-1 1l-22 10l1 -1q-37 14 -66 14q-78 0 -133.5 -57.5
t-55.5 -138.5z" />
    <glyph glyph-name="bar" unicode="|" 
d="M1024 1920q-209 0 -398.5 -81t-326.5 -218t-218 -326.5t-81 -398.5t81 -398.5t218 -326.5t326.5 -218t398.5 -81t398.5 81t326.5 218t218 326.5t81 398.5t-81 398.5t-218 326.5t-326.5 218t-398.5 81zM1024 0q-182 0 -348 71t-286 191t-191 286t-71 348t71 348t191 286
t286 191t348 71t348 -71t286 -191t191 -286t71 -348t-71 -348t-191 -286t-286 -191t-348 -71zM820 1230q-16 14 -30 21l-1 1q-1 0 -1 0.5t-1 0.5l-21 10v-1q-37 14 -66 14q-78 0 -133 -57.5t-55 -138.5t55 -138t133 -57q50 0 92 25q-19 -222 -255 -413q-20 -17 -23.5 -43
t12.5 -47q19 -25 49 -25q22 0 38 13q286 231 304 520q17 203 -84 302zM1441 1230q-17 14 -30 21l-1 1h-1l-1 1l-22 10l1 -1q-37 14 -66 14q-78 0 -133.5 -57.5t-55.5 -138.5t55.5 -138t133.5 -57q49 0 91 25q-19 -222 -255 -413q-20 -17 -23.5 -43t12.5 -47q19 -25 49 -25
q22 0 38 13q287 232 305 520q17 201 -84 302q-1 1 -3.5 4t-5 5t-4.5 4z" />
    <glyph glyph-name="braceright" unicode="}" 
d="M1092 1783q-187 0 -362.5 -71t-313.5 -209q-137 -137 -209 -316t-72 -359.5t72 -359.5t209 -316q138 -138 313.5 -209t362.5 -71t362.5 71t313.5 209q137 137 209 316t72 359.5t-72 359.5t-209 316q-138 138 -313.5 209t-362.5 71zM1678 242q-117 -117 -268.5 -179.5
t-317.5 -62.5t-317 62.5t-268 179.5t-180 268.5t-63 317.5q0 165 63 316.5t180 268.5t268.5 180t316.5 63q166 0 317.5 -63t268.5 -180t179.5 -268t62.5 -317t-62.5 -317.5t-179.5 -268.5zM1472 896h-320v449q0 26 -19 45t-45 19t-45 -19t-19 -45v-513v0q0 -26 19 -45
t45 -19h384q26 0 45 19t19 45t-19 45t-45 19z" />
    <glyph glyph-name="asciitilde" unicode="~" 
d="M1024 1920q-130 0 -248.5 -51.5t-204.5 -138.5t-136.5 -207.5t-50.5 -252.5v-118h-128q-53 0 -90.5 -37.5t-37.5 -90.5v-1024q0 -53 37.5 -90.5t90.5 -37.5h1536q53 0 90.5 37.5t37.5 90.5v1024q0 53 -37.5 90.5t-90.5 37.5h-128v118q0 132 -50.5 252.5t-136.5 207.5
t-204.5 138.5t-248.5 51.5zM512 1270q0 142 68.5 262t186.5 190t257 70t257 -70t186.5 -190t68.5 -262v-118h-1024v118zM1792 0h-1536v1024h1536v-1024zM1280 512q0 106 -75 181t-181 75t-181 -75t-75 -181t75 -181t181 -75t181 75t75 181zM1024 384q-53 0 -90.5 37.5
t-37.5 90.5t37.5 90.5t90.5 37.5t90.5 -37.5t37.5 -90.5t-37.5 -90.5t-90.5 -37.5z" />
    <glyph glyph-name="uniE000" unicode="&#xe000;" 
d="M1920 0v1024q0 53 -37.5 90.5t-90.5 37.5h-1281l1 54q0 259 144.5 422.5t373.5 163.5q167 0 307 -90t213 -245q11 -24 36 -33t49 2t32.5 36t-2.5 49q-89 189 -259.5 299t-375.5 110q-185 0 -332.5 -91.5t-230.5 -254.5t-83 -367l-1 -55h-127q-53 0 -90.5 -37.5
t-37.5 -90.5v-1024q0 -53 37.5 -90.5t90.5 -37.5h1536q53 0 90.5 37.5t37.5 90.5zM256 1024h1536v-1024h-1536v1024zM1024 768q-106 0 -181 -75t-75 -181t75 -181t181 -75t181 75t75 181t-75 181t-181 75zM1024 384q-53 0 -90.5 37.5t-37.5 90.5t37.5 90.5t90.5 37.5
t90.5 -37.5t37.5 -90.5t-37.5 -90.5t-90.5 -37.5z" />
    <glyph glyph-name="uniE001" unicode="&#xe001;" 
d="M704 320q0 58 -24 109q-32 67 -95 107t-137 40q-106 0 -181 -75t-75 -181q0 -33 12 -72q65 -107 172 -172q39 -12 72 -12q106 0 181 75t75 181zM448 448q37 0 68.5 -20t47.5 -54q12 -26 12 -54q0 -53 -37.5 -90.5t-90.5 -37.5t-90.5 37.5t-37.5 90.5t37.5 90.5t90.5 37.5
zM1984 1920h-277q-23 0 -41 -15l-907 -765q-63 12 -119 12q-130 0 -248.5 -51t-204 -136.5t-136.5 -204t-51 -248.5t51 -248.5t136.5 -204t204 -136.5t248.5 -51t248.5 51t204 136.5t136.5 204t51 248.5q0 99 -32 198l195 127q29 19 29 54v232l243 13q24 2 41.5 18t19.5 40
l23 247l213 101q36 18 36 58v256q0 26 -19 45t-45 19zM1920 1640l-209 -100q-33 -16 -36 -51l-22 -228l-248 -13q-26 -2 -43.5 -20.5t-17.5 -43.5v-259l-209 -135q-19 -13 -26 -35t2 -44q41 -97 41 -199q0 -104 -40.5 -198.5t-109.5 -163.5t-163.5 -109.5t-198.5 -40.5
q-139 0 -264 76q-107 65 -172 172q-76 125 -76 264q0 104 40.5 198.5t109.5 163.5t163.5 109.5t198.5 40.5q57 0 121 -16q31 -8 57 13l912 771h190v-152z" />
    <glyph glyph-name="uniE002" unicode="&#xe002;" 
d="M1664 896q-2 0 -6.5 -0.5t-6.5 -0.5q13 61 13 129q0 130 -51 248.5t-136.5 204t-204 136.5t-248.5 51t-248.5 -51t-204 -136.5t-136.5 -204t-51 -248.5q0 -1 0.5 -3t0.5 -3q-164 -23 -274.5 -148.5t-110.5 -293.5t110 -293.5t274 -148.5v-6h1280q159 0 271.5 112.5
t112.5 271.5t-112.5 271.5t-271.5 112.5zM1664 256h-1240q-14 4 -22 5q-117 17 -195.5 107t-78.5 208t78.5 208.5t196.5 106.5q48 7 79.5 43.5t30.5 84.5q0 2 -0.5 5.5t-0.5 5.5q1 103 42 197t109.5 161.5t163 107.5t197.5 40q104 0 198.5 -40.5t163.5 -109.5t109.5 -163.5
t40.5 -198.5q0 -55 -10 -104q-13 -60 27 -108q37 -45 98 -45h4q9 0 14 1q104 -2 177.5 -77t73.5 -179q0 -106 -75 -181t-181 -75z" />
    <glyph glyph-name="uniE003" unicode="&#xe003;" 
d="M1667 896h-16q13 68 13 128q0 130 -51 248.5t-136.5 204t-204 136.5t-248.5 51t-248.5 -50t-204 -135t-136.5 -202t-51 -246l1 -13q-164 -23 -274.5 -150t-110.5 -292q0 -168 109 -296t275 -152h320q26 0 45 19t19 45t-19 45t-45 19l-311 -1q-112 16 -188.5 109
t-76.5 212q0 118 78.5 208.5t196.5 106.5l55 8q23 3 39 21t16 42l-1 68q0 137 68.5 253.5t186.5 184.5t257 68q104 0 198.5 -40.5t163.5 -109.5t109.5 -163.5t40.5 -198.5q0 -55 -10 -104l-17 -81q-7 -34 15 -57q22 -24 56 -19l5 1q5 0 13 1t18.5 1.5t24 1t26.5 0.5
q104 0 178.5 -75t74.5 -181t-75 -181t-181 -75h-448q-50 0 -88 11.5t-57 27t-30.5 36t-14 32t-2.5 21.5v425l151 -152q19 -19 45.5 -19t45.5 19t19 45.5t-19 45.5l-258 257q-19 19 -45 19h-1l-2 1q-25 0 -46 -21l-258 -257q-19 -19 -19 -45.5t19 -45.5t45 -19t45 19l150 150
v-422q0 -29 8.5 -60.5t31.5 -67.5t57.5 -63.5t92.5 -46t130 -18.5h448q159 0 271.5 112.5t112.5 271.5t-111.5 271.5t-269.5 112.5z" />
    <glyph glyph-name="uniE004" unicode="&#xe004;" 
d="M1675 896q42 97 56.5 185.5t3 154.5t-29.5 111t-45 82q-68 96 -180.5 143.5t-222.5 26.5q-190 -36 -275.5 -172.5t-85.5 -402.5v-296l-148 148q-19 19 -45.5 19t-45.5 -19t-19 -45t19 -45l258 -258q18 -18 47 -18t47 18l258 259q19 19 19 45t-19 45t-45 19t-45 -19
l-153 -152v299q0 107 15 186t37 124.5t59 75.5t68.5 42t77.5 21q69 12 147.5 -18t127.5 -100q65 -90 53 -220t-99 -282q-20 -36 3 -68q24 -34 63 -27q50 10 91 10q104 0 178.5 -75t74.5 -181t-75 -181t-181 -75l-1271 -1q-112 16 -188.5 109t-76.5 212q0 118 78.5 208.5
t196.5 106.5l55 8q23 3 39 21t16 42l-1 68q0 172 95 299t241 149q26 4 41.5 25.5t11.5 47.5q-5 26 -25.5 42t-47.5 12q-193 -30 -318.5 -192t-125.5 -382l1 -13q-164 -23 -274.5 -150t-110.5 -292q0 -168 109 -296t275 -152h1280q159 0 271.5 112.5t112.5 271.5
q0 157 -109 269t-264 115z" />
    <glyph glyph-name="uniE005" unicode="&#xe005;" 
d="M1103 1172q0 -74 52.5 -126t125.5 -52t125.5 52t52.5 126v0q0 74 -52.5 126t-125.5 52t-125.5 -52t-52.5 -126zM1664 128h128v128v256v384l-512 -384l-640 512l-384 -384v-128v-256v-128h128h1280zM1920 1664h-1792q-53 0 -90.5 -37.5t-37.5 -90.5v-1536
q0 -53 37.5 -90.5t90.5 -37.5h1792q53 0 90.5 37.5t37.5 90.5v1536q0 53 -37.5 90.5t-90.5 37.5zM1920 0h-1792v1536h1792v-1536z" />
    <glyph glyph-name="uniE006" unicode="&#xe006;" 
d="M1920 1536h-128v256q0 53 -37.5 90.5t-90.5 37.5h-1536q-53 0 -90.5 -37.5t-37.5 -90.5v-1408q0 -53 37.5 -90.5t90.5 -37.5h128v-256q0 -53 37.5 -90.5t90.5 -37.5h1536q53 0 90.5 37.5t37.5 90.5v1408q0 53 -37.5 90.5t-90.5 37.5zM128 384v1408h1536v-1408h-1536z
M1920 0h-1536v256h128v-128h128h1024h128v128v128v384v640h128v-1408zM947 1396q0 -74 52.5 -126t125.5 -52t125.5 52t52.5 126t-52.5 126t-125.5 52t-125.5 -52t-52.5 -126zM640 1280l-384 -256v-256v-128v-128h128h1024h128v128v128v384l-512 -256z" />
    <glyph glyph-name="uniE007" unicode="&#xe007;" 
d="M1024 1920q-156 0 -298 -61t-245 -164t-164 -245t-61 -298q0 -186 85.5 -351.5t236.5 -273.5q1 -1 5 -3t5 -3q30 -18 41 -62.5t9 -70.5v-8v-252q0 -36 18.5 -67t50.5 -47l259 -132q28 -14 58 -14t58 14l261 132q32 16 51 47t19 67v251q0 35 8 65.5t19 48.5t23 31t19.5 18
t8.5 5q16 8 29 18q130 109 201 263t71 324q0 156 -61 298t-164 245t-245 164t-298 61zM766 380v4h520q0 -1 -0.5 -2.5t-0.5 -2.5v-123h-519v124zM1024 -4l-258 132h519zM1437 663q-3 -2 -9.5 -5t-23.5 -16t-32 -29t-33 -43t-30 -58h-564q-30 81 -93 119q-124 89 -196 226
t-72 295q0 130 51 248.5t136.5 204t204 136.5t248.5 51t248.5 -51t204 -136.5t136.5 -204t51 -248.5q0 -145 -60.5 -272.5t-166.5 -216.5zM1088 1664q-26 0 -45 -19t-19 -45t19 -45t45 -19q116 0 218 -94t102 -232q0 -26 19 -45t45 -19t45 19t19 45q0 106 -39 193.5
t-103 143.5t-143 86.5t-163 30.5z" />
    <glyph glyph-name="uniE008" unicode="&#xe008;" 
d="M1920 1408h-765h-259h-768q-53 0 -90.5 -37.5t-37.5 -90.5v-384h128v-896q0 -53 37.5 -90.5t90.5 -37.5h640h259h637q53 0 90.5 37.5t37.5 90.5v896h128v384q0 53 -37.5 90.5t-90.5 37.5zM128 1280h768v-256h-768v256zM256 0v896h640v-896h-640zM1792 0h-637v896h637
v-896zM1920 1024h-765v256h765v-256zM1024 1536v1v-1h512q127 0 191.5 53.5t64.5 138.5t-64.5 138.5t-191.5 53.5q-219 0 -384 -161q-63 37 -132 37q-65 0 -127 -34q-164 158 -381 158q-127 0 -191.5 -53.5t-64.5 -138.5t64.5 -138.5t191.5 -53.5h512zM1664 1728
q0 -64 -128 -64h-291q-1 1 -2 2.5t-1 2.5q127 123 294 123q128 0 128 -64zM384 1728q0 64 128 64q163 0 289 -118q-1 -1 -3 -5t-3 -5h-283q-128 0 -128 64z" />
    <glyph glyph-name="uniE009" unicode="&#xe009;" 
d="M104 782l152 122v-904q0 -53 37.5 -90.5t90.5 -37.5h384q53 0 90.5 37.5t37.5 90.5v512h256v-512q0 -53 37.5 -90.5t90.5 -37.5h384q53 0 90.5 37.5t37.5 90.5v904l152 -122q19 -14 40 -14q31 0 50 24q17 21 14 47.5t-24 42.5l-960 768q-17 14 -40 14t-40 -14l-344 -275
v161q0 53 -37.5 90.5t-90.5 37.5t-90.5 -37.5t-37.5 -90.5v-366l-360 -288q-21 -16 -24 -42.5t14 -47.5q16 -21 42.5 -24t47.5 14zM1024 1518l640 -512v-1006h-384v640h-512v-640h-384v1006z" />
    <glyph glyph-name="uniE00A" unicode="&#xe00a;" 
d="M163 342q68 -105 228 -105q122 0 310 68q99 -433 323 -433q227 0 325 444q189 -63 312 -63q169 0 237 110q124 204 -243 540q43 41 96 99q244 277 134 448q-68 105 -228 105q-122 0 -310 -68q-99 433 -323 433q-227 0 -325 -444q-184 63 -312 63q-169 0 -237 -110
q-124 -204 243 -540q-43 -41 -96 -99q-244 -277 -134 -448zM1024 0q-61 0 -114 94t-89 258q105 46 208 102q100 -51 200 -93q-36 -168 -89.5 -264.5t-115.5 -96.5zM768 896q0 70 3 138q66 46 115 77q69 44 134 82q101 -56 137 -78q59 -36 119 -77q4 -92 4 -142
q0 -70 -3 -138q-66 -46 -115 -77q-69 -44 -134 -82q-101 56 -137 78q-59 36 -119 77q-4 92 -4 142zM641 848q-11 8 -31.5 24.5t-23.5 18.5l54 45v-40q0 -3 0.5 -19.5t0.5 -28.5zM783 1196q8 72 13 106q19 -8 90 -41q-6 -4 -31.5 -18.5t-38.5 -23.5q-5 -4 -16 -11.5
t-17 -11.5zM1154 1265q46 24 97 46q9 -66 14 -113q-11 7 -25.5 16t-15.5 10q-12 7 -35 20.5t-35 20.5zM1407 944q11 -8 31.5 -24.5t23.5 -18.5q-36 -30 -55 -45q0 10 0.5 23.5t0.5 16.5t-0.5 19.5t-0.5 28.5zM1265 596q-8 -72 -13 -106q-10 4 -89 41q8 5 22 13t25.5 15
t21.5 14q22 16 33 23zM824 568q12 -7 35 -20.5t35 -20.5q-46 -24 -97 -46q-9 66 -14 113q11 -7 25.5 -16t15.5 -10zM1789 429q-29 -48 -128 -48q-111 0 -288 62q18 111 27 247q78 57 160 128q138 -125 200.5 -229t28.5 -160zM1657 1427q91 0 121 -46q35 -55 -25 -160
t-195 -234q-69 56 -158 120q-8 117 -29 254q179 66 286 66zM1024 1792q61 0 114 -94t89 -258q-105 -46 -208 -102q-113 58 -200 93q36 168 89.5 264.5t115.5 96.5zM259 1363q29 48 128 48q111 0 288 -62q-18 -111 -27 -247q-78 -57 -160 -128q-138 125 -200.5 229t-28.5 160
zM648 685q8 -128 28 -254q-175 -65 -285 -65q-92 0 -121 45q-35 55 25 161t195 234q78 -64 158 -121z" />
    <glyph glyph-name="uniE00B" unicode="&#xe00b;" 
d="M1536 -128q53 0 90.5 37.5t37.5 90.5v1792q0 53 -37.5 90.5t-90.5 37.5h-896q-53 0 -90.5 -37.5t-37.5 -90.5v-1792q0 -53 37.5 -90.5t90.5 -37.5h896zM1024 72q0 30 21 51t51 21t51 -21t21 -51t-21 -51t-51 -21t-51 21t-21 51zM1344 1792q26 0 45 -19t19 -45t-19 -45
t-45 -19h-128q-26 0 -45 19t-19 45t19 45t45 19h128zM1024 1728q0 -26 -19 -45t-45 -19t-45 19t-19 45t19 45t45 19t45 -19t19 -45zM640 1536h896v-1280h-896v1280z" />
    <glyph glyph-name="uniE00C" unicode="&#xe00c;" 
d="M1664 -128q53 0 90.5 37.5t37.5 90.5v1792q0 53 -37.5 90.5t-90.5 37.5h-1280q-53 0 -90.5 -37.5t-37.5 -90.5v-1792q0 -53 37.5 -90.5t90.5 -37.5h1280zM1024 -72q-30 0 -51 21t-21 51t21 51t51 21t51 -21t21 -51t-21 -51t-51 -21zM512 1664h1024v-1536h-1024v1536z" />
    <glyph glyph-name="uniE00D" unicode="&#xe00d;" 
d="M1982 384h-62v1152q0 53 -37.5 90.5t-90.5 37.5h-1536q-53 0 -90.5 -37.5t-37.5 -90.5v-1152h-62q-27 0 -46.5 -19t-19.5 -45t19.5 -45t46.5 -19h190h1536h190q27 0 46.5 19t19.5 45t-19.5 45t-46.5 19zM1792 1536v-1019h-1536v1019h1536z" />
    <glyph glyph-name="uniE00E" unicode="&#xe00e;" 
d="M1920 1792h-1792q-53 0 -90.5 -37.5t-37.5 -90.5v-1152q0 -53 37.5 -90.5t90.5 -37.5h640q0 -208 -39 -256h-26q-26 0 -44.5 -19t-18.5 -45t18.5 -45t44.5 -19h642q26 0 44.5 19t18.5 45t-18.5 45t-44.5 19h-26q-39 48 -39 256h640q53 0 90.5 37.5t37.5 90.5v1152
q0 53 -37.5 90.5t-90.5 37.5zM896 384zM1152 384zM1920 640h-1792v1024h1792v-1024z" />
    <glyph glyph-name="uniE00F" unicode="&#xe00f;" 
d="M1920 1280h-256q-3 0 -8.5 1t-21 7.5t-30.5 18.5t-34 38.5t-34 62.5q-13 31 -22.5 48.5t-25 38.5t-35.5 31t-45 10h-512q-48 0 -75.5 -33t-52.5 -95q-15 -36 -33.5 -62.5t-34.5 -38.5t-30 -18.5t-22 -7.5l-8 -1h-128q0 53 -37.5 90.5t-90.5 37.5h-128q-53 0 -90.5 -37.5
t-37.5 -90.5q-53 0 -90.5 -37.5t-37.5 -90.5v-1024q0 -53 37.5 -90.5t90.5 -37.5h1792q53 0 90.5 37.5t37.5 90.5v528v112v384q0 53 -37.5 90.5t-90.5 37.5zM1920 128h-1792v512h582q23 -164 148.5 -274t293.5 -110q172 0 298.5 115t144.5 285h325v-528zM832 704
q0 133 94 226.5t226 93.5t226 -93.5t94 -226.5q0 -132 -94 -226t-226 -94t-226 94t-94 226zM1594 768q-23 164 -148.5 274t-293.5 110t-293.5 -110t-148.5 -274h-582v384h128h128h256q65 0 134.5 51.5t112.5 156.5q17 40 22 48h485q11 -16 24 -50q29 -68 68.5 -114
t77.5 -63.5t60.5 -23t39.5 -5.5h256v-384h-326zM256 959q0 -26 19 -45t45 -19t45 19t19 45t-19 45t-45 19t-45 -19t-19 -45z" />
    <glyph glyph-name="uniE010" unicode="&#xe010;" 
d="M1920 1408h-1792q-53 0 -90.5 -37.5t-37.5 -90.5v-1280q0 -53 37.5 -90.5t90.5 -37.5h1792q53 0 90.5 37.5t37.5 90.5v1280q0 53 -37.5 90.5t-90.5 37.5zM727 509l297 -202l296 203l510 -510h-1612zM128 90v826l491 -334zM1427 584l493 339v-833zM1920 1280v-207l-3 4
l-893 -616l-896 609v210h1792z" />
    <glyph glyph-name="uniE011" unicode="&#xe011;" 
d="M1598 640l-49 128h-137h-776h-137l-49 -128l-194 -512h1536zM587 640h874l146 -384h-1166zM1315 1024h137l-48 128l-261 686q-14 37 -46.5 59.5t-72.5 22.5t-72.5 -22.5t-46.5 -59.5l-261 -686l-48 -128h137h582zM1024 1792l243 -640h-486zM1983 0h-1918q-27 0 -46 -18
t-19 -45t19 -46t46 -19h1918q27 0 46 19t19 46t-19 45t-46 18z" />
    <glyph glyph-name="uniE012" unicode="&#xe012;" 
d="M335 -118q23 -10 49 -10q52 0 90 38l550 549l550 -549q38 -38 90 -38q26 0 49 10q36 15 57.5 47t21.5 71v1792q0 53 -37.5 90.5t-90.5 37.5h-1280q-53 0 -90.5 -37.5t-37.5 -90.5v-1792q0 -39 21.5 -71t57.5 -47zM1024 640l-640 -640v1408h1280v-1408zM1664 1792v-256
h-1280v256h1280z" />
    <glyph glyph-name="uniE013" unicode="&#xe013;" 
d="M384 -128h1280q53 0 90.5 37.5t37.5 90.5v1408q0 53 -37.5 90.5t-90.5 37.5h-257q-2 160 -114 272t-269 112t-269 -112t-114 -272h-257q-53 0 -90.5 -37.5t-37.5 -90.5v-1408q0 -53 37.5 -90.5t90.5 -37.5zM1664 1408v-1408h-1280v1408h1280zM1024 1792
q104 0 178.5 -74.5t76.5 -181.5h-510q2 107 76.5 181.5t178.5 74.5zM832 1152h384q26 0 45 19t19 45t-19 45t-45 19h-384q-26 0 -45 -19t-19 -45t19 -45t45 -19z" />
    <glyph glyph-name="uniE014" unicode="&#xe014;" 
d="M1920 1664h-1792q-53 0 -90.5 -37.5t-37.5 -90.5v-261v-251v-768q0 -53 37.5 -90.5t90.5 -37.5h1792q53 0 90.5 37.5t37.5 90.5v768v251v261q0 53 -37.5 90.5t-90.5 37.5zM1920 256h-1792v768h1792v-768zM128 1275v261h1792v-261h-1792zM320 384h640q26 0 45 19t19 45
t-19 45t-45 19h-640q-26 0 -45 -19t-19 -45t19 -45t45 -19zM1152 448q0 -26 19 -45t45 -19t45 19t19 45t-19 45t-45 19t-45 -19t-19 -45zM1408 448q0 -26 19 -45t45 -19t45 19t19 45t-19 45t-45 19t-45 -19t-19 -45zM1664 448q0 -26 19 -45t45 -19t45 19t19 45t-19 45
t-45 19t-45 -19t-19 -45z" />
    <glyph glyph-name="uniE015" unicode="&#xe015;" 
d="M384 0q0 -53 37.5 -90.5t90.5 -37.5t90.5 37.5t37.5 90.5t-37.5 90.5t-90.5 37.5t-90.5 -37.5t-37.5 -90.5zM1536 0q0 -53 37.5 -90.5t90.5 -37.5t90.5 37.5t37.5 90.5t-37.5 90.5t-90.5 37.5t-90.5 -37.5t-37.5 -90.5zM-4 1600q0 -26 19 -45t45 -19h133l80 -340
l111 -556q0 -1 3 -13l-65 -293q-6 -31 12 -54q19 -24 50 -24h1452q26 0 45 19t19 45t-19 45t-45 19h-1372l29 132q2 0 8.5 -2t10.5 -2h1167q58 0 90.5 19t56.5 77l208 638q25 78 -13.5 120t-100.5 42h-1536q-1 0 -28 -6l-50 213q-5 22 -22.5 35.5t-39.5 13.5h-184
q-26 0 -45 -19t-19 -45zM387 1280h1523l-204 -627q-2 -6 -6 -12q-1 0 -8 -0.5t-13 -0.5h-1167v13l-2 12z" />
    <glyph glyph-name="uniE016" unicode="&#xe016;" 
d="M901 1473q-102 101 -218.5 109t-205.5 -80t-81 -205.5t109 -218.5l732 -733q19 -19 45.5 -19t45.5 19t19 45t-19 45l-733 733q-35 35 -54.5 74.5t-15 85.5t41.5 83t83 41.5t85.5 -15t74.5 -54.5l815 -815q93 -93 143 -155t72.5 -120t6 -106t-68.5 -100
q-106 -106 -226 -78t-289 197l-905 905q-58 58 -97.5 126t-57.5 144.5t5.5 157t92.5 149.5q65 65 139.5 86.5t135.5 10t124 -45.5t98.5 -62.5t65.5 -58.5l832 -832q19 -19 45 -19t45 19t19 45.5t-19 45.5l-831 831q-188 188 -388.5 207.5t-355.5 -136.5
q-104 -104 -133 -234.5t19.5 -266.5t169.5 -257l905 -905q34 -34 57 -56t72.5 -61.5t91.5 -63t99 -42.5t111 -19q142 0 265 123q53 53 79.5 108.5t32.5 102.5t-12.5 103t-39 94.5t-65 92.5t-71.5 82.5t-77 78.5z" />
    <glyph glyph-name="uniE017" unicode="&#xe017;" 
d="M1860 1791h-4h-3h-804q-13 -1 -38 -15.5t-32 -21.5l-942 -941q-37 -37 -37 -90t37 -91l723 -723q37 -37 90 -37q54 0 91 37l941 942q9 9 23.5 31.5t14.5 38.5v807q1 27 -16.5 45t-43.5 18zM1792 945q-1 -1 -2 -3t-2 -3.5t-2 -2.5l-935 -936l-723 722l936 936q2 1 4.5 3
t3.5 3h720v-719zM1536 1472q0 -26 19 -45t45 -19t45 19t19 45t-19 45t-45 19t-45 -19t-19 -45z" />
    <glyph glyph-name="uniE018" unicode="&#xe018;" 
d="M1861 1920h-2h-1h-1h-1h-1h-677q-13 -1 -38 -15.5t-32 -21.5l-815 -815q-37 -38 -37 -91t37 -90l102 -101l-102 -102q-37 -38 -37 -91t37 -90l595 -594q38 -38 90 -38q53 0 91 38l814 814q9 9 23 31.5t14 38.5v1063q1 27 -16 45.5t-43 18.5zM1793 815v-1l-814 -815
l-595 594l101 102l403 -403q37 -37 90 -37q54 0 91 37l724 725v-202zM1793 1408v-209v-1v0l-814 -815l-595 594l809 809q2 2 8 6h592v-384zM1537 1601q0 -26 19 -45t45 -19t45 19t19 45t-19 45t-45 19t-45 -19t-19 -45z" />
    <glyph glyph-name="uniE019" unicode="&#xe019;" 
d="M1664 1792h-256q0 53 -37.5 90.5t-90.5 37.5h-384q-53 0 -90.5 -37.5t-37.5 -90.5h-256q-53 0 -90.5 -37.5t-37.5 -90.5h1408q0 53 -37.5 90.5t-90.5 37.5zM384 0q0 -53 37.5 -90.5t90.5 -37.5h1152q53 0 90.5 37.5t37.5 90.5v1536h-1408v-1536zM512 1408h1152v-1408
h-1152v1408zM704 1280q-26 0 -45 -19t-19 -45v-1024q0 -26 19 -45t45 -19t45 19t19 45v1024q0 26 -19 45t-45 19zM1088 1280q-26 0 -45 -19t-19 -45v-1024q0 -26 19 -45t45 -19t45 19t19 45v1024q0 26 -19 45t-45 19zM1472 1280q-26 0 -45 -19t-19 -45v-1024q0 -26 19 -45
t45 -19t45 19t19 45v1024q0 26 -19 45t-45 19z" />
    <glyph glyph-name="uniE01A" unicode="&#xe01a;" 
d="M629 1897q-13 16 -32.5 21t-38.5 -2t-30.5 -23.5t-11.5 -36.5v-1670q0 -21 12 -37.5t32 -23.5q10 -3 20 -3q33 0 51 26l287 385l198 -568q19 -55 71 -79.5t107 -5.5t79.5 71t5.5 107l-194 557l447 -87q45 -8 68 30t-7 74zM989 783q-40 8 -64 -24l-281 -379v1301l835 -993
z" />
    <glyph glyph-name="uniE01B" unicode="&#xe01b;" 
d="M896 268v-268h-192q-26 0 -45 -19t-19 -45t19 -45t45 -19h319h2h319q26 0 45 19t19 45t-19 45t-45 19h-192v269q102 20 193 70.5t163 127.5t114 188t42 241v192q0 26 -19 45t-45 19t-45 -19t-19 -45v-192q0 -98 -29 -182t-78.5 -144t-115 -102.5t-139 -63t-150.5 -20.5
q-96 0 -185 31.5t-163 92t-119 161t-45 227.5v192q0 26 -19 45t-45 19t-45 -19t-19 -45v-192q0 -132 41.5 -243.5t113 -188.5t162.5 -126.5t195 -69.5zM1024 512q159 0 271.5 112.5t112.5 271.5v640q0 159 -112.5 271.5t-271.5 112.5t-271.5 -112.5t-112.5 -271.5v-640
q0 -159 112.5 -271.5t271.5 -112.5zM768 1536q0 106 75 181t181 75t181 -75t75 -181v-640q0 -106 -75 -181t-181 -75t-181 75t-75 181v640z" />
    <glyph glyph-name="uniE01C" unicode="&#xe01c;" 
d="M1024 1920q-209 0 -398.5 -81t-326.5 -218t-218 -326.5t-81 -398.5t81 -398.5t218 -326.5t326.5 -218t398.5 -81t398.5 81t326.5 218t218 326.5t81 398.5t-81 398.5t-218 326.5t-326.5 218t-398.5 81zM1024 0q-182 0 -348 71t-286 191t-191 286t-71 348t71 348t191 286
t286 191t348 71t348 -71t286 -191t191 -286t71 -348t-71 -348t-191 -286t-286 -191t-348 -71zM1438 1398l-238 -148l-159 -100q96 -6 163.5 -73.5t73.5 -163.5l100 159l148 238q12 19 9.5 41t-18.5 38t-38 18.5t-41 -9.5zM770 879l-100 -159l-148 -238q-12 -19 -9.5 -41
t18.5 -38q19 -19 45 -19q20 0 34 10l238 148l159 100q-96 6 -163.5 73.5t-73.5 163.5zM1041 1150q-3 0 -8.5 1t-8.5 1q-106 0 -181 -75t-75 -181q0 -3 1 -8.5t1 -8.5q6 -96 73.5 -163.5t163.5 -73.5q3 0 8.5 -1t8.5 -1q106 0 181 75t75 181q0 3 -1 8.5t-1 8.5
q-6 96 -73.5 163.5t-163.5 73.5zM896 896q0 53 37.5 90.5t90.5 37.5t90.5 -37.5t37.5 -90.5t-37.5 -90.5t-90.5 -37.5t-90.5 37.5t-37.5 90.5z" />
    <glyph glyph-name="uniE01D" unicode="&#xe01d;" 
d="M974 869q138 0 235.5 97.5t97.5 235.5t-97.5 236t-235.5 98t-236 -98t-98 -236t98 -235.5t236 -97.5zM974 1408q85 0 145 -60.5t60 -145.5t-60 -145t-145 -60t-145.5 60t-60.5 145t60.5 145.5t145.5 60.5zM927 -93q16 -18 31 -25l1 -1q11 -6 20 -6t20 6v1q15 7 31 25
q12 14 34 38t84.5 102.5t121 158.5t131.5 197t128.5 227t99.5 240t56 244q6 43 6 88q0 146 -57 279t-153 229t-228.5 153t-278.5 57t-279 -57t-229 -153t-153 -229t-57 -279q0 -46 6 -89q12 -114 55.5 -242.5t103 -242t128.5 -224.5t135.5 -199t121 -156t88.5 -105z
M974 1792q160 0 295.5 -79t214.5 -215t79 -296q0 -36 -5 -74q-13 -122 -66.5 -264.5t-118.5 -259t-149 -239.5t-138 -192.5t-107 -131.5q-54 63 -109 132t-141 192.5t-151.5 239.5t-120.5 259t-68 265q-5 47 -5 73q0 120 47 229t126 188t188 126t229 47z" />
    <glyph glyph-name="uniE01E" unicode="&#xe01e;" 
d="M556 783q-43 -49 -28 -114q14 -63 75 -89q141 -59 421 -67v-1v-384q0 -65 20 -160.5t44 -95.5t44 95.5t20 160.5v384v1q280 8 421 67q62 26 76 89q14 64 -29 114q-62 71 -212 109v663q102 35 169 84q28 21 41.5 54.5t8.5 68.5t-28.5 63t-57.5 39q-165 56 -453 56
t-459 -58q-34 -11 -56.5 -38.5t-27.5 -62.5q-11 -76 49 -122q70 -52 174 -86v-661q-150 -38 -212 -109zM808 1674q-87 29 -137 67q144 51 417 51q263 0 413 -50q-50 -37 -134 -66l-87 -29v-854l97 -25q110 -28 147 -70q-54 -23 -166 -40.5t-270 -17.5t-270 17.5t-166 40.5
q37 42 148 70l96 25v853z" />
    <glyph glyph-name="uniE01F" unicode="&#xe01f;" 
d="M1948 1661l-576 256q-14 3 -28 3q-17 0 -25 -2l-616 -251l-547 250q-13 3 -28 3q-44 0 -80 -28q-48 -38 -48 -100v-1536q0 -45 28 -80t72 -45l573 -256q13 -3 28 -3q17 0 25 2l616 251l550 -250q14 -3 28 -3q44 0 80 28q48 38 48 100v1536q0 45 -28 80t-72 45zM768 1562
l512 204v-1536l-512 -204v1536zM128 1792l512 -229v-1536l-512 229v1536zM1920 0l-512 228v1536l512 -228v-1536z" />
    <glyph glyph-name="uniE020" unicode="&#xe020;" 
d="M1620 1792h-1204q-53 0 -94.5 -33.5t-65.5 -94.5l-256 -894v-66v-135v-505q0 -26 19 -45t45 -19h1920q26 0 45 19t19 45v511v129v58l-256 902q-27 60 -73 94t-99 34zM377 1621q20 43 39 43h1204q29 0 52 -46l241 -850h-569q-26 0 -45 -19t-19 -45v-192h-512v192
q0 26 -19 45t-45 19h-571zM1920 128h-1792v446v66h512v-192q0 -26 19 -45t45 -19h640q26 0 45 19t19 45v192h512v-61v-451z" />
    <glyph glyph-name="uniE021" unicode="&#xe021;" 
d="M1920 1280h-512q0 -53 -37.5 -90.5t-90.5 -37.5h640v-256h-640q53 0 90.5 -37.5t37.5 -90.5h512v-768h-1792v768h512q0 53 37.5 90.5t90.5 37.5h-640v256h640q-53 0 -90.5 37.5t-37.5 90.5h-512q-53 0 -90.5 -37.5t-37.5 -90.5v-256v-128v-768q0 -53 37.5 -90.5
t90.5 -37.5h1792q53 0 90.5 37.5t37.5 90.5v768v128v256q0 53 -37.5 90.5t-90.5 37.5zM768 1152h512q53 0 90.5 37.5t37.5 90.5v128q0 53 -37.5 90.5t-90.5 37.5h-512q-53 0 -90.5 -37.5t-37.5 -90.5v-128q0 -53 37.5 -90.5t90.5 -37.5zM768 1408h512v-128h-512v128z
M640 768v-128q0 -53 37.5 -90.5t90.5 -37.5h512q53 0 90.5 37.5t37.5 90.5v128q0 53 -37.5 90.5t-90.5 37.5h-512q-53 0 -90.5 -37.5t-37.5 -90.5zM1280 640h-512v128h512v-128z" />
    <glyph glyph-name="uniE022" unicode="&#xe022;" 
d="M1731 1920h-578h-577h-253q-132 0 -226 -93t-96 -225l-1 1v-267v-184v-701v-159v-97q0 -133 95 -228t228 -95h58h515h176h86h253q53 0 89 37t36 91v1344q0 27 -17.5 45.5t-43.5 18.5h-1152q-81 0 -138 54.5t-57 134.5t57.5 137.5t137.5 57.5h253h596h492v-1472
q0 -26 20 -45t47 -19q26 0 43.5 18.5t17.5 45.5v1536q0 27 -17.5 45.5t-43.5 18.5zM323 1280h1085l3 -1280h-253h-86h-176h-515h-58q-80 0 -137.5 57.5t-57.5 137.5v97v159v701v184v7q87 -63 195 -63z" />
    <glyph glyph-name="uniE023" unicode="&#xe023;" 
d="M2040 1560q-12 40 -45 65.5t-75 25.5h-128v-128v-71q0 -80 -56 -136t-136 -56t-136 56t-56 136v71v128h-769v-128v-71q0 -80 -56.5 -136t-135.5 -56t-135.5 56t-56.5 136v71v128h-127q-42 0 -75 -25.5t-45 -65.5h-8v-37v-399v-1124q0 -53 37.5 -90.5t90.5 -37.5h1792
q53 0 90.5 37.5t37.5 90.5v1124v399v37h-8zM1920 0h-1792v1024h1792v-1024zM447 1388q26 0 45 19t19 45v404q0 26 -19 45t-45 19t-45 -19t-19 -45v-404q0 -26 19 -45t45 -19zM1600 1388q26 0 45 19t19 45v404q0 26 -19 45t-45 19t-45 -19t-19 -45v-404q0 -26 19 -45t45 -19z
" />
    <glyph glyph-name="uniE024" unicode="&#xe024;" 
d="M1920 1920h-1792q-53 0 -90.5 -37.5t-37.5 -90.5v-1792q0 -53 37.5 -90.5t90.5 -37.5h1792q53 0 90.5 37.5t37.5 90.5v1792q0 53 -37.5 90.5t-90.5 37.5zM384 768v-256h-256v256h256zM128 1024v256h256v-256h-256zM512 640h1024v-640h-1024v640zM1536 768h-1024v1024
h1024v-1024zM1664 768h256v-256h-256v256zM1664 1024v256h256v-256h-256zM1664 1536v256h256v-256h-256zM384 1536h-256v256h256v-256zM128 256h256v-256h-256v256zM1664 256h256v-256h-256v256z" />
    <glyph glyph-name="uniE025" unicode="&#xe025;" 
d="M2046 1671q-5 50 -40.5 85.5t-85.5 35.5h-1792q-50 0 -85.5 -35.5t-40.5 -85.5h-2v-11v-252v-907v-117v-384q0 -53 37.5 -90.5t90.5 -37.5h1792q53 0 90.5 37.5t37.5 90.5v1408v252v11h-2zM768 1024v384h512v-384h-512zM1280 896v-395h-512v395h512zM640 1408v-384h-512
v384h512zM128 896h512v-395h-512v395zM128 0v384h512v-384h-512zM768 0v384h512v-384h-512zM1920 0h-512v384h512v-384zM1920 501h-512v395h512v-395zM1920 1024h-512v384h512v-384z" />
    <glyph glyph-name="uniE026" unicode="&#xe026;" 
d="M1664 1920h-1536q-53 0 -90.5 -37.5t-37.5 -90.5v-1792q0 -53 37.5 -90.5t90.5 -37.5h1536q53 0 90.5 37.5t37.5 90.5v1792q0 53 -37.5 90.5t-90.5 37.5zM128 1792h256v-1792h-256v1792zM1664 0h-1152v1792h1152v-1792zM887 1233q0 -80 57 -137t137 -57t137 57t57 137v0
q0 80 -57 137t-137 57t-137 -57t-57 -137zM1085 962q-131 0 -224 -124.5t-93 -300.5q0 -48 35 -86t91 -57.5t123.5 -29t135 0t123.5 29t91 57.5t35 86q0 176 -93 300.5t-224 124.5zM1920 1792h128v-384h-128v384zM1920 1280h128v-384h-128v384zM1920 768h128v-384h-128v384z
" />
    <glyph glyph-name="uniE027" unicode="&#xe027;" 
d="M1920 640v256q0 171 -50.5 318t-137 252t-201 179.5t-243.5 110.5t-264 36q-132 0 -260 -36.5t-243 -112t-202.5 -180t-139 -251.5t-51.5 -316v-256q-53 0 -90.5 -37.5t-37.5 -90.5v-256q0 -53 37.5 -90.5t90.5 -37.5q0 -53 37.5 -90.5t90.5 -37.5t90.5 37.5t37.5 90.5
v512q0 53 -37.5 90.5t-90.5 37.5v128q0 147 43 273t117 215.5t172.5 153.5t209 95t226.5 31q113 0 222 -28.5t208.5 -90.5t174 -150t119 -217t44.5 -282v-128q-53 0 -90.5 -37.5t-37.5 -90.5v-512q0 -53 37.5 -90.5t90.5 -37.5t90.5 37.5t37.5 90.5q53 0 90.5 37.5
t37.5 90.5v256q0 53 -37.5 90.5t-90.5 37.5z" />
    <glyph glyph-name="uniE028" unicode="&#xe028;" 
d="M1024 1920q-200 0 -388.5 -76.5t-335.5 -223.5t-224 -338.5t-77 -385.5t77 -385.5t224 -338.5t335.5 -223.5t388.5 -76.5t388.5 76.5t335.5 223.5t224 338.5t77 385.5t-77 385.5t-224 338.5t-335.5 223.5t-388.5 76.5zM662 534q-150 150 -150 362t150 362t362 150
t362 -150t150 -362t-150 -362t-362 -150t-362 150zM1420 1699l-198 -197q-105 34 -198 34q-80 0 -181 -29l-200 200q182 85 381 85q207 0 396 -93zM214 1277l199 -200q-57 -190 5 -380l-197 -197q-93 189 -93 396q0 196 86 381zM390 263zM659 78l202 202q93 -24 163 -24
q86 0 181 29l200 -199q-185 -86 -381 -86q-191 0 -365 78zM1834 516l-199 199q50 173 5 344l201 202q79 -178 77 -373.5t-84 -371.5z" />
    <glyph glyph-name="uniE029" unicode="&#xe029;" 
d="M1024 -128q243 0 455 106.5t355 292.5l-810 625v1024q-209 0 -398.5 -81t-326.5 -218t-218 -326.5t-81 -398.5t81 -398.5t218 -326.5t326.5 -218t398.5 -81zM896 1783v-887q0 -62 50 -101l701 -541q-125 -123 -285.5 -188.5t-337.5 -65.5q-182 0 -348 71t-286 191
t-191 286t-71 348q0 222 101 414.5t276.5 317t390.5 155.5zM1200 1903v-916l731 -564q117 223 117 473q0 248 -111.5 464.5t-304.5 358.5t-432 184z" />
    <glyph glyph-name="uniE02A" unicode="&#xe02a;" 
d="M1918 1920q-54 0 -91.5 -38t-37.5 -92v-302q-106 129 -111 134q-142 162 -305 231q-159 67 -363 67q-205 0 -392 -80t-322.5 -215.5t-215.5 -322.5t-80 -392t80 -392t215.5 -322.5t322.5 -216t392 -80.5q329 0 593.5 191.5t367.5 503.5q17 52 -8 101t-77 66t-100.5 -7.5
t-65.5 -76.5q-76 -230 -272 -372t-438 -142q-152 0 -290 59t-238 159.5t-159 238.5t-59 290t59 290t159 237.5t238 158.5t290 59q84 0 160 -21.5t133.5 -54t113.5 -84t95 -100t84 -112.5h-326q-54 0 -92 -38t-38 -92t38 -91.5t92 -37.5h648q54 0 92 37.5t38 91.5v637
q0 54 -38 92t-92 38z" />
    <glyph glyph-name="uniE02B" unicode="&#xe02b;" 
d="M612 1660q56 56 135.5 56t135.5 -56l687 -686q27 95 1.5 195.5t-99.5 174.5l-453 452q-113 112 -272 112t-271 -112l-102 -102q-112 -112 -112 -271t112 -272l453 -452q74 -74 174 -99.5t195 1.5l-686 686q-56 56 -56 136t56 136zM1029 -4q113 -112 272 -112t271 112
l102 102q112 112 112 271t-112 272l-453 452q-74 74 -174 99.5t-195 -1.5l686 -686q56 -56 56 -136t-56 -136l-102 -102q-56 -56 -135.5 -56t-135.5 56l-687 687q-27 -95 -1.5 -195.5t99.5 -174.5z" />
    <glyph glyph-name="uniE02C" unicode="&#xe02c;" 
d="M483 911q61 -61 145.5 -82t165.5 4l-605 604q-30 30 -30 83q0 42 20 90t49 77q27 27 74 48t97 24t84 -28l604 -605q13 43 13 91q0 130 -91 221l-410 409q-59 59 -153 70t-184.5 -21t-150.5 -92q-52 -52 -82.5 -128.5t-30.5 -154.5q0 -125 75 -200zM1565 881
q-61 61 -145.5 82t-165.5 -4l605 -605q30 -30 30 -82q0 -42 -20 -90t-49 -77q-27 -27 -74 -48t-97 -24t-84 28l-604 605q-13 -43 -13 -91q0 -130 91 -221l410 -409q59 -59 153 -70t184.5 21t150.5 92q52 52 82.5 128.5t30.5 154.5q0 125 -75 200zM586 1334q-25 -25 -25 -61
t25 -61l754 -754q26 -26 61 -26t61 26q25 25 25 61q0 35 -26 61l-753 754q-26 26 -61 26t-61 -26z" />
    <glyph glyph-name="uniE02D" unicode="&#xe02d;" 
d="M1729 460q0 -4 3.5 -8t8.5 -4t8.5 4t3.5 8v0q0 11 -12 11t-12 -11zM1472 194q0 -10 6.5 -16.5t16.5 -6.5t16.5 6.5t6.5 16.5v0q0 10 -6.5 16.5t-16.5 6.5t-16.5 -6.5t-6.5 -16.5zM1126 58q0 -14 10 -24.5t24 -10.5t24.5 10.5t10.5 24.5v0q0 14 -10.5 24t-24.5 10t-24 -10
t-10 -24zM752 76q0 -19 13.5 -32.5t33.5 -13.5q19 0 32.5 13t13.5 33t-13.5 33t-32.5 13q-20 0 -33.5 -13.5t-13.5 -32.5zM421 246q0 -24 17 -41t41 -17t41 17t17 41v0q0 24 -17 41t-41 17t-41 -17t-17 -41zM192 535q0 -29 21 -49.5t49 -20.5t48.5 20.5t20.5 49.5v0
q0 29 -20.5 49t-48.5 20q-29 0 -49.5 -20.5t-20.5 -48.5zM106 889q0 -34 23.5 -57.5t57.5 -23.5t57.5 23.5t23.5 57.5t-23.5 57.5t-57.5 23.5t-57.5 -23.5t-23.5 -57.5zM177 1241q0 -38 27.5 -65t65.5 -27t65 27t27 65t-27 65.5t-65 27.5t-65.5 -27.5t-27.5 -65.5zM389 1525
q0 -43 30.5 -73.5t74.5 -30.5t74 30.5t30 73.5q0 44 -30.5 74.5t-73.5 30.5q-44 0 -74.5 -31t-30.5 -74zM701 1688q0 -48 34 -82t82 -34t82 34t34 82v0q0 48 -34 82t-82 34t-82 -34t-34 -82zM1051 1698q0 -52 37.5 -90t90.5 -38q52 0 89.5 37.5t37.5 90.5v0q0 53 -37.5 90.5
t-89.5 37.5q-53 0 -90.5 -38t-37.5 -90zM1372 1554q0 -58 40.5 -98.5t98.5 -40.5t98.5 40.5t40.5 98.5t-40.5 98.5t-98.5 40.5t-98.5 -40.5t-40.5 -98.5zM1600 1283q0 -62 44.5 -106.5t106.5 -44.5t106 44.5t44 106.5v0q0 62 -44 106.5t-106 44.5t-106.5 -44.5t-44.5 -106.5
zM1690 932q0 -68 48 -115.5t115 -47.5t114.5 47.5t47.5 115.5t-47.5 115t-114.5 47q-68 0 -115.5 -47.5t-47.5 -114.5z" />
    <glyph glyph-name="uniE02E" unicode="&#xe02e;" 
d="M1024 1920q-209 0 -398.5 -81t-326.5 -218t-218 -326.5t-81 -398.5t81 -398.5t218 -326.5t326.5 -218t398.5 -81t398.5 81t326.5 218t218 326.5t81 398.5t-81 398.5t-218 326.5t-326.5 218t-398.5 81zM1024 1664q156 0 298 -61t245 -164t164 -245t61 -298
q0 -242 -143 -444l-1069 1069q202 143 444 143zM256 896q0 242 143 444l1069 -1069q-202 -143 -444 -143q-156 0 -298 61t-245 164t-164 245t-61 298z" />
    <glyph glyph-name="uniE02F" unicode="&#xe02f;" 
d="M1920 1664h-1792q-53 0 -90.5 -37.5t-37.5 -90.5v-256h2048v256q0 53 -37.5 90.5t-90.5 37.5zM1920 1408h-1792v128h1792v-128zM128 0q0 -53 37.5 -90.5t90.5 -37.5h1536q53 0 90.5 37.5t37.5 90.5v1152h-1792v-1152zM256 1024h1536v-1024h-1536v1024zM1344 896h-640
q-26 0 -45 -19t-19 -45t19 -45t45 -19h640q26 0 45 19t19 45t-19 45t-45 19z" />
    <glyph glyph-name="uniE030" unicode="&#xe030;" 
d="M2047 1035q-2 116 -48 225t-122.5 190t-183 130t-221.5 49q-133 0 -249.5 -63.5t-198.5 -171.5q-82 108 -198.5 171.5t-249.5 63.5q-115 0 -221.5 -49t-183 -130t-122.5 -190t-48 -225h-1v-6v-4q0 -5 1.5 -12.5t1.5 -11.5q6 -163 65 -314t148.5 -261t196.5 -205
t213 -157.5t193.5 -107t142.5 -64.5l54 -20q13 4 35 12t90.5 38t135 64.5t158 92t170 121t159.5 151.5t139.5 183t97.5 216t44 249q0 1 1.5 11t1.5 15v4v6h-1zM1917 1004q-5 -126 -49 -245t-108 -209t-152.5 -174t-169 -140.5t-171.5 -107t-146 -75.5t-105 -45
q-50 20 -104 45t-143.5 75.5t-168.5 107t-166 140.5t-150 174.5t-106 210t-48 246.5q0 12 -1 18v7q2 125 63.5 233t164 172t219.5 64q98 0 189 -48.5t157 -136.5q37 -50 102 -50q64 0 102 50q66 88 157 136.5t189 48.5q117 0 219.5 -64t164 -172t63.5 -233v-7q-2 -12 -2 -21
z" />
    <glyph glyph-name="uniE031" unicode="&#xe031;" 
d="M2041 1091q-11 35 -39.5 59t-64.5 29l-551 80l-247 500q-16 33 -47 52t-68 19t-68 -19t-47 -52l-246 -500l-552 -80q-36 -5 -64 -29t-39 -59q-11 -34 -2.5 -70t34.5 -61l399 -389l-94 -549q-6 -36 8 -70t43 -56q33 -24 75 -24q31 0 60 15l493 259l493 -259q29 -15 60 -15
q42 0 75 24q29 22 43 56t8 70l-94 549l399 389q26 26 35 61t-2 70zM1471 616l106 -616l-553 291l-553 -291l106 616l-448 436l619 90l276 560l276 -560l619 -90z" />
    <glyph glyph-name="uniE032" unicode="&#xe032;" 
d="M2041 1091q-11 34 -39.5 58t-64.5 29l-552 81l-246 500q-16 33 -47 52t-68 19t-68 -19t-47 -52l-246 -500l-552 -80q-36 -5 -64 -29t-39 -59q-11 -34 -2.5 -70t34.5 -61l399 -389l-94 -549q-6 -36 8 -70t43 -56q33 -24 75 -24q31 0 60 15l493 259l493 -259q29 -15 60 -15
q42 0 75 24q29 22 43 56t8 70l-94 549l399 389q26 26 35 61t-2 70zM1471 616l106 -616l-553 291v1411l276 -560l619 -90z" />
    <glyph glyph-name="uniE033" unicode="&#xe033;" 
d="M1328 1167l-313 635l-314 -635l-701 -102l507 -495l-119 -698l627 330l627 -330l-120 698l508 495z" />
    <glyph glyph-name="uniE034" unicode="&#xe034;" 
d="M1024 202v1600l-314 -635l-701 -102l508 -495l-120 -698z" />
    <glyph glyph-name="uniE035" unicode="&#xe035;" 
d="M54 198q-56 -56 -56 -136t56 -136t136 -56t136 56l630 631l-271 271zM1630 1366l274 142l144 278l-134 134l-278 -144l-142 -274l-334 -335l135 -135zM1690 637q-1 0 -11 1.5t-15 1.5q-65 0 -133 -25l-788 788q25 68 25 133q0 5 -1.5 15t-1.5 11q-11 151 -120 254.5
t-261 103.5q-86 0 -165 -38l255 -256q20 -20 29 -46q13 -33 5.5 -70.5t-34.5 -64.5q-37 -37 -90 -37q-19 0 -44 9q-29 10 -47 28l-255 256q-38 -79 -38 -165q0 -152 103.5 -261t254.5 -120q1 0 11 -1.5t15 -1.5q65 0 133 25l788 -788q-25 -68 -25 -133q0 -5 1.5 -15t1.5 -11
q11 -151 120 -254.5t261 -103.5q86 0 165 38l-256 256q-18 18 -28 46q-13 33 -6 70t34 64q38 38 91 38q19 0 44 -9q26 -9 46 -29l256 -255q38 79 38 165q0 152 -103.5 261t-254.5 120z" />
    <glyph glyph-name="uniE036" unicode="&#xe036;" 
d="M1664 384q19 0 44 -9q26 -9 46 -29l256 -255q38 79 38 165q0 152 -103.5 261t-254.5 120q-1 0 -11 1.5t-15 1.5q-65 0 -133 -25l-788 788q25 68 25 133q0 5 -1.5 15t-1.5 11q-11 151 -120 254.5t-261 103.5q-86 0 -165 -38l256 -256q18 -18 28 -46q13 -33 6 -70.5
t-34 -64.5q-37 -37 -91 -37q-19 0 -44 9q-28 10 -46 28l-256 256q-38 -79 -38 -165q0 -152 103.5 -261t254.5 -120q1 0 11 -1.5t15 -1.5q65 0 133 25l788 -788q-25 -68 -25 -133q0 -5 1.5 -15t1.5 -11q11 -151 120 -254.5t261 -103.5q86 0 165 38l-255 256q-20 20 -29 46
q-13 33 -5.5 70t34.5 64q38 38 90 38z" />
    <glyph glyph-name="uniE037" unicode="&#xe037;" 
d="M1762 1108q-25 86 -66 160l127 267q-71 89 -160 160l-267 -127q-74 41 -160 66l-99 279q-65 7 -113 7t-113 -7l-99 -279q-86 -25 -160 -66l-267 127q-89 -71 -160 -160l127 -267q-41 -74 -66 -160l-279 -99q-7 -65 -7 -113t7 -113l279 -99q25 -86 66 -160l-127 -267
q71 -89 160 -160l267 127q74 -41 160 -66l99 -280q55 -6 113 -6q48 0 113 7l99 279q86 25 160 66l267 -127q89 71 160 160l-127 267q41 74 66 160l280 99q6 56 6 113q0 48 -7 113zM1024 384q-212 0 -362 150t-150 362t150 362t362 150t362 -150t150 -362t-150 -362
t-362 -150zM768 896q0 -106 75 -181t181 -75t181 75t75 181t-75 181t-181 75t-181 -75t-75 -181z" />
    <glyph glyph-name="uniE038" unicode="&#xe038;" 
d="M63 819l222 9q39 -51 90 -93l-15 -222q43 -25 76 -39q42 -18 80 -29l152 164q60 -8 129 -2l146 -168q84 23 158 63l-8 222q46 35 92 91l222 -15q25 43 39 76q19 44 29 79l-164 152q8 60 2 129l168 147q-22 81 -63 157l-222 -8q-37 49 -91 93l15 222q-36 21 -76 38
q-44 19 -79 29l-152 -163q-60 8 -129 2l-147 167q-81 -22 -157 -63l8 -222q-51 -39 -93 -90l-222 15q-21 -36 -38 -76q-18 -42 -29 -80l163 -152q-8 -60 -2 -129l-167 -146q23 -84 63 -158zM892 1532q146 -63 205 -210.5t-4 -293.5t-211 -205t-294 4t-204.5 211t4.5 294
t210.5 204.5t293.5 -4.5zM548 1180q0 -80 56 -136t136 -56t136 56t56 136t-56 136t-136 56t-136 -56t-56 -136zM1923 413l-53 19l24 51l56 117q-31 39 -70 70l-117 -56l-51 -24l-19 53l-44 122q-24 3 -49 3t-49 -3l-44 -122l-19 -53l-51 24l-117 56q-39 -31 -70 -70l56 -117
l24 -51l-53 -19l-122 -44q-3 -24 -3 -49t3 -49l122 -44l53 -19l-24 -51l-56 -117q31 -39 70 -70l117 56l51 24l19 -53l44 -122q24 -3 49 -3t49 3l44 122l19 53l51 -24l117 -56q39 31 70 70l-56 117l-24 51l53 19l122 44q3 24 3 49t-3 49zM1600 224q-40 0 -68 28t-28 68
t28 68t68 28t68 -28t28 -68t-28 -68t-68 -28z" />
    <glyph glyph-name="uniE039" unicode="&#xe039;" 
d="M1088 1792q-195 0 -373 -76t-306.5 -204.5t-204.5 -306.5t-76 -373t76 -373t204.5 -306.5t306.5 -204.5t373 -76t373 76t306.5 204.5t204.5 306.5t76 373t-76 373t-204.5 306.5t-306.5 204.5t-373 76zM1517 915q-19 -19 -45 -19t-45 19l-275 275v-998q0 -26 -19 -45
t-45 -19t-45 19t-19 45v998l-275 -275q-19 -19 -45 -19t-45 19t-19 45t19 45l384 384v1q9 9 20 13q25 11 49 0q11 -4 21 -14l384 -384q19 -19 19 -45t-19 -45z" />
    <glyph glyph-name="uniE03A" unicode="&#xe03a;" 
d="M1088 1792q-195 0 -373 -76t-306.5 -204.5t-204.5 -306.5t-76 -373t76 -373t204.5 -306.5t306.5 -204.5t373 -76t373 76t306.5 204.5t204.5 306.5t76 373t-76 373t-204.5 306.5t-306.5 204.5t-373 76zM1517 659l-384 -384q-10 -10 -20 -14q-25 -11 -49 0q-13 5 -21 13v1
l-384 384q-19 19 -19 45t19 45t45 19t45 -19l275 -275v998q0 26 19 45t45 19t45 -19t19 -45v-998l275 275q19 19 45 19t45 -19t19 -45t-19 -45z" />
    <glyph glyph-name="uniE03B" unicode="&#xe03b;" 
d="M1088 1792q-195 0 -373 -76t-306.5 -204.5t-204.5 -306.5t-76 -373t76 -373t204.5 -306.5t306.5 -204.5t373 -76t373 76t306.5 204.5t204.5 306.5t76 373t-76 373t-204.5 306.5t-306.5 204.5t-373 76zM1792 832q0 -26 -19 -45t-45 -19h-998l275 -275q19 -19 19 -45
t-19 -45t-45 -19t-45 19l-384 384h-1q-8 8 -13 21t-5 24v0q0 11 5 24t13 21h1l384 384q19 19 45 19t45 -19t19 -45t-19 -45l-275 -275h998q26 0 45 -19t19 -45z" />
    <glyph glyph-name="uniE03C" unicode="&#xe03c;" 
d="M1088 1792q-195 0 -373 -76t-306.5 -204.5t-204.5 -306.5t-76 -373t76 -373t204.5 -306.5t306.5 -204.5t373 -76t373 76t306.5 204.5t204.5 306.5t76 373t-76 373t-204.5 306.5t-306.5 204.5t-373 76zM1664 832q0 -11 -5 -24q-4 -11 -14 -21l-384 -384q-19 -19 -45 -19
t-45 19t-19 45t19 45l275 275h-998q-26 0 -45 19t-19 45t19 45t45 19h998l-275 275q-19 19 -19 45t19 45t45 19t45 -19l384 -384q10 -10 14 -21q5 -13 5 -24z" />
    <glyph glyph-name="uniE03D" unicode="&#xe03d;" 
d="M409 1511q-138 -138 -210 -317.5t-72 -361.5t72 -361.5t210 -317.5t317.5 -210t361.5 -72t361.5 72t317.5 210t210 317.5t72 361.5t-72 361.5t-210 317.5t-317.5 210t-361.5 72t-361.5 -72t-317.5 -210zM1564 356q-19 -19 -45.5 -19t-45.5 19l-705 706v-389
q0 -26 -19 -45t-45 -19t-45 19t-19 45v543q0 11 5 24t13 21h1v1q9 9 20 13q13 5 25 5h543q26 0 45 -19t19 -45t-19 -45t-45 -19h-389l706 -705q19 -19 19 -45.5t-19 -45.5z" />
    <glyph glyph-name="uniE03E" unicode="&#xe03e;" 
d="M409 1511q-138 -138 -210 -317.5t-72 -361.5t72 -361.5t210 -317.5t317.5 -210t361.5 -72t361.5 72t317.5 210t210 317.5t72 361.5t-72 361.5t-210 317.5t-317.5 210t-361.5 72t-361.5 -72t-317.5 -210zM1536 1216v-543q0 -26 -19 -45t-45 -19t-45 19t-19 45v389
l-705 -706q-19 -19 -45.5 -19t-45.5 19t-19 45.5t19 45.5l706 705h-389q-26 0 -45 19t-19 45t19 45t45 19h543q11 0 24 -5q26 -11 35 -35q5 -13 5 -24z" />
    <glyph glyph-name="uniE03F" unicode="&#xe03f;" 
d="M409 1511q-138 -138 -210 -317.5t-72 -361.5t72 -361.5t210 -317.5t317.5 -210t361.5 -72t361.5 72t317.5 210t210 317.5t72 361.5t-72 361.5t-210 317.5t-317.5 210t-361.5 72t-361.5 -72t-317.5 -210zM1536 448q0 -11 -5 -24q-12 -27 -34 -35q-13 -5 -25 -5h-543
q-26 0 -45 19t-19 45t19 45t45 19h389l-706 705q-19 19 -19 45.5t19 45.5t45.5 19t45.5 -19l705 -706v389q0 26 19 45t45 19t45 -19t19 -45v-543z" />
    <glyph glyph-name="uniE040" unicode="&#xe040;" 
d="M409 1511q-138 -138 -210 -317.5t-72 -361.5t72 -361.5t210 -317.5t317.5 -210t361.5 -72t361.5 72t317.5 210t210 317.5t72 361.5t-72 361.5t-210 317.5t-317.5 210t-361.5 72t-361.5 -72t-317.5 -210zM1564 1217l-705 -705h388q26 0 45 -19t19 -45t-19 -45t-45 -19
h-543q-11 0 -24 5t-21 13v1l-1 1q-9 9 -13 20q-5 13 -5 24v543q0 26 19 45t45 19t45 -19t19 -45v-389l705 706q19 19 45.5 19t45.5 -19t19 -45.5t-19 -45.5z" />
    <glyph glyph-name="uniE041" unicode="&#xe041;" 
d="M1920 1920h-1792q-53 0 -90.5 -37.5t-37.5 -90.5v-1792q0 -53 37.5 -90.5t90.5 -37.5h1792q53 0 90.5 37.5t37.5 90.5v1792q0 53 -37.5 90.5t-90.5 37.5zM896 704v-512q0 -26 -19 -45t-45 -19t-45 19t-19 45v358l-403 -403q-19 -19 -45 -19t-45 19t-19 45t19 45l403 403
h-358q-26 0 -45 19t-19 45t19 45t45 19h512q11 0 24 -5q26 -11 35 -35q5 -13 5 -24zM1728 1152q26 0 45 -19t19 -45t-19 -45t-45 -19h-512q-11 0 -24 5t-21 13v1h-1q-8 8 -13 21t-5 24v512q0 26 19 45t45 19t45 -19t19 -45v-358l403 403q19 19 45 19t45 -19t19 -45t-19 -45
l-403 -403h358z" />
    <glyph glyph-name="uniE042" unicode="&#xe042;" 
d="M1920 1920h-1792q-53 0 -90.5 -37.5t-37.5 -90.5v-1792q0 -53 37.5 -90.5t90.5 -37.5h1792q53 0 90.5 37.5t37.5 90.5v1792q0 53 -37.5 90.5t-90.5 37.5zM832 256q26 0 45 -19t19 -45t-19 -45t-45 -19h-512q-11 0 -24 5t-21 13v1l-1 1q-9 9 -13 20q-5 13 -5 24v512
q0 26 19 45t45 19t45 -19t19 -45v-358l403 403q19 19 45 19t45 -19t19 -45t-19 -45l-403 -403h358zM1792 1600v-512q0 -26 -19 -45t-45 -19t-45 19t-19 45v357l-403 -402q-19 -19 -45 -19t-45 19t-19 45t19 45l403 403h-358q-26 0 -45 19t-19 45t19 45t45 19h512q11 0 24 -5
q26 -11 35 -35q5 -13 5 -24z" />
    <glyph glyph-name="uniE043" unicode="&#xe043;" 
d="M1088 -128q195 0 373 76t306.5 204.5t204.5 306.5t76 373t-76 373t-204.5 306.5t-306.5 204.5t-373 76t-373 -76t-306.5 -204.5t-204.5 -306.5t-76 -373t76 -373t204.5 -306.5t306.5 -204.5t373 -76zM627 718l416 415q18 18 45 18t45 -18l416 -415q19 -19 19 -45.5
t-19 -45.5t-45.5 -19t-45.5 19l-370 370l-370 -370q-19 -19 -45.5 -19t-45.5 19t-19 45.5t19 45.5z" />
    <glyph glyph-name="uniE044" unicode="&#xe044;" 
d="M1088 1792q-195 0 -373 -76t-306.5 -204.5t-204.5 -306.5t-76 -373t76 -373t204.5 -306.5t306.5 -204.5t373 -76t373 76t306.5 204.5t204.5 306.5t76 373t-76 373t-204.5 306.5t-306.5 204.5t-373 76zM1549 946l-416 -415q-18 -18 -45 -18t-45 18l-416 415
q-19 19 -19 45.5t19 45.5t45.5 19t45.5 -19l370 -370l370 370q19 19 45.5 19t45.5 -19t19 -45.5t-19 -45.5z" />
    <glyph glyph-name="uniE045" unicode="&#xe045;" 
d="M1088 1792q-195 0 -373 -76t-306.5 -204.5t-204.5 -306.5t-76 -373t76 -373t204.5 -306.5t306.5 -204.5t373 -76t373 76t306.5 204.5t204.5 306.5t76 373t-76 373t-204.5 306.5t-306.5 204.5t-373 76zM1293 462q19 -19 19 -45.5t-19 -45.5t-45.5 -19t-45.5 19l-415 416
q-18 18 -18 45t18 45l415 416q19 19 45.5 19t45.5 -19t19 -45.5t-19 -45.5l-370 -370z" />
    <glyph glyph-name="uniE046" unicode="&#xe046;" 
d="M1088 1792q-195 0 -373 -76t-306.5 -204.5t-204.5 -306.5t-76 -373t76 -373t204.5 -306.5t306.5 -204.5t373 -76t373 76t306.5 204.5t204.5 306.5t76 373t-76 373t-204.5 306.5t-306.5 204.5t-373 76zM1389 787l-415 -416q-19 -19 -45.5 -19t-45.5 19t-19 45.5t19 45.5
l370 370l-370 370q-19 19 -19 45.5t19 45.5t45.5 19t45.5 -19l415 -416q18 -18 18 -45t-18 -45z" />
    <glyph glyph-name="uniE047" unicode="&#xe047;" 
d="M1088 1792q-195 0 -373 -76t-306.5 -204.5t-204.5 -306.5t-76 -373t76 -373t204.5 -306.5t306.5 -204.5t373 -76t373 76t306.5 204.5t204.5 306.5t76 373t-76 373t-204.5 306.5t-306.5 204.5t-373 76zM1565 396q-19 -19 -45.5 -19t-45.5 19l-384 339l-383 -339
q-19 -19 -45.5 -19t-45.5 19t-19 45.5t19 45.5l428 379q19 19 46 19q28 0 47 -19l428 -379q19 -19 19 -45.5t-19 -45.5zM1565 855q-19 -19 -45.5 -19t-45.5 19l-384 340l-383 -340q-19 -19 -45.5 -19t-45.5 19t-19 45.5t19 45.5l428 379q19 19 46 19q28 0 47 -19l428 -379
q19 -19 19 -45.5t-19 -45.5z" />
    <glyph glyph-name="uniE048" unicode="&#xe048;" 
d="M1092 1783q-195 0 -372 -75.5t-305 -203.5t-203.5 -305t-75.5 -371q0 -156 48 -302t136.5 -263.5t206 -206t263.5 -136.5t302 -48t302 48t263.5 136.5t206 206t136.5 263.5t48 302q0 194 -75.5 371t-203.5 305t-305 203.5t-372 75.5zM1560 718l-428 -379q-19 -19 -46 -19
q-28 0 -47 19l-428 379q-19 19 -19 45.5t19 45.5t45.5 19t45.5 -19l384 -340l383 340q19 19 45.5 19t45.5 -19t19 -45.5t-19 -45.5zM1560 1177l-428 -379q-19 -19 -46 -19q-28 0 -47 19l-428 379q-19 19 -19 45.5t19 45.5t45.5 19t45.5 -19l384 -339l383 339q19 19 45.5 19
t45.5 -19t19 -45.5t-19 -45.5z" />
    <glyph glyph-name="uniE049" unicode="&#xe049;" 
d="M1093 1783q-195 0 -372 -75.5t-305 -203.5t-203.5 -305t-75.5 -371q0 -156 48 -302t136.5 -263.5t206 -206t263.5 -136.5t302 -48q195 0 371.5 75.5t304.5 203.5t203.5 304.5t75.5 371.5t-75.5 372t-203.5 305t-305 203.5t-371 75.5zM1065 360q-19 -19 -45.5 -19
t-45.5 19l-379 428q-19 19 -19 46q0 28 19 47l379 428q19 19 45.5 19t45.5 -19t19 -45.5t-19 -45.5l-340 -384l340 -383q19 -19 19 -45.5t-19 -45.5zM1524 451q19 -19 19 -45.5t-19 -45.5t-45.5 -19t-45.5 19l-379 428q-19 19 -19 46q0 28 19 47l379 428q19 19 45.5 19
t45.5 -19t19 -45.5t-19 -45.5l-340 -384z" />
    <glyph glyph-name="uniE04A" unicode="&#xe04a;" 
d="M1093 1783q-156 0 -302 -48t-263.5 -136.5t-206 -206t-136.5 -263.5t-48 -302q0 -194 75.5 -371t203.5 -305t305 -203.5t372 -75.5t371.5 75.5t304.5 203.5t203.5 304.5t75.5 371.5t-75.5 372t-203.5 305t-305 203.5t-371 75.5zM652 355q-19 19 -19 45.5t19 45.5l339 384
l-339 383q-19 19 -19 45.5t19 45.5t45.5 19t45.5 -19l379 -428q19 -19 19 -46q0 -28 -19 -47l-379 -428q-19 -19 -45.5 -19t-45.5 19zM1581 783l-379 -428q-19 -19 -45.5 -19t-45.5 19t-19 45.5t19 45.5l340 384l-340 383q-19 19 -19 45.5t19 45.5t45.5 19t45.5 -19
l379 -428q19 -19 19 -46q0 -28 -19 -47z" />
    <glyph glyph-name="uniE04B" unicode="&#xe04b;" 
d="M1088 1792q-195 0 -373 -76t-306.5 -204.5t-204.5 -306.5t-76 -373t76 -373t204.5 -306.5t306.5 -204.5t373 -76t373 76t306.5 204.5t204.5 306.5t76 373t-76 373t-204.5 306.5t-306.5 204.5t-373 76zM1518 662v1q-16 -23 -40 -23h-782q-23 0 -40 22h-1q-17 21 -17 50.5
t17 50.5l391 494l2 2q16 21 39 21t40 -21l391 -496q16 -21 16 -50.5t-16 -50.5z" />
    <glyph glyph-name="uniE04C" unicode="&#xe04c;" 
d="M1088 1792q-195 0 -373 -76t-306.5 -204.5t-204.5 -306.5t-76 -373t76 -373t204.5 -306.5t306.5 -204.5t373 -76t373 76t306.5 204.5t204.5 306.5t76 373t-76 373t-204.5 306.5t-306.5 204.5t-373 76zM1518 901l-391 -494l-1 -1v-1q-16 -21 -39 -21t-40 21l-392 496
q-17 21 -17 50.5t17 50.5v-1q16 23 41 23h782q23 0 40 -22q16 -21 16 -50.5t-16 -50.5z" />
    <glyph glyph-name="uniE04D" unicode="&#xe04d;" 
d="M1088 1792q-195 0 -373 -76t-306.5 -204.5t-204.5 -306.5t-76 -373t76 -373t204.5 -306.5t306.5 -204.5t373 -76t373 76t306.5 204.5t204.5 306.5t76 373t-76 373t-204.5 306.5t-306.5 204.5t-373 76zM1280 442q0 -23 -22 -40q-21 -16 -50.5 -16t-50.5 16l-494 391l-1 1
h-1q-21 16 -21 39t21 40l496 392q21 17 50.5 17t50.5 -17h-1q23 -16 23 -41v-782z" />
    <glyph glyph-name="uniE04E" unicode="&#xe04e;" 
d="M1088 1792q-195 0 -373 -76t-306.5 -204.5t-204.5 -306.5t-76 -373t76 -373t204.5 -306.5t306.5 -204.5t373 -76t373 76t306.5 204.5t204.5 306.5t76 373t-76 373t-204.5 306.5t-306.5 204.5t-373 76zM1515 794l-496 -392q-21 -16 -50.5 -16t-50.5 16h1q-23 16 -23 40
v782q0 23 22 40v1q21 17 50.5 17t50.5 -17l494 -391l2 -2q21 -16 21 -39t-21 -39z" />
    <glyph glyph-name="uniE04F" unicode="&#xe04f;" 
d="M1088 1792q-195 0 -373 -76t-306.5 -204.5t-204.5 -306.5t-76 -373t76 -373t204.5 -306.5t306.5 -204.5t373 -76t373 76t306.5 204.5t204.5 306.5t76 373t-76 373t-204.5 306.5t-306.5 204.5t-373 76zM1600 768h-1024q-26 0 -45 19t-19 45t19 45t45 19h1024q26 0 45 -19
t19 -45t-19 -45t-45 -19z" />
    <glyph glyph-name="uniE050" unicode="&#xe050;" 
d="M1088 1792q-195 0 -373 -76t-306.5 -204.5t-204.5 -306.5t-76 -373t76 -373t204.5 -306.5t306.5 -204.5t373 -76t373 76t306.5 204.5t204.5 306.5t76 373t-76 373t-204.5 306.5t-306.5 204.5t-373 76zM1600 768h-448v-448q0 -26 -19 -45t-45 -19t-45 19t-19 45v448h-448
q-26 0 -45 19t-19 45t19 45t45 19h448v448q0 26 19 45t45 19t45 -19t19 -45v-448h448q26 0 45 -19t19 -45t-19 -45t-45 -19z" />
    <glyph glyph-name="uniE051" unicode="&#xe051;" 
d="M1088 1792q-195 0 -373 -76t-306.5 -204.5t-204.5 -306.5t-76 -373t76 -373t204.5 -306.5t306.5 -204.5t373 -76t373 76t306.5 204.5t204.5 306.5t76 373t-76 373t-204.5 306.5t-306.5 204.5t-373 76zM1533 1186l-357 -356l316 -352q19 -19 19 -45.5t-19 -45.5t-45.5 -19
t-45.5 19l-315 352l-352 -352q-19 -19 -45.5 -19t-45.5 19t-19 45.5t19 45.5l357 356l-316 352q-19 19 -19 45.5t19 45.5t45.5 19t45.5 -19l315 -352l352 352q19 19 45.5 19t45.5 -19t19 -45.5t-19 -45.5z" />
    <glyph glyph-name="uniE052" unicode="&#xe052;" 
d="M1029 1920q-209 0 -398.5 -81t-326.5 -218t-218 -326.5t-81 -398.5t81 -398.5t218 -326.5t326.5 -218t398.5 -81t398.5 81t326.5 218t218 326.5t81 398.5t-81 398.5t-218 326.5t-326.5 218t-398.5 81zM1504 1179l-491 -749v-1l-3 -6t-4 -6q-2 -3 -8 -6.5t-8 -4.5l-2 -1
q-2 -1 -2 -2q-11 -7 -25 -10q-1 -1 -4 -1t-4 -1q-11 -2 -22 0q-5 0 -15 2q-2 0 -4.5 1t-5.5 2.5l-5 2.5t-6 2.5t-6 2.5q-3 2 -7 6l-3 3l-286 264q-27 26 -28.5 62.5t23.5 63.5q26 27 63 28.5t64 -23.5l207 -191l432 660q20 31 56.5 38.5t67.5 -12.5t38.5 -56.5t-12.5 -67.5z
" />
    <glyph glyph-name="uniE053" unicode="&#xe053;" 
d="M1216 1920q-169 0 -323.5 -66t-265.5 -177t-177 -265.5t-66 -323.5q0 -293 184 -522l-542 -542q-26 -26 -26 -63t26 -63t63 -26t63 26l542 542q229 -184 522 -184q169 0 323.5 66t265.5 177t177 265.5t66 323.5t-66 323.5t-177 265.5t-265.5 177t-323.5 66zM1600 1024
h-768q-26 0 -45 19t-19 45t19 45t45 19h768q26 0 45 -19t19 -45t-19 -45t-45 -19z" />
    <glyph glyph-name="uniE054" unicode="&#xe054;" 
d="M1216 1920q-169 0 -323.5 -66t-265.5 -177t-177 -265.5t-66 -323.5q0 -293 184 -522l-542 -542q-26 -26 -26 -63t26 -63t63 -26t63 26l542 542q229 -184 522 -184q169 0 323.5 66t265.5 177t177 265.5t66 323.5t-66 323.5t-177 265.5t-265.5 177t-323.5 66zM1600 1024
h-320v-320q0 -26 -19 -45t-45 -19t-45 19t-19 45v320h-320q-26 0 -45 19t-19 45t19 45t45 19h320v320q0 26 19 45t45 19t45 -19t19 -45v-320h320q26 0 45 -19t19 -45t-19 -45t-45 -19z" />
    <glyph glyph-name="uniE055" unicode="&#xe055;" 
d="M1024 1920q-209 0 -398.5 -81t-326.5 -218t-218 -326.5t-81 -398.5t81 -398.5t218 -326.5t326.5 -218t398.5 -81t398.5 81t326.5 218t218 326.5t81 398.5t-81 398.5t-218 326.5t-326.5 218t-398.5 81zM1408 640q0 -53 -37.5 -90.5t-90.5 -37.5h-512q-53 0 -90.5 37.5
t-37.5 90.5v512q0 53 37.5 90.5t90.5 37.5h512q53 0 90.5 -37.5t37.5 -90.5v-512z" />
    <glyph glyph-name="uniE056" unicode="&#xe056;" 
d="M1920 1792h-1664q-53 0 -90.5 -37.5t-37.5 -90.5v-1664q0 -53 37.5 -90.5t90.5 -37.5h1664q53 0 90.5 37.5t37.5 90.5v1664q0 53 -37.5 90.5t-90.5 37.5zM1600 384h-1024q-26 0 -45 19t-19 45t19 45t45 19h1024q26 0 45 -19t19 -45t-19 -45t-45 -19zM1600 768h-1024
q-26 0 -45 19t-19 45t19 45t45 19h1024q26 0 45 -19t19 -45t-19 -45t-45 -19zM1600 1152h-1024q-26 0 -45 19t-19 45t19 45t45 19h1024q26 0 45 -19t19 -45t-19 -45t-45 -19z" />
    <glyph glyph-name="uniE057" unicode="&#xe057;" 
d="M1088 1792q-195 0 -373 -76t-306.5 -204.5t-204.5 -306.5t-76 -373t76 -373t204.5 -306.5t306.5 -204.5t373 -76t373 76t306.5 204.5t204.5 306.5t76 373t-76 373t-204.5 306.5t-306.5 204.5t-373 76zM1600 384h-1024q-26 0 -45 19t-19 45t19 45t45 19h1024q26 0 45 -19
t19 -45t-19 -45t-45 -19zM1600 768h-1024q-26 0 -45 19t-19 45t19 45t45 19h1024q26 0 45 -19t19 -45t-19 -45t-45 -19zM1600 1152h-1024q-26 0 -45 19t-19 45t19 45t45 19h1024q26 0 45 -19t19 -45t-19 -45t-45 -19z" />
    <glyph glyph-name="uniE058" unicode="&#xe058;" 
d="M256 -128h1541q53 0 90.5 37.5t37.5 90.5v1792q0 53 -37.5 90.5t-90.5 37.5h-1541q-53 0 -90.5 -37.5t-37.5 -90.5v-1792q0 -53 37.5 -90.5t90.5 -37.5zM960 1536h517q26 0 45 -19t19 -45t-19 -45t-45 -19h-517q-26 0 -45 19t-19 45t19 45t45 19zM576 1152h901
q26 0 45 -19t19 -45t-19 -45t-45 -19h-901q-26 0 -45 19t-19 45t19 45t45 19zM576 768h901q26 0 45 -19t19 -45t-19 -45t-45 -19h-901q-26 0 -45 19t-19 45t19 45t45 19zM576 384h901q26 0 45 -19t19 -45t-19 -45t-45 -19h-901q-26 0 -45 19t-19 45t19 45t45 19z" />
    <glyph glyph-name="uniE059" unicode="&#xe059;" 
d="M256 128h128v-128q0 -53 37.5 -90.5t90.5 -37.5h1280q53 0 90.5 37.5t37.5 90.5v1536q0 53 -37.5 90.5t-90.5 37.5h-128v128q0 53 -37.5 90.5t-90.5 37.5h-1280q-53 0 -90.5 -37.5t-37.5 -90.5v-1536q0 -53 37.5 -90.5t90.5 -37.5zM1792 1536v-1536h-1280v128h1024
q53 0 90.5 37.5t37.5 90.5v1280h128zM1344 1664q26 0 45 -19t19 -45t-19 -45t-45 -19h-517q-26 0 -45 19t-19 45t19 45t45 19h517zM443 1280h901q26 0 45 -19t19 -45t-19 -45t-45 -19h-901q-26 0 -45 19t-19 45t19 45t45 19zM443 896h901q26 0 45 -19t19 -45t-19 -45
t-45 -19h-901q-26 0 -45 19t-19 45t19 45t45 19zM443 512h901q26 0 45 -19t19 -45t-19 -45t-45 -19h-901q-26 0 -45 19t-19 45t19 45t45 19z" />
    <glyph glyph-name="uniE05A" unicode="&#xe05a;" 
d="M1920 1920h-1792q-53 0 -90.5 -37.5t-37.5 -90.5v-1792q0 -53 37.5 -90.5t90.5 -37.5h1792q53 0 90.5 37.5t37.5 90.5v1792q0 53 -37.5 90.5t-90.5 37.5zM357 1333q-48 48 -48 115t48 115t115 48t115 -48l169 -169l-230 -230zM1320 370l-658 658l230 230l658 -658
l114 -344z" />
    <glyph glyph-name="uniE05B" unicode="&#xe05b;" 
d="M1920 1536h-640q-53 0 -90.5 -37.5t-37.5 -90.5q-1 -5 -2.5 -13t-10.5 -28.5t-22 -37t-37.5 -31.5t-55.5 -18h-896q-53 0 -90.5 -36.5t-37.5 -89.5v-1154q0 -53 37.5 -90.5t90.5 -37.5h1792q53 0 90.5 37.5t37.5 90.5v1024v130v254q0 53 -37.5 90.5t-90.5 37.5z" />
    <glyph glyph-name="uniE05C" unicode="&#xe05c;" 
d="M1920 1664h-640q-53 0 -90.5 -37.5t-37.5 -90.5q-1 -5 -2.5 -13t-10.5 -28.5t-22 -37t-37.5 -31.5t-55.5 -18h-896q-53 0 -90.5 -36.5t-37.5 -89.5v-130h2048v130v254q0 53 -37.5 90.5t-90.5 37.5zM0 0q0 -53 37.5 -90.5t90.5 -37.5h1792q53 0 90.5 37.5t37.5 90.5v1024
h-2048v-1024z" />
    <glyph glyph-name="uniE05D" unicode="&#xe05d;" 
d="M1920 1536h-512q-53 0 -90.5 -37.5t-37.5 -90.5q-1 -5 -2.5 -13t-10.5 -28.5t-22 -37t-37.5 -31.5t-55.5 -18h-896q-53 0 -90.5 -37.5t-37.5 -90.5v-1152q0 -53 37.5 -90.5t90.5 -37.5h1664q53 0 90.5 37.5t37.5 90.5v1408q0 53 -37.5 90.5t-90.5 37.5zM1472 512h-320
v-320q0 -26 -19 -45t-45 -19t-45 19t-19 45v320h-320q-26 0 -45 19t-19 45t19 45t45 19h320v320q0 26 19 45t45 19t45 -19t19 -45v-320h320q26 0 45 -19t19 -45t-19 -45t-45 -19z" />
    <glyph glyph-name="uniE05E" unicode="&#xe05e;" 
d="M1920 1664h-640q-53 0 -90.5 -37.5t-37.5 -90.5q-1 -5 -2.5 -13t-10.5 -28.5t-22 -37t-37.5 -31.5t-55.5 -18h-896q-53 0 -90.5 -36.5t-37.5 -89.5v-1154q0 -53 37.5 -90.5t90.5 -37.5h768v640h-271l399 512l400 -512h-272v-640h768q53 0 90.5 37.5t37.5 90.5v1024v130
v254q0 53 -37.5 90.5t-90.5 37.5z" />
    <glyph glyph-name="uniE05F" unicode="&#xe05f;" 
d="M1920 1664h-640q-53 0 -90.5 -37.5t-37.5 -90.5q-1 -5 -2.5 -13t-10.5 -28.5t-22 -37t-37.5 -31.5t-55.5 -18h-896q-53 0 -90.5 -36.5t-37.5 -89.5v-1154q0 -53 37.5 -90.5t90.5 -37.5h1792q53 0 90.5 37.5t37.5 90.5v1024v130v254q0 53 -37.5 90.5t-90.5 37.5zM1024 1
l-399 512h271v512q0 53 37.5 90.5t90.5 37.5t90.5 -37.5t37.5 -90.5v-512h272z" />
    <glyph glyph-name="uniE060" unicode="&#xe060;" 
d="M1024 1920q-209 0 -398.5 -81t-326.5 -218t-218 -326.5t-81 -398.5t81 -398.5t218 -326.5t326.5 -218t398.5 -81t398.5 81t326.5 218t218 326.5t81 398.5t-81 398.5t-218 326.5t-326.5 218t-398.5 81zM896 1024q0 53 37.5 90.5t90.5 37.5t90.5 -37.5t37.5 -90.5v-640
q0 -53 -37.5 -90.5t-90.5 -37.5t-90.5 37.5t-37.5 90.5v640zM1024 1278q-53 0 -90.5 37.5t-37.5 90.5t37.5 90.5t90.5 37.5t90.5 -37.5t37.5 -90.5t-37.5 -90.5t-90.5 -37.5z" />
    <glyph glyph-name="uniE061" unicode="&#xe061;" 
d="M1024 -128q209 0 398.5 81t326.5 218t218 326.5t81 398.5t-81 398.5t-218 326.5t-326.5 218t-398.5 81t-398.5 -81t-326.5 -218t-218 -326.5t-81 -398.5t81 -398.5t218 -326.5t326.5 -218t398.5 -81zM1152 768q0 -53 -37.5 -90.5t-90.5 -37.5t-90.5 37.5t-37.5 90.5v640
q0 53 37.5 90.5t90.5 37.5t90.5 -37.5t37.5 -90.5v-640zM1024 514q53 0 90.5 -37.5t37.5 -90.5t-37.5 -90.5t-90.5 -37.5t-90.5 37.5t-37.5 90.5t37.5 90.5t90.5 37.5z" />
    <glyph glyph-name="uniE062" unicode="&#xe062;" 
d="M1486 1882q-38 38 -91 38h-742q-53 0 -91 -38l-524 -524q-38 -38 -38 -91v-742q0 -53 38 -91l524 -525q37 -37 91 -37h742q54 0 91 37l524 525q38 38 38 91v742q0 53 -38 91zM1024 640q-53 0 -90.5 37.5t-37.5 90.5v768q0 53 37.5 90.5t90.5 37.5t90.5 -37.5t37.5 -90.5
v-768q0 -53 -37.5 -90.5t-90.5 -37.5zM1152 256q0 -53 -37.5 -90.5t-90.5 -37.5t-90.5 37.5t-37.5 90.5t37.5 90.5t90.5 37.5t90.5 -37.5t37.5 -90.5z" />
    <glyph glyph-name="uniE063" unicode="&#xe063;" 
d="M132 -128h1780q73 0 110 62t3 126l-888 1664q-16 31 -47 49.5t-66 18.5t-66 -18.5t-47 -49.5l-892 -1664q-34 -64 3 -126t110 -62zM1024 384q53 0 90.5 -37.5t37.5 -90.5t-37.5 -90.5t-90.5 -37.5t-90.5 37.5t-37.5 90.5t37.5 90.5t90.5 37.5zM896 638v512
q0 53 37.5 90.5t90.5 37.5t90.5 -37.5t37.5 -90.5v-512q0 -53 -37.5 -90.5t-90.5 -37.5t-90.5 37.5t-37.5 90.5z" />
    <glyph glyph-name="uniE064" unicode="&#xe064;" 
d="M1024 -128q209 0 398.5 81t326.5 218t218 326.5t81 398.5t-81 398.5t-218 326.5t-326.5 218t-398.5 81t-398.5 -81t-326.5 -218t-218 -326.5t-81 -398.5t81 -398.5t218 -326.5t326.5 -218t398.5 -81zM1024 1664q78 0 151 -17.5t139 -55t115 -92t78 -133.5t29 -174
q0 -286 -280 -440q-39 -22 -71.5 -57.5t-32.5 -54.5q0 -53 -37.5 -90.5t-90.5 -37.5t-90.5 37.5t-37.5 90.5q0 57 24 113t62 98.5t76 73.5t75 51q87 48 117 101t30 115q0 66 -25.5 112t-68 67t-81 29t-81.5 8q-48 0 -92.5 -16t-81.5 -46.5t-59.5 -81.5t-22.5 -115
q0 -53 -37.5 -90.5t-90.5 -37.5t-90.5 37.5t-37.5 90.5q0 121 45 221t118.5 162.5t163.5 97t185 34.5zM1024 122q-55 0 -93.5 38.5t-38.5 93.5t38.5 93.5t93.5 38.5t93.5 -38.5t38.5 -93.5t-38.5 -93.5t-93.5 -38.5z" />
    <glyph glyph-name="uniE065" unicode="&#xe065;" 
d="M325 353q-75 -192 -209 -353q424 0 671 151q117 -23 237 -23q209 0 398.5 66t326.5 177t218 265.5t81 323.5t-81 323.5t-218 265.5t-326.5 177t-398.5 66t-398.5 -66t-326.5 -177t-218 -265.5t-81 -323.5q0 -177 86 -334t239 -273z" />
    <glyph glyph-name="uniE066" unicode="&#xe066;" 
d="M1786 1165q18 -83 18 -156q0 -203 -106.5 -380.5t-292 -295.5t-414.5 -155q158 -63 324 -63q160 0 308 55q149 -50 355 -50q-72 86 -122 190q91 81 141.5 184t50.5 217q0 135 -69.5 252.5t-192.5 201.5zM1612 1009q0 133 -64 254.5t-172 209t-257 139.5t-313 52t-313 -52
t-257 -139.5t-172 -209t-64 -254.5q0 -139 68 -262.5t188 -215.5q-60 -152 -165 -278q332 0 528 120q95 -19 187 -19q164 0 313 52t257 139.5t172 209t64 254.5z" />
    <glyph glyph-name="uniE067" unicode="&#xe067;" 
d="M128 368h294q10 -10 149.5 -128.5t273.5 -231.5l134 -113q43 -25 82 -22q34 3 58.5 28t32.5 58q1 3 1 937t-1 937q-8 34 -32.5 59t-58.5 28q-38 3 -82 -23q-534 -466 -557 -489h-294q-53 0 -90.5 -37.5t-37.5 -90.5v-16v-752v-16q0 -53 37.5 -90.5t90.5 -37.5zM2025 1227
q-23 23 -55 23t-55 -23l-221 -221l-221 221q-23 23 -56 23t-55 -23t-22 -55t22 -55l221 -221l-221 -221q-22 -23 -22 -55t22 -55t55 -23t56 23l221 221l221 -221q23 -23 55 -23t55 23t23 55t-23 55l-221 221l221 221q23 23 23 55t-23 55z" />
    <glyph glyph-name="uniE068" unicode="&#xe068;" 
d="M1317 1920q-38 3 -82 -23q-534 -466 -557 -489h-294q-53 0 -90.5 -37.5t-37.5 -90.5v-16v-752v-16q0 -53 37.5 -90.5t90.5 -37.5h294q10 -10 149.5 -128.5t273.5 -231.5l134 -113q43 -25 82 -22q34 3 58.5 28t32.5 58q1 3 1 937t-1 937q-8 34 -32.5 59t-58.5 28z
M1605 672q-24 -12 -32 -37t4 -49q17 -35 57 -35q16 0 29 7q97 49 153 140t56 198t-56 198t-153 140q-24 12 -49 4t-37 -32t-4 -49t32 -37q65 -32 102.5 -92.5t37.5 -131.5t-37.5 -131.5t-102.5 -92.5z" />
    <glyph glyph-name="uniE069" unicode="&#xe069;" 
d="M128 368h294q10 -10 149.5 -128.5t273.5 -231.5l134 -113q43 -25 82 -22q34 3 58.5 28t32.5 58q1 3 1 937t-1 937q-8 34 -32.5 59t-58.5 28q-38 3 -82 -23q-534 -466 -557 -489h-294q-53 0 -90.5 -37.5t-37.5 -90.5v-16v-752v-16q0 -53 37.5 -90.5t90.5 -37.5zM1349 672
q-24 -12 -32 -37t4 -49q17 -35 57 -35q16 0 29 7q97 49 153.5 140t56.5 198t-56.5 198t-153.5 140q-24 12 -49 4t-37 -32t-4 -49t32 -37q65 -32 102.5 -92.5t37.5 -131.5t-37.5 -131.5t-102.5 -92.5zM1261 161q4 -23 22 -37t41 -14q8 0 12 1q281 55 464.5 277t183.5 508
t-183.5 508t-464.5 277q-26 5 -48 -9.5t-27 -40.5t10 -48.5t41 -27.5q236 -46 390 -232t154 -427t-154 -427t-390 -232q-26 -5 -41 -27.5t-10 -48.5z" />
    <glyph glyph-name="uniE06A" unicode="&#xe06a;" 
d="M1024 1920q-209 0 -398.5 -81t-326.5 -218t-218 -326.5t-81 -398.5t81 -398.5t218 -326.5t326.5 -218t398.5 -81t398.5 81t326.5 218t218 326.5t81 398.5t-81 398.5t-218 326.5t-326.5 218t-398.5 81zM1538 915q-18 -288 -305 -520q-16 -13 -38 -13q-30 0 -49 25
q-16 21 -12.5 47t23.5 43q237 192 256 413q-42 -25 -92 -25q-78 0 -133 57t-55 138t55 138.5t133 57.5q29 0 66 -14l-1 1q9 -3 22 -10l1 -1h1l1 -1q13 -7 30 -21q2 -2 4.5 -4t5 -5t3.5 -4q100 -100 84 -302zM700 885q-78 0 -133 57t-55 138t55 138.5t133 57.5q29 0 66 -14v1
q8 -3 21 -10q1 0 1 -0.5t1 -0.5l1 -1q14 -7 30 -21l13 -13q101 -101 84 -302q-18 -289 -304 -520q-16 -13 -38 -13q-30 0 -49 25q-16 21 -12.5 47t23.5 43q236 191 255 413q-42 -25 -92 -25z" />
    <glyph glyph-name="uniE06B" unicode="&#xe06b;" 
d="M417 1503q-137 -137 -209 -316t-72 -359.5t72 -359.5t209 -316t316 -209t359.5 -72t359.5 72t316 209t209 316t72 359.5t-72 359.5t-209 316t-316 209t-359.5 72t-359.5 -72t-316 -209zM1600 768h-509h-1l-2 -1q-26 0 -45 19t-19 45v641q0 26 19 45t45 19t45 -19t19 -45
v-576h448q26 0 45 -19t19 -45t-19 -45t-45 -19z" />
    <glyph glyph-name="uniE06C" unicode="&#xe06c;" 
d="M1024 1920q-132 0 -252.5 -51.5t-207.5 -138.5t-138.5 -207.5t-51.5 -252.5v-118h-118q-53 0 -90.5 -37.5t-37.5 -90.5v-1024q0 -53 37.5 -90.5t90.5 -37.5h1536q53 0 90.5 37.5t37.5 90.5v1024q0 53 -37.5 90.5t-90.5 37.5h-118v118q0 132 -51.5 252.5t-138.5 207.5
t-207.5 138.5t-252.5 51.5zM630 1270q0 163 115.5 278.5t278.5 115.5t278.5 -115.5t115.5 -278.5v-118h-788v118zM1024 256q-106 0 -181 75t-75 181t75 181t181 75t181 -75t75 -181t-75 -181t-181 -75z" />
    <glyph glyph-name="uniE06D" unicode="&#xe06d;" 
d="M1664 1152h-1162v118q0 163 115.5 278.5t278.5 115.5q105 0 194.5 -52t142.5 -140l2 2q39 -56 103 -56q53 0 90.5 37.5t37.5 90.5q0 24 -10 49v1q0 2 -1 2q-8 17 -23 34q-89 133 -230 210.5t-306 77.5q-132 0 -252.5 -51.5t-207.5 -138.5t-138.5 -207.5t-51.5 -252.5
v-118h-118q-53 0 -90.5 -37.5t-37.5 -90.5v-1024q0 -53 37.5 -90.5t90.5 -37.5h1536q53 0 90.5 37.5t37.5 90.5v1024q0 53 -37.5 90.5t-90.5 37.5zM896 256q-106 0 -181 75t-75 181t75 181t181 75t181 -75t75 -181t-75 -181t-181 -75z" />
    <glyph glyph-name="uniE06E" unicode="&#xe06e;" 
d="M1984 1920h-256q-23 0 -42 -16l-884 -774q-101 22 -162 22q-130 0 -248.5 -51t-204 -136.5t-136.5 -204t-51 -248.5t51 -248.5t136.5 -204t204 -136.5t248.5 -51t248.5 51t204 136.5t136.5 204t51 248.5q0 125 -43 233l218 74q20 7 32.5 24.5t11.5 38.5l-6 242l245 18
q25 1 41.5 18.5t17.5 42.5l9 292l192 43q22 5 36 22.5t14 39.5v256q0 26 -19 45t-45 19zM448 512q57 0 103.5 -30t70.5 -80q18 -37 18 -82q0 -80 -56 -136t-136 -56t-136 56t-56 136t56 136t136 56z" />
    <glyph glyph-name="uniE06F" unicode="&#xe06f;" 
d="M1664 896q-2 0 -6.5 -0.5t-6.5 -0.5q13 61 13 129q0 130 -51 248.5t-136.5 204t-204 136.5t-248.5 51t-248.5 -51t-204 -136.5t-136.5 -204t-51 -248.5q0 -1 0.5 -3t0.5 -3q-164 -23 -274.5 -148.5t-110.5 -293.5t110 -293.5t274 -148.5v-6h1280q159 0 271.5 112.5
t112.5 271.5t-112.5 271.5t-271.5 112.5z" />
    <glyph glyph-name="uniE070" unicode="&#xe070;" 
d="M1664 896q-2 0 -6.5 -0.5t-6.5 -0.5q13 61 13 129q0 130 -51 248.5t-136.5 204t-204 136.5t-248.5 51t-248.5 -51t-204 -136.5t-136.5 -204t-51 -248.5q0 -1 0.5 -3t0.5 -3q-164 -23 -274.5 -148.5t-110.5 -293.5q0 -185 131.5 -316.5t316.5 -131.5h321q53 0 90 37t37 90
v385h-272l400 512l400 -512h-272v-385q0 -53 37 -90t90 -37h385q159 0 271.5 112.5t112.5 271.5t-112.5 271.5t-271.5 112.5z" />
    <glyph glyph-name="uniE071" unicode="&#xe071;" 
d="M1664 896q-2 0 -6.5 -0.5t-6.5 -0.5q13 61 13 129q0 130 -51 248.5t-136.5 204t-204 136.5t-248.5 51t-248.5 -51t-204 -136.5t-136.5 -204t-51 -248.5q0 -1 0.5 -3t0.5 -3q-164 -23 -274.5 -148.5t-110.5 -293.5t110 -293.5t274 -148.5v-6h640l-400 512h272v512
q0 53 37.5 90.5t90.5 37.5t90.5 -37.5t37.5 -90.5v-512h272l-400 -512h640q159 0 271.5 112.5t112.5 271.5t-112.5 271.5t-271.5 112.5z" />
    <glyph glyph-name="uniE072" unicode="&#xe072;" 
d="M1739 886q8 21 23 75q0 2 1.5 6t2.5 6q8 31 13 73q1 3 2 8.5t1 8.5q6 60 6 89q0 156 -61 298t-164 245t-245 164t-298 61t-298 -61t-245 -164t-164 -245t-61 -298q0 -53 5 -89q1 -3 2 -8.5t1 -8.5q5 -40 13 -72q1 -2 2 -6.5t2 -6.5q15 -54 23 -75q0 -1 1 -3.5t1 -3.5
q14 -37 35 -77q1 0 1 -1v-2q15 -30 45 -75q1 -1 1 -2q23 -34 52 -68l5 -5q21 -25 54 -56q2 -2 6.5 -6t6.5 -6l8 -8l8 -8q2 -2 12 -7q6 -5 19 -15.5t19 -15.5l6 -6t7 -6q28 -23 45.5 -50.5t23 -43t23 -26.5t51.5 -11h579q34 0 51.5 11t23 26.5t23 43t45.5 50.5q2 2 6.5 6
t6.5 6q7 5 20 15.5t19 15.5q2 1 5.5 3.5t5.5 3.5q3 3 8.5 8t8.5 8l12 12q33 31 54 56l5 5q29 34 52 68q1 1 1 2q30 45 45 75l1 1v2q21 40 35 77q1 1 1 3.5t1 3.5zM1472 1146q-26 0 -45 19t-19 45q0 138 -102 232t-218 94q-26 0 -45 19t-19 45t19 45t45 19q84 0 163 -30.5
t143 -86.5t103 -143.5t39 -193.5q0 -26 -19 -45t-45 -19zM1012 0h-141h-141l231 -118q28 -14 59 -14q29 0 57 14l234 118h-142h-142h-15zM1408 192q0 26 -19 45t-45 19h-640q-26 0 -45 -19t-19 -45t19 -45t45 -19h640q26 0 45 19t19 45z" />
    <glyph glyph-name="uniE073" unicode="&#xe073;" 
d="M1920 1408h-763v-384h891v256q0 53 -37.5 90.5t-90.5 37.5zM128 1408q-53 0 -90.5 -37.5t-37.5 -90.5v-256h896v384h-768zM128 896v-896q0 -53 37.5 -90.5t90.5 -37.5h640v1024h-768zM1792 -128q53 0 90.5 37.5t37.5 90.5v896h-763v-1024h635zM1024 1537v-1h133h379
q127 0 191.5 53.5t64.5 138.5t-64.5 138.5t-191.5 53.5q-219 0 -384 -161q-63 37 -132 37q-65 0 -127 -34q-164 158 -381 158q-127 0 -191.5 -53.5t-64.5 -138.5t64.5 -138.5t191.5 -53.5h384h128v1zM1664 1728q0 -64 -128 -64h-291q-1 1 -2 2.5t-1 2.5q127 123 294 123
q128 0 128 -64zM384 1728q0 64 128 64q163 0 289 -118q-1 -1 -3 -5t-3 -5h-283q-128 0 -128 64z" />
    <glyph glyph-name="uniE074" unicode="&#xe074;" 
d="M106 784l918 795l918 -795q19 -16 42 -16q28 0 48 22q17 20 15.5 46.5t-21.5 43.5l-960 832q-18 16 -42 16t-42 -16l-342 -296v120q0 53 -37.5 90.5t-90.5 37.5t-90.5 -37.5t-37.5 -90.5v-342l-362 -314q-20 -17 -21.5 -43.5t15.5 -46.5t43.5 -21.5t46.5 15.5zM768 512
h512v-640h384q53 0 90.5 37.5t37.5 90.5v627q0 61 -47 99l-640 525q-37 29 -81 29t-81 -29l-640 -525q-47 -38 -47 -99v-627q0 -53 37.5 -90.5t90.5 -37.5h384v640z" />
    <glyph glyph-name="uniE075" unicode="&#xe075;" 
d="M1920 1280h-256q-3 0 -8.5 1t-21 7.5t-30.5 18.5t-34 38.5t-34 62.5q-13 31 -22.5 48.5t-25 38.5t-35.5 31t-45 10h-512q-48 0 -75.5 -33t-52.5 -95q-15 -36 -33.5 -62.5t-34.5 -38.5t-30 -18.5t-22 -7.5l-8 -1h-128q0 53 -37.5 90.5t-90.5 37.5h-128q-53 0 -90.5 -37.5
t-37.5 -90.5q-53 0 -90.5 -37.5t-37.5 -90.5v-256h711q68 117 185 186.5t256 69.5t256 -69.5t185 -186.5h455v256q0 53 -37.5 90.5t-90.5 37.5zM448 1024h-256q-26 0 -45 19t-19 45t19 45t45 19h64h128h64q26 0 45 -19t19 -45t-19 -45t-45 -19zM768 640q0 -159 112.5 -271.5
t271.5 -112.5t271.5 112.5t112.5 271.5t-112.5 271.5t-271.5 112.5t-271.5 -112.5t-112.5 -271.5zM1664 640q0 -212 -150 -362t-362 -150t-362 150t-150 362q0 61 18 128h-658v-640q0 -53 37.5 -90.5t90.5 -37.5h1792q53 0 90.5 37.5t37.5 90.5v640h-402q18 -67 18 -128z
" />
    <glyph glyph-name="uniE076" unicode="&#xe076;" 
d="M1920 1408h-1792q-53 0 -90.5 -37.5t-37.5 -90.5v-215l1024 -410l1024 410v215q0 53 -37.5 90.5t-90.5 37.5zM0 856v-856q0 -53 37.5 -90.5t90.5 -37.5h1792q53 0 90.5 37.5t37.5 90.5v856l-1024 -410z" />
    <glyph glyph-name="uniE077" unicode="&#xe077;" 
d="M1389 1152l-244 683q-13 38 -46.5 61.5t-74.5 23.5t-74.5 -23.5t-46.5 -61.5l-244 -683h730zM1709 256l-183 512h-1004l-183 -512h1370zM128 128q-53 0 -90.5 -37.5t-37.5 -90.5t37.5 -90.5t90.5 -37.5h256h1280h256q53 0 90.5 37.5t37.5 90.5t-37.5 90.5t-90.5 37.5
h-1792z" />
    <glyph glyph-name="uniE078" unicode="&#xe078;" 
d="M256 1536v-1536q0 -39 21.5 -71t57.5 -47q23 -10 49 -10q52 0 90 38l550 549l550 -549q38 -38 90 -38q26 0 49 10q36 15 57.5 47t21.5 71v1536h-1536zM1792 1664v128q0 53 -37.5 90.5t-90.5 37.5h-1280q-53 0 -90.5 -37.5t-37.5 -90.5v-128h1536z" />
    <glyph glyph-name="uniE079" unicode="&#xe079;" 
d="M384 -128h1280q53 0 90.5 37.5t37.5 90.5v1408q0 53 -37.5 90.5t-90.5 37.5h-257q-2 160 -114 272t-269 112t-269 -112t-114 -272h-257q-53 0 -90.5 -37.5t-37.5 -90.5v-1408q0 -53 37.5 -90.5t90.5 -37.5zM1216 1152h-384q-26 0 -45 19t-19 45t19 45t45 19h384
q26 0 45 -19t19 -45t-19 -45t-45 -19zM1024 1792q104 0 178.5 -74.5t76.5 -181.5h-510q2 107 76.5 181.5t178.5 74.5z" />
    <glyph glyph-name="uniE07A" unicode="&#xe07a;" 
d="M1920 1408h-1536q-1 0 -28 -6l-50 213q-5 22 -22.5 35.5t-39.5 13.5h-184q-26 0 -45 -19t-19 -45t19 -45t45 -19h133l80 -340l111 -556q0 -1 3 -13l-65 -293q-6 -31 12 -54q19 -24 50 -24h1452q26 0 45 19t19 45t-19 45t-45 19h-1372l29 132q2 0 8.5 -2t10.5 -2h1167
q58 0 90.5 19t56.5 77l208 638q25 78 -13.5 120t-100.5 42zM384 0q0 -53 37.5 -90.5t90.5 -37.5t90.5 37.5t37.5 90.5t-37.5 90.5t-90.5 37.5t-90.5 -37.5t-37.5 -90.5zM1536 0q0 -53 37.5 -90.5t90.5 -37.5t90.5 37.5t37.5 90.5t-37.5 90.5t-90.5 37.5t-90.5 -37.5
t-37.5 -90.5z" />
    <glyph glyph-name="uniE07B" unicode="&#xe07b;" 
d="M1860 1791h-4h-3h-804q-13 -1 -38 -15.5t-32 -21.5l-942 -941q-37 -37 -37 -90t37 -91l723 -723q37 -37 90 -37q54 0 91 37l941 942q9 9 23.5 31.5t14.5 38.5v807q1 27 -16.5 45t-43.5 18zM1728 1536q-26 0 -45 19t-19 45t19 45t45 19t45 -19t19 -45t-19 -45t-45 -19z
" />
    <glyph glyph-name="uniE07C" unicode="&#xe07c;" 
d="M1860 1920h-4h-3h-676q-13 -1 -38 -15.5t-32 -21.5l-815 -815q-38 -38 -38 -91t38 -90l102 -101l-102 -102q-38 -38 -38 -91t38 -90l595 -594q38 -38 90 -38t90 38l815 814q9 9 23.5 31.5t14.5 38.5v384v295v384q1 27 -16.5 45.5t-43.5 18.5zM1728 1793q26 0 45 -19
t19 -45t-19 -45t-45 -19t-45 19t-19 45t19 45t45 19zM1792 814l-815 -815l-594 594l101 102l403 -403q37 -37 90 -37q54 0 91 37l724 725v-202v-1z" />
    <glyph glyph-name="uniE07D" unicode="&#xe07d;" 
d="M1664 1792h-256q0 53 -37.5 90.5t-90.5 37.5h-384q-53 0 -90.5 -37.5t-37.5 -90.5h-256q-53 0 -90.5 -37.5t-37.5 -90.5h1408q0 53 -37.5 90.5t-90.5 37.5zM384 0q0 -53 37.5 -90.5t90.5 -37.5h1152q53 0 90.5 37.5t37.5 90.5v1536h-1408v-1536zM1408 1216q0 26 19 45
t45 19t45 -19t19 -45v-1024q0 -26 -19 -45t-45 -19t-45 19t-19 45v1024zM1024 1216q0 26 19 45t45 19t45 -19t19 -45v-1024q0 -26 -19 -45t-45 -19t-45 19t-19 45v1024zM640 1216q0 26 19 45t45 19t45 -19t19 -45v-1024q0 -26 -19 -45t-45 -19t-45 19t-19 45v1024z" />
    <glyph glyph-name="uniE07E" unicode="&#xe07e;" 
d="M1700 559q23 39 -6 73l-1065 1265q-13 16 -32.5 21t-38.5 -2t-30.5 -23.5t-11.5 -36.5v-1670q0 -21 12 -37.5t32 -23.5q10 -3 20 -3q33 0 51 26l287 385l198 -568q19 -55 71 -79.5t107 -5.5t79.5 71t5.5 107l-194 557l447 -87q44 -8 68 31z" />
    <glyph glyph-name="uniE07F" unicode="&#xe07f;" 
d="M896 268v-268h-192q-26 0 -45 -19t-19 -45t19 -45t45 -19h319h2h319q26 0 45 19t19 45t-19 45t-45 19h-192v269q102 20 193 70.5t163 127.5t114 188t42 241v192q0 26 -19 45t-45 19t-45 -19t-19 -45v-192q0 -98 -29 -182t-78.5 -144t-115 -102.5t-139 -63t-150.5 -20.5
q-96 0 -185 31.5t-163 92t-119 161t-45 227.5v192q0 26 -19 45t-45 19t-45 -19t-19 -45v-192q0 -132 41.5 -243.5t113 -188.5t162.5 -126.5t195 -69.5zM1024 640q106 0 181 75t75 181v768q0 106 -75 181t-181 75t-181 -75t-75 -181v-768q0 -106 75 -181t181 -75z" />
    <glyph glyph-name="uniE080" unicode="&#xe080;" 
d="M1024 1920q-209 0 -398.5 -81t-326.5 -218t-218 -326.5t-81 -398.5t81 -398.5t218 -326.5t326.5 -218t398.5 -81t398.5 81t326.5 218t218 326.5t81 398.5t-81 398.5t-218 326.5t-326.5 218t-398.5 81zM1526 1310l-148 -238l-100 -159q0 -3 1 -8.5t1 -8.5q0 -106 -75 -181
t-181 -75q-3 0 -8.5 1t-8.5 1l-159 -100l-238 -148q-14 -10 -34 -10q-26 0 -45 19q-16 16 -18.5 38t9.5 41l148 238l100 159q0 3 -1 8.5t-1 8.5q0 106 75 181t181 75q3 0 8.5 -1t8.5 -1l159 100l238 148q19 12 41 9.5t38 -18.5t18.5 -38t-9.5 -41zM896 896q0 -53 37.5 -90.5
t90.5 -37.5t90.5 37.5t37.5 90.5t-37.5 90.5t-90.5 37.5t-90.5 -37.5t-37.5 -90.5z" />
    <glyph glyph-name="uniE081" unicode="&#xe081;" 
d="M977 -93q15 -17 32 -25v-1q11 -6 20 -6t20 6l1 1q15 7 31 25q12 14 34 38t84.5 102.5t121 158.5t131.5 197t128.5 227t99.5 240t56 244q6 43 6 88q0 146 -57 279t-153 229t-229 153t-279 57t-279 -57t-229 -153t-153 -229t-57 -279q0 -38 7 -89q12 -114 55.5 -242.5
t103 -242t128.5 -224.5t135 -199t120.5 -156t88.5 -105zM1024 1664q190 0 326 -136t136 -326q0 -125 -62 -231t-168.5 -168t-231.5 -62t-231.5 62t-168.5 168t-62 231q0 190 136 326t326 136z" />
    <glyph glyph-name="uniE082" unicode="&#xe082;" 
d="M512 671q0 -69 148.5 -110t363.5 -47v-2v-384q0 -65 20 -160.5t44 -95.5t44 95.5t20 160.5v384v2q215 6 363.5 47t148.5 110q0 77 -66.5 133.5t-189.5 87.5v663q117 40 186.5 98t69.5 108q0 44 -63.5 78t-165 51.5t-224.5 26t-246 0t-224.5 -26t-165 -51.5t-63.5 -78
q0 -54 69 -111.5t187 -96.5v-661q-123 -31 -189.5 -87.5t-66.5 -133.5z" />
    <glyph glyph-name="uniE083" unicode="&#xe083;" 
d="M645 1549l-517 243v-1536l517 -243v1536zM773 14l510 230v1536l-510 -230v-1536zM1411 241l509 -241v1536l-509 241v-1536z" />
    <glyph glyph-name="uniE084" unicode="&#xe084;" 
d="M1792 1664q-27 60 -73 94t-99 34h-1204q-53 0 -94.5 -33.5t-65.5 -94.5l-256 -1024v-2v-64v-64v-69v-2v-377q0 -26 19 -45t45 -19h1920q26 0 45 19t19 45v383v2v63v64v58l-2 6zM377 1621q20 43 39 43h1204q29 0 52 -46l225 -916q0 -26 -19 -45t-45 -19h-169h-320
q-26 0 -45 -19t-19 -45v-126q0 -26 -19 -45t-45 -19l-2 -1l-2 -1h-378l-1 1l-1 1q-26 0 -45 19t-19 45v126q0 26 -19 45t-45 19h-448h-41q-26 0 -45.5 19t-19.5 45q-1 0 -1 1z" />
    <glyph glyph-name="uniE085" unicode="&#xe085;" 
d="M1920 1280h-512v128q0 53 -37.5 90.5t-90.5 37.5h-512q-53 0 -90.5 -37.5t-37.5 -90.5v-128h-512q-53 0 -90.5 -37.5t-37.5 -90.5v-256h768h512h768v256q0 53 -37.5 90.5t-90.5 37.5zM768 1408h512v-128h-512v128zM768 768h512v-128h-512v128zM1408 640
q0 -53 -37.5 -90.5t-90.5 -37.5h-512q-53 0 -90.5 37.5t-37.5 90.5v128h-640v-768q0 -53 37.5 -90.5t90.5 -37.5h1792q53 0 90.5 37.5t37.5 90.5v768h-640v-128z" />
    <glyph glyph-name="uniE086" unicode="&#xe086;" 
d="M323 -128h58h768h131h45h208q53 0 90.5 37.5t37.5 90.5v276v44v1024q0 26 -19 45t-45 19h-1085q-1 0 -6.5 -0.5t-8.5 -0.5l-174 1q-81 0 -138 54.5t-57 134.5q0 81 56 138t136 57h256h704h512v-1472q0 -27 17.5 -45.5t43.5 -18.5q27 0 47 19t20 45v1536q0 26 -20 45
t-47 19h-447h-830h-253q-132 0 -226 -93t-96 -225l-1 1v-267v-184v-701v-159v-97q0 -133 95 -228t228 -95z" />
    <glyph glyph-name="uniE087" unicode="&#xe087;" 
d="M128 1920q-53 0 -90.5 -37.5t-37.5 -90.5v-1792q0 -53 37.5 -90.5t90.5 -37.5h128v2048h-128zM1664 1920h-1280v-2048h1280q53 0 90.5 37.5t37.5 90.5v1792q0 53 -37.5 90.5t-90.5 37.5zM1081 1427q80 0 137 -57t57 -137t-57 -137t-137 -57t-137 57t-57 137t57 137
t137 57zM768 537q0 176 93 300.5t224 124.5t224 -124.5t93 -300.5q0 -48 -35 -86t-91 -57.5t-123.5 -29t-135 0t-123.5 29t-91 57.5t-35 86zM1920 1792h128v-384h-128v384zM1920 1280h128v-384h-128v384zM1920 768h128v-384h-128v384z" />
    <glyph glyph-name="uniE088" unicode="&#xe088;" 
d="M1920 1664h-1792q-53 0 -90.5 -37.5t-37.5 -90.5v-256h2048v256q0 53 -37.5 90.5t-90.5 37.5zM128 0q0 -53 37.5 -90.5t90.5 -37.5h1536q53 0 90.5 37.5t37.5 90.5v1152h-1792v-1152zM768 896h512q53 0 90.5 -37.5t37.5 -90.5t-37.5 -90.5t-90.5 -37.5h-512
q-53 0 -90.5 37.5t-37.5 90.5t37.5 90.5t90.5 37.5z" />
    <glyph glyph-name="uniE089" unicode="&#xe089;" 
d="M2047 1035q-2 116 -48 225t-122.5 190t-183 130t-221.5 49q-133 0 -249.5 -63.5t-198.5 -171.5q-82 108 -198.5 171.5t-249.5 63.5q-115 0 -221.5 -49t-183 -130t-122.5 -190t-48 -225h-1v-6v-4q0 -5 1.5 -12.5t1.5 -11.5q6 -163 65 -314t148.5 -261t196.5 -205
t213 -157.5t193.5 -107t142.5 -64.5l54 -20q13 4 35 12t90.5 38t135 64.5t158 92t170 121t159.5 151.5t139.5 183t97.5 216t44 249q0 1 1.5 11t1.5 15v4v6h-1z" />
    <glyph glyph-name="uniE08A" unicode="&#xe08a;" 
d="M1408 1536q0 154 -115 269t-269 115t-269 -115t-115 -269t115 -269t269 -115t269 115t115 269zM1024 1024q-124 0 -241.5 -64.5t-205 -173t-140.5 -260t-53 -316.5q0 -82 55 -148t145 -106.5t205 -62.5t235 -22t235 22t205 62.5t145 106.5t55 148q0 165 -53 316.5
t-140.5 260t-205 173t-241.5 64.5z" />
    <glyph glyph-name="uniE08B" unicode="&#xe08b;" 
d="M896 1600q0 128 -96 224t-224 96t-224 -96t-96 -224t96 -224t224 -96t224 96t96 224zM1120 384q0 186 -46 335t-124 242t-178 142t-212 49t-212 -49t-178 -142t-124 -242t-46 -335q0 -84 83 -145.5t207.5 -89t269.5 -27.5t269.5 27.5t207.5 89t83 145.5zM1504 1031
q128 0 224 96t96 224t-96 224t-224 96t-224 -96t-96 -224t96 -224t224 -96zM1488 903q-129 0 -250 -72q74 -201 74 -447q0 -128 -81.5 -226.5t-230.5 -156.5q59 -50 162.5 -82t218.5 -41.5t234.5 2t215 42t156.5 86.5t61 127q0 186 -46 335t-124 242t-178 142t-212 49z" />
    <glyph glyph-name="uniE08C" unicode="&#xe08c;" 
d="M384 1024h384q53 0 90.5 37.5t37.5 90.5v384q0 53 -37.5 90.5t-90.5 37.5h-384q-53 0 -90.5 -37.5t-37.5 -90.5v-384q0 -53 37.5 -90.5t90.5 -37.5zM1280 1024h384q53 0 90.5 37.5t37.5 90.5v384q0 53 -37.5 90.5t-90.5 37.5h-384q-53 0 -90.5 -37.5t-37.5 -90.5v-384
q0 -53 37.5 -90.5t90.5 -37.5zM256 256q0 -53 37.5 -90.5t90.5 -37.5h384q53 0 90.5 37.5t37.5 90.5v384q0 53 -37.5 90.5t-90.5 37.5h-384q-53 0 -90.5 -37.5t-37.5 -90.5v-384zM1152 256q0 -53 37.5 -90.5t90.5 -37.5h384q53 0 90.5 37.5t37.5 90.5v384q0 53 -37.5 90.5
t-90.5 37.5h-384q-53 0 -90.5 -37.5t-37.5 -90.5v-384z" />
    <glyph glyph-name="uniE08D" unicode="&#xe08d;" 
d="M256 1280h256q53 0 90.5 37.5t37.5 90.5v256q0 53 -37.5 90.5t-90.5 37.5h-256q-53 0 -90.5 -37.5t-37.5 -90.5v-256q0 -53 37.5 -90.5t90.5 -37.5zM896 1280h256q53 0 90.5 37.5t37.5 90.5v256q0 53 -37.5 90.5t-90.5 37.5h-256q-53 0 -90.5 -37.5t-37.5 -90.5v-256
q0 -53 37.5 -90.5t90.5 -37.5zM1536 1280h256q53 0 90.5 37.5t37.5 90.5v256q0 53 -37.5 90.5t-90.5 37.5h-256q-53 0 -90.5 -37.5t-37.5 -90.5v-256q0 -53 37.5 -90.5t90.5 -37.5zM128 768q0 -53 37.5 -90.5t90.5 -37.5h256q53 0 90.5 37.5t37.5 90.5v256q0 53 -37.5 90.5
t-90.5 37.5h-256q-53 0 -90.5 -37.5t-37.5 -90.5v-256zM768 768q0 -53 37.5 -90.5t90.5 -37.5h256q53 0 90.5 37.5t37.5 90.5v256q0 53 -37.5 90.5t-90.5 37.5h-256q-53 0 -90.5 -37.5t-37.5 -90.5v-256zM1408 768q0 -53 37.5 -90.5t90.5 -37.5h256q53 0 90.5 37.5
t37.5 90.5v256q0 53 -37.5 90.5t-90.5 37.5h-256q-53 0 -90.5 -37.5t-37.5 -90.5v-256zM128 128q0 -53 37.5 -90.5t90.5 -37.5h256q53 0 90.5 37.5t37.5 90.5v256q0 53 -37.5 90.5t-90.5 37.5h-256q-53 0 -90.5 -37.5t-37.5 -90.5v-256zM768 128q0 -53 37.5 -90.5
t90.5 -37.5h256q53 0 90.5 37.5t37.5 90.5v256q0 53 -37.5 90.5t-90.5 37.5h-256q-53 0 -90.5 -37.5t-37.5 -90.5v-256zM1408 128q0 -53 37.5 -90.5t90.5 -37.5h256q53 0 90.5 37.5t37.5 90.5v256q0 53 -37.5 90.5t-90.5 37.5h-256q-53 0 -90.5 -37.5t-37.5 -90.5v-256z" />
    <glyph glyph-name="uniE08E" unicode="&#xe08e;" 
d="M51 -29q72 -93 201.5 -98.5t240.5 80.5q88 68 125 168q22 44 22 107v956l1152 218v-505q0 -50 -15 -91t-35.5 -64t-49 -40t-47.5 -23t-38 -10q-2 -1 -6 -1t-6 -1l-5 -1q-90 -16 -166 -74q-111 -86 -139 -212.5t44 -219.5t201.5 -98.5t240.5 80.5t139 215q10 32 10 64
v1242q0 8 -2 22q0 2 1 6t1 6v128q0 53 -37.5 79t-90.5 10l-1152 -218q-53 -17 -90.5 -65.5t-37.5 -101.5v-128q0 -1 0.5 -2t0.5 -2q0 -2 -0.5 -5.5t-0.5 -5.5v-678q0 -50 -15 -91t-35.5 -64t-49 -40t-47.5 -23t-38 -10q-1 0 -3 -1t-4 -1l-11 -1l2 -1q-93 -18 -165 -73
q-111 -86 -139 -212.5t44 -219.5z" />
    <glyph glyph-name="uniE08F" unicode="&#xe08f;" 
d="M1024 1920q-209 0 -398.5 -81t-326.5 -218t-218 -326.5t-81 -398.5t81 -398.5t218 -326.5t326.5 -218t398.5 -81t398.5 81t326.5 218t218 326.5t81 398.5t-81 398.5t-218 326.5t-326.5 218t-398.5 81zM896 640q0 -53 -37.5 -90.5t-90.5 -37.5t-90.5 37.5t-37.5 90.5v512
q0 53 37.5 90.5t90.5 37.5t90.5 -37.5t37.5 -90.5v-512zM1408 640q0 -53 -37.5 -90.5t-90.5 -37.5t-90.5 37.5t-37.5 90.5v512q0 53 37.5 90.5t90.5 37.5t90.5 -37.5t37.5 -90.5v-512z" />
    <glyph glyph-name="uniE090" unicode="&#xe090;" 
d="M846 1404q-5 57 -26 111.5t-47 94t-64 78t-64.5 60t-62.5 44t-44 26.5l-22 11q-17 8 -38 5q-95 -16 -170 -49t-114 -64.5t-66 -69.5t-32.5 -53t-8.5 -26q-5 -19 1 -34q83 -258 199 -477t228.5 -367.5t255 -272.5t247.5 -193t240 -128t197 -79t152 -45q7 -2 26.5 -7.5
t26.5 -7.5q12 -4 19 -4q15 0 27 6q8 4 14.5 7.5t30.5 20.5t44 36t47.5 53.5t49 73t41 94.5t29.5 119q3 21 -6 40q-5 10 -15 26t-43.5 54.5t-75.5 72t-112.5 69t-151.5 55.5q-30 7 -56 -14q-71 -60 -152 -111t-120 -58q-103 50 -198.5 122.5t-160.5 142t-115 137.5t-74.5 115
t-27.5 68q-3 27 50.5 109.5t124.5 159.5q20 22 17 49z" />
    <glyph glyph-name="uniE091" unicode="&#xe091;" 
d="M384 1152h384v-768h512l-3 768h387l-640 640zM1536 128h-1024v256h-256v-256v-256h1536v256v256h-256v-256z" />
    <glyph glyph-name="uniE092" unicode="&#xe092;" 
d="M1024 384l640 640h-384v768h-512l2 -768h-386zM256 128v-256h1536v256v256h-256v-256h-1024v256h-256v-256z" />
    <glyph glyph-name="uniE093" unicode="&#xe093;" 
d="M771 -128h384v1024h349l37 353h-386l1 177q0 41 3 62t16 42t42 29t77 8h244v353h-350q-100 0 -173.5 -21t-120 -58.5t-74.5 -97t-38.5 -127.5t-10.5 -159v-208h-257v-353h257v-1024z" />
    <glyph glyph-name="uniE094" unicode="&#xe094;" 
d="M1992 1697q-125 -74 -267 -102q-59 63 -138.5 98t-168.5 35q-174 0 -297 -123t-123 -297q0 -47 11 -96q-258 13 -483 129t-383 310q-57 -98 -57 -211q0 -108 50.5 -200.5t136.5 -149.5q-99 3 -191 53v-5q0 -152 96 -267t241 -145q-53 -15 -110 -15q-38 0 -80 8
q41 -127 149 -208.5t244 -83.5q-229 -180 -522 -180q-50 0 -100 6q295 -189 644 -189q188 0 356.5 50t297.5 137t233 203t170.5 249.5t102 275t35.5 281.5q0 36 -1 54q126 90 210 217q-117 -51 -241 -66q66 39 114 99t71 133z" />
    <glyph glyph-name="uniE095" unicode="&#xe095;" 
d="M516 736q28 49 34.5 89t-4.5 70.5t-27 55.5t-33.5 58.5t-22.5 66.5q-20 125 17.5 242t113.5 201.5t182 140.5t217.5 70.5t225.5 -21.5t200 -123q45 -46 73.5 -116t38 -148.5t2.5 -164.5t-29 -166t-60 -150t-87 -119t-114.5 -71t-137.5 -7q-78 16 -110.5 62.5t-27 111
t27 140t46 152.5t37 145t-8 122t-82.5 78q-63 26 -114 11t-90.5 -52.5t-63.5 -96t-33 -120.5t0.5 -126.5t38.5 -112.5q-13 -64 -33.5 -144t-38.5 -146.5t-37.5 -144.5t-33 -153t-22 -155t-6.5 -167.5t14 -175.5q47 34 86.5 79.5t70 101.5t53.5 111.5t42.5 128.5t32.5 132
t29 141q24 -15 65 -43.5t64 -42t62.5 -27.5t83.5 -18q96 -8 184 15t157.5 70.5t129 116t97.5 151t64 176t29.5 191t-7.5 196.5q-20 148 -102 265t-203 186.5t-272.5 99t-312.5 11.5q-102 -11 -201 -49.5t-186 -102.5t-154 -146t-107.5 -187.5t-44.5 -220.5q-4 -93 9 -168
t45.5 -137.5t91 -104.5t142.5 -61z" />
    <glyph glyph-name="uniE096" unicode="&#xe096;" 
d="M549 57q123 0 224.5 33t166.5 88t100 123.5t35 142.5q0 118 -41 196t-146 152q-47 33 -94 83t-47 83q0 44 19.5 74t83.5 80q70 54 110.5 126t40.5 154q0 106 -45.5 192t-127.5 117h170l120 87h-536q-118 0 -226 -53.5t-174 -145t-66 -194.5q0 -164 114 -276.5t294 -112.5
q34 0 50 1q-27 -51 -27 -100q0 -77 73 -148q-15 0 -46 -0.5t-47 -0.5q-109 0 -207.5 -33t-168 -86.5t-110.5 -123.5t-41 -143q0 -94 75.5 -167t200 -110.5t273.5 -37.5zM602 1060q-103 3 -189.5 101.5t-104.5 234.5q-18 135 42.5 227t164.5 89t189.5 -99.5t103.5 -231.5
q18 -136 -42.5 -230t-163.5 -91zM583 708q73 -2 134 -21q11 -7 45 -30.5t43.5 -30t34.5 -25.5t33.5 -29t23.5 -27t22 -33t12 -35q6 -27 6 -56q0 -127 -92.5 -202.5t-296.5 -75.5q-152 0 -253.5 83.5t-101.5 202.5q0 114 117.5 197.5t272.5 81.5zM1664 1408v380h-128v-380
h-384v-128h384v-388h128v388h384v128h-384z" />
    <glyph glyph-name="uniE097" unicode="&#xe097;" 
d="M659 362q0 -143 29 -214q31 -75 106 -140t184 -101q105 -35 221 -35q126 0 230 25q124 30 235 82v308q-75 -49 -131 -65.5t-137 -16.5q-87 0 -155 41q-56 33 -78 89q-2 6 -3.5 12.5t-3 16t-2 17.5t-1 21.5t-1 23.5t-0.5 28v30v35v37v468h512v384h-512v512h-330
q-20 -159 -72 -261q-53 -103 -138 -176q-71 -61 -228 -112v-347h275v-662z" />
    <glyph glyph-name="uniE098" unicode="&#xe098;" 
d="M1408 916l-136 -48l-120 48v-248q0 -178 111.5 -295t272.5 -117q159 0 271.5 112.5t112.5 271.5v256h-256v-256q0 -53 -37.5 -90.5t-90.5 -37.5q-55 0 -91.5 42t-36.5 114v248zM512 256q159 0 271.5 112.5t112.5 271.5v512q0 53 37.5 90.5t90.5 37.5q50 0 89 -33t39 -67
v-124l120 -48l136 48v124q0 140 -113.5 248t-270.5 108q-159 0 -271.5 -112.5t-112.5 -271.5v-512q0 -53 -37.5 -90.5t-90.5 -37.5t-90.5 37.5t-37.5 90.5v256h-256v-256q0 -159 112.5 -271.5t271.5 -112.5z" />
    <glyph glyph-name="uniE099" unicode="&#xe099;" 
d="M1024 1920q-209 0 -398.5 -81t-326.5 -218t-218 -326.5t-81 -398.5t81 -398.5t218 -326.5t326.5 -218t398.5 -81t398.5 81t326.5 218t218 326.5t81 398.5t-81 398.5t-218 326.5t-326.5 218t-398.5 81zM146 896q0 184 76 348l419 -1117q-223 105 -359 312t-136 457z
M1024 41q-128 0 -248 35l263 745l270 -720l6 -12q-141 -48 -291 -48zM1145 1297l100 8q22 3 30 21t-2.5 34t-32.5 15q-142 -11 -234 -11q-38 0 -96 3t-96 5l-39 3q-22 1 -32.5 -15.5t-3 -35t29.5 -19.5q45 -5 92 -8l137 -365l-192 -561l-320 926l101 8q22 3 29.5 21t-3 34
t-32.5 15q-142 -11 -234 -11q-14 0 -56 2q120 177 313.5 281t419.5 104q168 0 321 -59t272 -165h-12q-63 0 -105 -45t-42 -106q0 -13 2 -26.5t4.5 -24.5t9 -26t10.5 -23t14 -25t14 -24t16 -26.5t16 -25.5q73 -122 73 -236q0 -34 -11 -83.5t-20 -79t-36 -113.5l-88 -285z
M1902 896q0 -232 -119 -429t-318 -310l268 755q67 163 67 306q0 48 -6 88q108 -194 108 -410z" />
    <glyph glyph-name="uniE09A" unicode="&#xe09a;" 
d="M1956 1920h-1864q-38 0 -65 -27t-27 -65v-1864q0 -38 27 -65t65 -27h1864q38 0 65 27t27 65v1864q0 38 -27 65t-65 27zM1381 896q0 -148 -104.5 -252.5t-252.5 -104.5t-252.5 104.5t-104.5 252.5t104.5 252.5t252.5 104.5t252.5 -104.5t104.5 -252.5zM1792 128h-1536v896
h169q-14 -64 -14 -128q0 -124 48.5 -238t130.5 -196t196 -130.5t238 -48.5t238 48.5t196 130.5t130.5 196t48.5 238q0 64 -14 128h169v-896zM1792 1280h-384v384h384v-384z" />
    <glyph glyph-name="uniE09B" unicode="&#xe09b;" 
d="M1024 1920q-208 0 -397.5 -81t-327 -218.5t-218.5 -327t-81 -397.5t81 -397.5t218.5 -327t327 -218.5t397.5 -81t397.5 81t327 218.5t218.5 327t81 397.5t-81 397.5t-218.5 327t-327 218.5t-397.5 81zM1024 1769q164 0 313 -57.5t267 -162.5q-14 -20 -37.5 -45t-78.5 -75
t-145 -103t-198 -93q-153 281 -326 512q99 24 205 24zM652 1686q182 -253 324 -506q-183 -49 -384 -75t-287 -29t-137 -2q43 202 171 363.5t313 248.5zM149 895q0 5 0.5 13t0.5 13q36 -1 101 1t193 11t291 38.5t314 74.5q32 -63 70 -149q-21 -5 -34 -10q-107 -35 -207 -90
t-175 -118t-134 -121t-103 -117t-62.5 -85.5t-29.5 -45.5q-107 118 -166 268.5t-59 316.5zM1024 20q-301 0 -537 185q7 14 17 31.5t40 60t64.5 83t92.5 94t123 100t156.5 94.5t192.5 83q1 1 3 1t3 1q133 -346 187 -664q-161 -69 -342 -69zM1513 170q-49 291 -170 623
q77 12 159.5 13.5t141 -4.5t119 -17t83 -17t42.5 -12q-29 -180 -127.5 -332.5t-247.5 -253.5zM1289 931l-18 45q-18 43 -58 127q91 37 173 84.5t133.5 86.5t95 80t60 60.5t26.5 33.5q194 -237 197 -545q-21 4 -47 9t-95 14t-136 13.5t-158 3t-173 -11.5z" />
    <glyph glyph-name="uniE09C" unicode="&#xe09c;" 
d="M1175 1309q68 40 126 46t94 -20t54 -70.5t9 -108t-44 -128.5q-92 -171 -168 -270t-118 -99q-40 0 -75.5 95.5t-90.5 315.5q-11 44 -23 109.5t-20.5 122t-22.5 122.5t-28.5 118.5t-38.5 101.5t-52.5 79t-70.5 44t-93 4q-74 -15 -164.5 -68.5t-166.5 -119.5t-141.5 -130
t-102.5 -107l-38 -43l83 -109q7 6 19 14.5t44.5 28.5t60.5 31.5t58.5 12t46.5 -18.5q30 -36 172.5 -501t175.5 -534q20 -42 50.5 -82t74 -75t90.5 -53.5t104.5 -13t112.5 41.5q68 44 161.5 122t220.5 210t237 277.5t202 334.5t125 372q42 239 -84 353q-100 90 -266 73
q-166 -16 -306 -129q-165 -133 -204 -335z" />
    <glyph glyph-name="uniE09D" unicode="&#xe09d;" 
d="M132 1280h380v-1408h-380v1408zM1291 1280q-29 0 -54.5 -3t-50 -12t-39.5 -14t-38 -20t-29.5 -19.5t-30 -23t-25.5 -19.5v111h-382v-1408h382v886q2 1 0 10t2 25t9 34.5t20 37.5t35 34.5t54.5 25.5t77.5 10q92 0 139 -48t47 -129v-886h402v874q0 99 -22 180.5t-57 135.5
t-83.5 95.5t-96 64t-100 36.5t-89.5 18t-71 4zM128 1600q0 -80 56 -136t136 -56t136 56t56 136t-56 136t-136 56t-136 -56t-56 -136z" />
    <glyph glyph-name="uniE09E" unicode="&#xe09e;" 
d="M1 1920v-393q225 0 439 -59.5t395 -166.5t334 -259.5t259.5 -334t166 -396t59.5 -439.5h394q0 278 -73.5 543.5t-205.5 490t-321.5 413.5t-414 321.5t-489.5 206t-543 73.5zM958 -128h394q0 184 -48.5 359t-136 323.5t-212.5 273t-273 212t-323.5 136t-358.5 48.5v-392
q192 0 366.5 -72.5t310.5 -208.5t208.5 -311t72.5 -368zM273 -125q113 0 193 79.5t80 191.5t-80 192t-193 80t-193 -80t-80 -192t80 -191.5t193 -79.5z" />
    <glyph glyph-name="uniE09F" unicode="&#xe09f;" 
d="M1455 1251q-317 75 -731 13q-20 -2 -28 -4l-84 157q-123 -17 -231 -51l80 -169q-196 -76 -317 -211q-99 -112 -130.5 -241.5t12.5 -266.5q18 -54 50 -103l956 263l-265 492q5 1 14 2.5t14 2.5q524 94 792 -168l-327 -79l-136 218q-123 8 -273 -18l241 -434l956 263
q-15 37 -45 72q-74 86 -222.5 156.5t-325.5 105.5zM349 667q-57 258 181 386l147 -306z" />
    <glyph glyph-name="uniE0A0" unicode="&#xe0a0;" 
d="M1510 1316q89 -68 202 -68q140 0 238 98t98 238t-98 238t-238 98t-238.5 -98.5t-98.5 -237.5l-829 -402q-92 74 -210 74q-139 0 -237.5 -98.5t-98.5 -238.5q0 -139 98 -237.5t238 -98.5q99 0 182 54l858 -415q0 -140 98 -238t238 -98t238 98t98 238t-98 238t-238 98
q-113 0 -202 -68l-839 406q0 2 0.5 7t0.5 8z" />
    <glyph glyph-name="uniE0A1" unicode="&#xe0a1;" 
d="M1011 1407q75 75 75 183q0 105 -75 180q-74 74 -183 74q-105 0 -179 -74q-75 -75 -75 -180q0 -108 75 -183q74 -74 179 -74q109 0 183 74zM1239 1352q45 -45 105 -72q61 -26 130 -26t130 26q60 27 105 72t72 105q26 58 26 130t-26 130q-24 57 -72 105t-105 72
q-58 26 -130 26t-130 -26q-57 -24 -105 -72q-45 -45 -72 -105q-26 -58 -26 -130t26 -130q27 -60 72 -105zM340 1391q82 0 138 57q55 56 55 139q0 80 -55 136q-56 57 -138 57t-139 -57t-57 -136q0 -82 57 -139t139 -57zM1796 991q-61 61 -145 96q-85 35 -177 35
q-93 0 -175 -35q-81 -34 -143 -93q-28 105 -119 179q-90 72 -209 72q-74 0 -143 -32q-68 -33 -117 -91q-21 76 -82 127q-62 51 -146 51q-100 0 -168 -68q-22 -22 -32 -52.5t-11 -50t-1 -65.5v-410h337v-336h563v-446h900v797q0 99 -34 177q-35 82 -98 145z" />
    <glyph glyph-name="uniE0A2" unicode="&#xe0a2;" 
d="M1959 891q0 190 -74.5 363.5t-200.5 299t-300 199.5t-365 74q-71 0 -151 -13q-138 91 -307 91q-152 0 -281.5 -75t-204.5 -204.5t-75 -281.5q0 -167 90 -306q-11 -66 -11 -147q0 -190 74.5 -363.5t200.5 -299t300 -199.5t365 -74q83 0 171 16q134 -84 297 -84
q152 0 281.5 75t204.5 204.5t75 281.5q0 175 -97 316q8 56 8 127zM1107 202q-145 -8 -252 11t-176.5 56.5t-138.5 102.5q-51 48 -71.5 101.5t-11 94.5t39.5 69t74 31q40 3 79.5 -18.5t65 -49t56 -60t48.5 -43.5q28 -18 76 -34t110.5 -26.5t127.5 7.5t109 68q39 44 41 84
t-24 68t-72.5 50.5t-96.5 36t-104 21.5q-75 11 -147 32t-142.5 57t-121.5 81t-80 109t-22 137q8 91 46 165.5t95.5 123t127 76.5t146.5 35q184 17 317.5 -23t238.5 -129q54 -46 73.5 -97.5t7 -90.5t-42 -66.5t-66.5 -32.5q-26 -3 -59 17.5t-69.5 53t-77.5 65t-97.5 56.5
t-115.5 25q-111 2 -187 -63q-65 -56 -56 -118q10 -74 123 -108q11 -3 23 -6q38 -9 102 -23t103.5 -23t97 -25t95.5 -31t83.5 -39t77 -51.5t61 -65.5t48.5 -83q29 -76 21 -149t-52.5 -139.5t-108.5 -118t-149 -84t-173 -37.5z" />
    <glyph glyph-name="uniE0A3" unicode="&#xe0a3;" 
d="M1771 1597q-835 56 -1494 0q-103 -12 -176.5 -116t-82.5 -216q-17 -215 -17 -368t17 -368q6 -71 37.5 -143t91 -128t130.5 -65q817 -53 1494 0q103 18 177 122t83 214q17 214 17 376.5t-17 377.5q-4 54 -22 106.5t-49 99t-80 76.5t-109 32zM768 534v734l640 -367z" />
    <glyph glyph-name="uniE0A4" unicode="&#xe0a4;" 
d="M512 9v907l-428 -427q66 -151 176 -274.5t252 -205.5zM640 -54q183 -74 384 -74q280 0 516 139t371 373h-1271v-438zM852 1472l-321 322q-242 -133 -386.5 -372.5t-144.5 -525.5q0 -128 30 -247zM1408 1846q-183 74 -384 74q-179 0 -345 -60l729 -728v714zM1536 1783
v-1271h438q74 183 74 384q0 280 -139 516t-373 371z" />
    <glyph glyph-name="uniE0A5" unicode="&#xe0a5;" 
d="M1951 768l-586 1015h-682l586 -1015h682zM927 1024l-341 591l-586 -1015l341 -591zM577 -3h1130l341 643h-1104z" />
    <glyph glyph-name="uniE0A6" unicode="&#xe0a6;" 
d="M0 903q0 -176 125.5 -301.5t301.5 -125.5t301 125.5t125 301.5t-125 301.5t-301 125.5t-301.5 -125.5t-125.5 -301.5zM1195 903q0 -176 125 -301.5t301 -125.5t301.5 125.5t125.5 301.5t-125.5 301.5t-301.5 125.5t-301 -125.5t-125 -301.5z" />
    <glyph glyph-name="uniE0A7" unicode="&#xe0a7;" 
d="M1916 1152h-113h-2q-52 0 -92.5 38.5t-44.5 89.5q0 179 -88.5 326.5t-240 230.5t-333.5 83h-336q-136 0 -259 -52.5t-212.5 -141t-142 -211t-52.5 -256.5v-726q0 -134 52.5 -256.5t142 -211t212.5 -141t259 -52.5h717q181 0 334 88.5t242 240.5t89 332v469
q0 56 -39.5 103t-92.5 47zM640 1408h384q52 0 90 -38t38 -90t-38 -90t-90 -38h-384q-52 0 -90 38t-38 90t38 90t90 38zM1408 384h-768q-52 0 -90 38t-38 90t38 90t90 38h768q52 0 90 -38t38 -90t-38 -90t-90 -38z" />
    <glyph glyph-name="uniE0A8" unicode="&#xe0a8;" 
d="M1024 1920q-209 0 -398.5 -81t-326.5 -218t-218 -326.5t-81 -398.5t81 -398.5t218 -326.5t326.5 -218t398.5 -81t398.5 81t326.5 218t218 326.5t81 398.5t-81 398.5t-218 326.5t-326.5 218t-398.5 81zM1497 296q-21 -37 -62 -37q-17 0 -34 9q-251 138 -538 138
q-169 0 -331 -50q-28 -9 -54 5t-34 42q-10 29 5 73.5t42 53.5q182 56 372 56q325 0 606 -155q25 -14 34 -62t-6 -73zM1627 681q-39 -73 -73 -73q-20 0 -38 9q-307 159 -653 159q-189 0 -374 -50q-33 -9 -62.5 7.5t-38.5 49.5q-9 35 8.5 78.5t49.5 52.5q206 56 417 56
q387 0 729 -178q30 -16 40.5 -48.5t-5.5 -62.5zM1766 1052q-14 -26 -36.5 -44t-47.5 -18q-23 0 -42 10q-366 182 -777 182q-215 0 -421 -51q-38 -9 -71 11.5t-42 57.5q-10 38 10.5 76t57.5 47q228 57 466 57q454 0 860 -202q35 -17 47.5 -54t-4.5 -72z" />
    <glyph glyph-name="uniE0A9" unicode="&#xe0a9;" 
d="M1920 1920h-896h-896h-37q-37 0 -64 -27t-27 -64v-37v-896v-896q0 -53 37.5 -90.5t90.5 -37.5h897h895h37q37 0 64 27t27 64v37v893v899q0 53 -37.5 90.5t-90.5 37.5zM1025 893v-893h-897v896h896v896h896v-899h-895z" />
    <glyph glyph-name="uniE0AA" unicode="&#xe0aa;" 
d="M1024 1920q-209 0 -398.5 -81t-326.5 -218t-218 -326.5t-81 -398.5t81 -398.5t218 -326.5t326.5 -218t398.5 -81t398.5 81t326.5 218t218 326.5t81 398.5t-81 398.5t-218 326.5t-326.5 218t-398.5 81zM1289 896h-168v-614h-231v614h-153v212h153v125q0 141 53 209t197 68
h170v-211h-106q-55 0 -69 -19t-14 -66v-106h190z" />
    <glyph glyph-name="uniE0AB" unicode="&#xe0ab;" 
d="M1024 1920q-209 0 -398.5 -81t-326.5 -218t-218 -326.5t-81 -398.5t81 -398.5t218 -326.5t326.5 -218t398.5 -81t398.5 81t326.5 218t218 326.5t81 398.5t-81 398.5t-218 326.5t-326.5 218t-398.5 81zM1533 1126q1 -11 1 -33q0 -101 -29.5 -202.5t-90 -194t-144 -164
t-201 -114t-252.5 -42.5q-211 0 -387 113q30 -3 61 -3q176 0 313 108q-82 1 -147 50t-89 125q25 -5 48 -5q34 0 66 9q-87 17 -144.5 86.5t-57.5 160.5v3q53 -30 114 -31q-52 34 -82 90t-30 120q0 69 34 126q95 -117 230 -186.5t290 -76.5q-7 32 -7 57q0 104 74 178t178 74
q110 0 184 -79q84 16 160 61q-30 -92 -110 -140q73 9 144 40q-53 -78 -126 -130z" />
    <glyph glyph-name="uniE0AC" unicode="&#xe0ac;" 
d="M1024 1920q-209 0 -398.5 -81t-326.5 -218t-218 -326.5t-81 -398.5t81 -398.5t218 -326.5t326.5 -218t398.5 -81t398.5 81t326.5 218t218 326.5t81 398.5t-81 398.5t-218 326.5t-326.5 218t-398.5 81zM1104 619q-26 2 -50 10.5t-37.5 17t-38 25.5t-39.5 26
q-14 -75 -27 -126.5t-34.5 -111t-53 -103.5t-73.5 -75q-11 56 -8.5 123t8 114.5t19 107.5t25 103.5t26.5 101.5t24 101q-26 44 -25.5 105t21.5 111t64.5 76.5t96.5 5.5q37 -15 49 -47t5 -73t-22 -87t-28 -91t-16.5 -83.5t16.5 -67t66 -37.5q68 -14 125 25t87.5 110
t42.5 151.5t-5.5 157.5t-60.5 121q-52 52 -120 73.5t-135 13t-130.5 -42t-109 -84.5t-68 -121t-10.5 -145q4 -23 18 -48.5t24.5 -43t9.5 -47t-21 -65.5q-66 15 -106.5 55.5t-55 95.5t-11.5 131q4 113 65.5 208t154 149.5t196.5 66.5q130 15 244.5 -19t194 -117t95.5 -201
q14 -103 -7 -204.5t-70.5 -181t-132 -126t-182.5 -38.5z" />
    <glyph glyph-name="uniE0AD" unicode="&#xe0ad;" 
d="M1024 1920q-209 0 -398.5 -81t-326.5 -218t-218 -326.5t-81 -398.5t81 -398.5t218 -326.5t326.5 -218t398.5 -81t398.5 81t326.5 218t218 326.5t81 398.5t-81 398.5t-218 326.5t-326.5 218t-398.5 81zM738 207q-175 0 -296.5 66.5t-121.5 173.5q0 115 117.5 204.5
t284.5 89.5h70q-55 53 -55 113q0 36 21 76q-12 -1 -38 -1q-137 0 -224 86t-87 211q0 79 50.5 148.5t132.5 110t172 40.5h408l-91 -66h-130q62 -24 97 -89.5t35 -146.5q0 -122 -115 -213q-49 -39 -64 -61.5t-15 -55.5q0 -25 36 -63.5t72 -63.5q80 -56 111.5 -115.5
t31.5 -149.5q0 -118 -109 -206t-293 -88zM1792 1022h-256v-256h-128v256h-256v130h256v256h128v-256h256v-130zM866 686q-53 17 -101 17q-118 2 -207.5 -62t-89.5 -151q0 -91 77 -154.5t193 -63.5q156 0 226.5 57.5t70.5 154.5q0 19 -5 42q-4 17 -13 32.5t-17 25.5t-27.5 26
t-28.5 22.5t-38.5 26.5t-39.5 27zM936 1215q-13 103 -78.5 176.5t-144.5 75.5t-124.5 -67.5t-32.5 -172.5q14 -104 79 -179t144 -77t125 69t32 175z" />
    <glyph glyph-name="uniE0AE" unicode="&#xe0ae;" 
d="M1024 1920q-209 0 -398.5 -81t-326.5 -218t-218 -326.5t-81 -398.5t81 -398.5t218 -326.5t326.5 -218t398.5 -81t398.5 81t326.5 218t218 326.5t81 398.5t-81 398.5t-218 326.5t-326.5 218t-398.5 81zM1408 973h-307v-281q0 -118 6 -133q13 -33 47 -53q40 -24 93 -24
q49 0 82.5 9.5t78.5 38.5v-184q-65 -31 -141 -49q-63 -15 -138 -15q-69 0 -133 21q-63 21 -110 61q-45 38 -63 83t-18 129v431h-165v174q96 32 137 67q51 43 83 106q31 60 43 156h198v-307h307v-230z" />
    <glyph glyph-name="uniE0AF" unicode="&#xe0af;" 
d="M1024 1920q-209 0 -398.5 -81t-326.5 -218t-218 -326.5t-81 -398.5t81 -398.5t218 -326.5t326.5 -218t398.5 -81t398.5 81t326.5 218t218 326.5t81 398.5t-81 398.5t-218 326.5t-326.5 218t-398.5 81zM1024 1170q-38 0 -65 -27t-27 -64v-366q0 -113 -80.5 -193.5
t-193.5 -80.5t-193.5 80.5t-80.5 193.5v183h183v-183q0 -37 26.5 -64t64.5 -27t65 27t27 64v366q0 113 80.5 193.5t193.5 80.5q112 0 193 -77t81 -177v-89l-117 -34l-66 34v89q0 24 -27.5 47.5t-63.5 23.5zM1664 713q0 -113 -80.5 -193.5t-193.5 -80.5q-115 0 -195 83.5
t-80 210.5v177l66 -34l117 34v-177q0 -51 26.5 -81t65.5 -30q38 0 64.5 27t26.5 64v183h183v-183z" />
    <glyph glyph-name="uniE0B0" unicode="&#xe0b0;" 
d="M1024 1920q-209 0 -398.5 -81t-326.5 -218t-218 -326.5t-81 -398.5t81 -398.5t218 -326.5t326.5 -218t398.5 -81t398.5 81t326.5 218t218 326.5t81 398.5t-81 398.5t-218 326.5t-326.5 218t-398.5 81zM146 896q0 184 76 348l419 -1117q-223 105 -359 312t-136 457z
M1024 41q-128 0 -248 35l263 745l270 -720l6 -12q-141 -48 -291 -48zM1145 1297l100 8q22 3 30 21t-2.5 34t-32.5 15q-142 -11 -234 -11q-38 0 -96 3t-96 5l-39 3q-22 1 -32.5 -15.5t-3 -35t29.5 -19.5q45 -5 92 -8l137 -365l-192 -561l-320 926l101 8q22 3 29.5 21t-3 34
t-32.5 15q-142 -11 -234 -11q-14 0 -56 2q120 177 313.5 281t419.5 104q168 0 321 -59t272 -165h-12q-63 0 -105 -45t-42 -106q0 -13 2 -26.5t4.5 -24.5t9 -26t10.5 -23t14 -25t14 -24t16 -26.5t16 -25.5q73 -122 73 -236q0 -34 -11 -83.5t-20 -79t-36 -113.5l-88 -285z
M1902 896q0 -232 -119 -429t-318 -310l268 755q67 163 67 306q0 48 -6 88q108 -194 108 -410z" />
    <glyph glyph-name="uniE0B1" unicode="&#xe0b1;" 
d="M1024 1920q-209 0 -398.5 -81t-326.5 -218t-218 -326.5t-81 -398.5t81 -398.5t218 -326.5t326.5 -218t398.5 -81t398.5 81t326.5 218t218 326.5t81 398.5t-81 398.5t-218 326.5t-326.5 218t-398.5 81zM1664 302q0 -19 -13.5 -32.5t-32.5 -13.5h-1188q-19 0 -32.5 13.5
t-13.5 32.5v1188q0 19 13.5 32.5t32.5 13.5h1188q19 0 32.5 -13.5t13.5 -32.5v-1188zM768 896q0 -106 75 -181t181 -75t181 75t75 181t-75 181t-181 75t-181 -75t-75 -181zM1280 1408h256v-256h-256v256zM1405 896q0 -158 -111.5 -269.5t-269.5 -111.5t-269.5 111.5
t-111.5 269.5q0 17 9 64h-140v-576h1024v576h-140q9 -39 9 -64z" />
    <glyph glyph-name="uniE0B2" unicode="&#xe0b2;" 
d="M1263 819q87 -237 127 -467q111 75 184.5 189.5t95.5 249.5q-13 4 -31.5 9t-62 13t-88 12.5t-106 3.5t-119.5 -10zM1136 787q-104 -36 -194 -90.5t-143 -101.5t-97 -100.5t-57.5 -76.5t-22.5 -40q176 -138 402 -138q137 0 256 52q-43 245 -140 497q-2 0 -4 -2zM1165 1051
q15 -31 43 -95q2 -6 7 -17.5t8 -16.5q95 15 210 7.5t165.5 -15t79.5 -13.5q-1 114 -39.5 218.5t-107.5 189.5q-11 -15 -31 -36.5t-64 -61t-115.5 -83t-155.5 -77.5zM1070 889q22 7 25 8q-21 49 -53 111q-146 -44 -314 -67t-242 -25t-116 -1q0 -4 -0.5 -10.5t-0.5 -9.5
q0 -124 44.5 -236.5t124.5 -201.5q8 13 16.5 26.5t36 50.5t57 70t76 77t96 79.5t115.5 71t135 57.5zM988 1109q-101 179 -242 378q-138 -65 -235 -186t-128 -272q303 0 605 80zM1458 1385q-186 165 -434 165q-80 0 -153 -18q128 -171 244 -384q81 30 148.5 69.5t108 77
t58.5 57t28 33.5zM1024 1920q-209 0 -398.5 -81t-326.5 -218t-218 -326.5t-81 -398.5t81 -398.5t218 -326.5t326.5 -218t398.5 -81t398.5 81t326.5 218t218 326.5t81 398.5t-81 398.5t-218 326.5t-326.5 218t-398.5 81zM1024 130q-125 0 -242 38.5t-211 109.5t-165 165
t-109.5 211t-38.5 242t38.5 242t109.5 211t165 165t211 109.5t242 38.5t242 -38.5t211 -109.5t165 -165t109.5 -211t38.5 -242t-38.5 -242t-109.5 -211t-165 -165t-211 -109.5t-242 -38.5z" />
    <glyph glyph-name="uniE0B3" unicode="&#xe0b3;" 
d="M1024 1920q-209 0 -398.5 -81t-326.5 -218t-218 -326.5t-81 -398.5t81 -398.5t218 -326.5t326.5 -218t398.5 -81t398.5 81t326.5 218t218 326.5t81 398.5t-81 398.5t-218 326.5t-326.5 218t-398.5 81zM1632 1175q-20 -110 -75 -223t-121 -200.5t-142 -166.5t-132 -125.5
t-97 -73.5q-44 -26 -83.5 -26t-75 22.5t-60.5 51.5t-40 61q-20 42 -105.5 320.5t-103.5 300.5q-20 17 -50.5 7.5t-58.5 -29.5l-28 -19l-50 65q9 10 24 27t59.5 62t87 81t97.5 69t100 42q35 7 62.5 -4t45.5 -37.5t31.5 -59t23 -77t16 -83t14.5 -85t15 -75.5
q32 -131 54 -188.5t46 -57.5q25 0 71 59.5t101 161.5q26 49 27.5 95t-20 71.5t-60 30.5t-91.5 -28q23 138 141 222q100 72 208.5 66t152.5 -89q34 -66 16 -168z" />
    <glyph glyph-name="uniE0B4" unicode="&#xe0b4;" 
d="M1024 1920q-209 0 -398.5 -81t-326.5 -218t-218 -326.5t-81 -398.5t81 -398.5t218 -326.5t326.5 -218t398.5 -81t398.5 81t326.5 218t218 326.5t81 398.5t-81 398.5t-218 326.5t-326.5 218t-398.5 81zM768 400h-256v896h256v-896zM648 1351q-50 0 -85 35.5t-35 84.5
t35 84.5t85 35.5t85 -35.5t35 -84.5t-35 -84.5t-85 -35.5zM1664 400h-256v554q0 54 -21 82t-77 28q-37 0 -67 -11.5t-46 -27.5t-27 -32t-14 -27l-4 -12v-554h-256v896h256v-86q114 86 256 86q29 0 59 -7t66.5 -30t64.5 -59.5t47 -102.5t19 -151v-546z" />
    <glyph glyph-name="uniE0B5" unicode="&#xe0b5;" 
d="M1024 1920q-209 0 -398.5 -81t-326.5 -218t-218 -326.5t-81 -398.5t81 -398.5t218 -326.5t326.5 -218t398.5 -81t398.5 81t326.5 218t218 326.5t81 398.5t-81 398.5t-218 326.5t-326.5 218t-398.5 81zM552 259q-69 0 -117.5 48.5t-48.5 117.5t48.5 118t117.5 49
t118 -49.5t49 -117.5q0 -69 -49 -117.5t-118 -48.5zM971 258q0 118 -44 225.5t-127 189.5q-83 83 -190 127.5t-224 44.5v240q224 0 414.5 -111t301.5 -301.5t111 -414.5h-242zM1398 258q0 206 -80.5 393t-216 322.5t-322.5 216t-393 80.5v240q170 0 332 -45t299.5 -126
t253 -196.5t196.5 -252.5t126 -299.5t45 -332.5h-240z" />
    <glyph glyph-name="uniE0B6" unicode="&#xe0b6;" 
d="M1024 1920q-209 0 -398.5 -81t-326.5 -218t-218 -326.5t-81 -398.5t81 -398.5t218 -326.5t326.5 -218t398.5 -81t398.5 81t326.5 218t218 326.5t81 398.5t-81 398.5t-218 326.5t-326.5 218t-398.5 81zM1095 733l-162 292q98 17 183 12l92 -146l220 53q-180 175 -533 113
q-3 0 -9.5 -1.5t-9.5 -2.5l178 -331l-643 -176q-23 36 -34 69q-30 92 -8.5 179.5t88.5 162.5q80 91 213 142l-54 113q77 24 155 34l57 -105q3 1 9.5 2t9.5 1q275 42 492 -9q118 -23 218.5 -71t150.5 -106q20 -22 30 -48zM595 742l220 54l-98 205q-160 -85 -122 -259z" />
    <glyph glyph-name="uniE0B7" unicode="&#xe0b7;" 
d="M1024 1920q-209 0 -398.5 -81t-326.5 -218t-218 -326.5t-81 -398.5t81 -398.5t218 -326.5t326.5 -218t398.5 -81t398.5 81t326.5 218t218 326.5t81 398.5t-81 398.5t-218 326.5t-326.5 218t-398.5 81zM1237 664q51 38 113 38q78 0 134 -55.5t56 -133.5t-56 -133.5
t-134 -55.5t-133.5 55t-55.5 134l-482 233q-47 -30 -102 -30q-78 0 -134 55.5t-56 133.5t56 133.5t134 55.5q67 0 117 -41l467 226q0 78 55.5 133.5t133.5 55.5t133.5 -55t55.5 -134t-55.5 -134t-133.5 -55q-63 0 -114 38l-471 -228v-8z" />
    <glyph glyph-name="uniE0B8" unicode="&#xe0b8;" 
d="M1024 1920q-209 0 -398.5 -81t-326.5 -218t-218 -326.5t-81 -398.5t81 -398.5t218 -326.5t326.5 -218t398.5 -81t398.5 81t326.5 218t218 326.5t81 398.5t-81 398.5t-218 326.5t-326.5 218t-398.5 81zM1060 1409q16 37 45 66t66 45q36 16 81 16t81 -16q37 -16 66 -45
t45 -66q16 -36 16 -81q0 -46 -16 -82t-45 -65t-66 -45q-39 -17 -81 -17t-81 17q-37 16 -66 45t-45 65t-16 82q0 45 16 81zM736 1442q47 47 112 47q68 0 115 -47q46 -46 46 -112q0 -68 -47 -115q-46 -46 -114 -46q-66 0 -112 46q-47 47 -47 115q0 65 47 112zM457 1413
q35 35 86 35q52 0 86 -35q35 -37 35 -85q0 -50 -35 -87q-35 -36 -86 -36q-50 0 -86 36t-36 87q0 49 36 85zM1536 256h-563v256h-352v256h-210v233q0 30 0.5 41t6.5 30.5t20 33.5q43 43 105 43q54 0 92 -32q37 -30 51 -80q32 36 73 57q43 20 89 20q76 0 131 -45
q56 -46 74 -112q41 38 90 58q50 22 109 22q60 0 111 -22q53 -23 90 -60q39 -39 61 -90t22 -111v-498z" />
    <glyph glyph-name="uniE0B9" unicode="&#xe0b9;" 
d="M1024 1920q-209 0 -398.5 -81t-326.5 -218t-218 -326.5t-81 -398.5t81 -398.5t218 -326.5t326.5 -218t398.5 -81t398.5 81t326.5 218t218 326.5t81 398.5t-81 398.5t-218 326.5t-326.5 218t-398.5 81zM1302 290q-95 0 -178 51q-50 -9 -103 -9q-153 0 -283 75t-205.5 204
t-75.5 282q0 48 7 89q-54 84 -54 183q0 140 98.5 238.5t237.5 98.5q101 0 184 -55q41 7 91 7q153 0 283 -75t205.5 -204t75.5 -282q0 -34 -5 -76q58 -85 58 -190q0 -140 -98.5 -238.5t-237.5 -98.5zM950 1001q-84 21 -88 72q-3 44 48 77q44 29 99 28q43 -1 84.5 -22
t67.5 -46t53 -44.5t46 -17.5q30 4 50.5 29.5t14.5 66t-49 76.5q-127 110 -333 91q-98 -9 -168.5 -71t-80.5 -169q-5 -54 21.5 -99t74.5 -74.5t101.5 -48.5t110.5 -27q33 -5 62.5 -13t57.5 -21.5t43.5 -30.5t14.5 -40.5t-25 -50.5q-26 -30 -65 -41t-77 -5t-66.5 15.5
t-45.5 20.5q-12 7 -37 36t-53 49t-59 18q-35 -3 -55 -29.5t-12 -68t49 -79.5q63 -59 138 -84t202 -19q66 3 127.5 32t101.5 74t56.5 100t-8.5 111q-13 31 -32.5 56t-47 43t-52.5 31t-63.5 24.5t-64.5 18t-71.5 16.5t-69.5 16z" />
    <glyph glyph-name="uniE0BA" unicode="&#xe0ba;" 
d="M1024 1920q-209 0 -398.5 -81t-326.5 -218t-218 -326.5t-81 -398.5t81 -398.5t218 -326.5t326.5 -218t398.5 -81t398.5 81t326.5 218t218 326.5t81 398.5t-81 398.5t-218 326.5t-326.5 218t-398.5 81zM1653 667q-6 -69 -52 -134t-110 -76q-437 -33 -934 0
q-66 8 -111 73.5t-51 136.5q-11 134 -11 230t11 230q6 70 51.5 135t110.5 72q420 35 934 0q72 -3 114 -62.5t48 -133.5q11 -134 11 -235.5t-11 -235.5zM896 640l384 256l-384 256v-512z" />
    <glyph glyph-name="uniE0BB" unicode="&#xe0bb;" 
d="M1024 1920q-209 0 -398.5 -81t-326.5 -218t-218 -326.5t-81 -398.5t81 -398.5t218 -326.5t326.5 -218t398.5 -81t398.5 81t326.5 218t218 326.5t81 398.5t-81 398.5t-218 326.5t-326.5 218t-398.5 81zM1024 1664q150 0 288 -56v-535l-547 546q126 45 259 45zM278 711
q-22 87 -22 185q0 214 108.5 393.5t289.5 279.5l241 -241zM640 231q-220 127 -321 360l321 320v-680zM1024 128q-150 0 -288 56v328h953q-101 -175 -278 -279.5t-387 -104.5zM1736 608h-328v953q175 -101 279.5 -278t104.5 -387q0 -150 -56 -288z" />
    <glyph glyph-name="uniE0BC" unicode="&#xe0bc;" 
d="M1024 1920q-209 0 -398.5 -81t-326.5 -218t-218 -326.5t-81 -398.5t81 -398.5t218 -326.5t326.5 -218t398.5 -81t398.5 81t326.5 218t218 326.5t81 398.5t-81 398.5t-218 326.5t-326.5 218t-398.5 81zM1222 1409l338 -587h-394l-340 587h396zM432 725l338 587l198 -342
l-339 -587zM1419 383h-653l197 342h653z" />
    <glyph glyph-name="uniE0BD" unicode="&#xe0bd;" 
d="M1024 1920q-209 0 -398.5 -81t-326.5 -218t-218 -326.5t-81 -398.5t81 -398.5t218 -326.5t326.5 -218t398.5 -81t398.5 81t326.5 218t218 326.5t81 398.5t-81 398.5t-218 326.5t-326.5 218t-398.5 81zM647 639q-107 0 -183.5 76.5t-76.5 183.5t76.5 183.5t183.5 76.5
t183.5 -76.5t76.5 -183.5t-76.5 -183.5t-183.5 -76.5zM1404 639q-107 0 -183.5 76.5t-76.5 183.5t76.5 183.5t183.5 76.5t183 -76.5t76 -183.5t-76 -183.5t-183 -76.5z" />
    <glyph glyph-name="uniE0BE" unicode="&#xe0be;" 
d="M1263 736h-478q-33 0 -56.5 -23t-23.5 -56t23.5 -56.5t56.5 -23.5h478q33 0 56.5 23.5t23.5 56.5t-23.5 56t-56.5 23zM785 1056h239q33 0 56.5 23t23.5 56t-23.5 56.5t-56.5 23.5h-239q-33 0 -56.5 -23.5t-23.5 -56.5t23.5 -56t56.5 -23zM1024 1920q-209 0 -398.5 -81
t-326.5 -218t-218 -326.5t-81 -398.5t81 -398.5t218 -326.5t326.5 -218t398.5 -81t398.5 81t326.5 218t218 326.5t81 398.5t-81 398.5t-218 326.5t-326.5 218t-398.5 81zM1662 670q0 -171 -121 -291.5t-293 -120.5h-447q-172 0 -293.5 120.5t-121.5 291.5v452
q0 171 121.5 291.5t293.5 120.5h209q173 0 293 -114.5t120 -284.5q2 -32 27 -55.5t58 -23.5h2h70q33 0 57.5 -29.5t24.5 -64.5v-292z" />
    <glyph glyph-name="uniE0BF" unicode="&#xe0bf;" 
d="M903 1259q-174 0 -349 -43q-28 -7 -43 -35t-8 -57q7 -28 31.5 -43.5t53.5 -8.5q161 39 316 39q308 0 582 -137q14 -7 31 -7q19 0 36.5 13t26.5 33q13 26 4 53.5t-35 40.5q-304 152 -646 152zM903 664q-144 0 -279 -42q-20 -6 -31 -40t-4 -56q7 -21 26 -31.5t40 -3.5
q122 38 248 38q216 0 404 -104q12 -6 26 -6q33 0 46 27q11 18 4.5 54.5t-25.5 46.5q-212 117 -455 117zM1450 818q-257 133 -546 133q-161 0 -314 -42q-24 -6 -37 -38.5t-6 -58.5q7 -25 29 -37.5t47 -5.5q135 37 281 37q260 0 489 -119q13 -7 29 -7q25 0 54 55q12 23 4.5 47
t-30.5 36zM1024 1920q-209 0 -398.5 -81t-326.5 -218t-218 -326.5t-81 -398.5t81 -398.5t218 -326.5t326.5 -218t398.5 -81t398.5 81t326.5 218t218 326.5t81 398.5t-81 398.5t-218 326.5t-326.5 218t-398.5 81zM1024 128q-209 0 -385.5 103t-279.5 279.5t-103 385.5
t103 385.5t279.5 279.5t385.5 103t385.5 -103t279.5 -279.5t103 -385.5t-103 -385.5t-279.5 -279.5t-385.5 -103z" />
    <glyph glyph-name="uniE0C0" unicode="&#xe0c0;" 
d="M1024 1920q-209 0 -398.5 -81t-326.5 -218t-218 -326.5t-81 -398.5t81 -398.5t218 -326.5t326.5 -218t398.5 -81t398.5 81t326.5 218t218 326.5t81 398.5t-81 398.5t-218 326.5t-326.5 218t-398.5 81zM1664 895v-575v-18q0 -19 -13.5 -32.5t-32.5 -13.5h-18h-575h-577
q-26 0 -45 19t-19 45v575v577v18q0 19 13.5 32.5t32.5 13.5h18h577h575q26 0 45 -19t19 -45v-577zM512 895h513v-511h-513v511zM1025 1408h511v-513h-511v513z" />
    <glyph glyph-name="uniE0C1" unicode="&#xe0c1;" 
d="M1664 1920h-1280q-159 0 -271.5 -112.5t-112.5 -271.5v-1280q0 -159 112.5 -271.5t271.5 -112.5h1280q159 0 271.5 112.5t112.5 271.5v1280q0 159 -112.5 271.5t-271.5 112.5zM1289 896h-168v-614h-231v614h-153v212h153v125q0 141 53 209t197 68h170v-211h-106
q-55 0 -69 -19t-14 -66v-106h190z" />
    <glyph glyph-name="uniE0C2" unicode="&#xe0c2;" 
d="M1664 1920h-1280q-159 0 -271.5 -112.5t-112.5 -271.5v-1280q0 -159 112.5 -271.5t271.5 -112.5h1280q159 0 271.5 112.5t112.5 271.5v1280q0 159 -112.5 271.5t-271.5 112.5zM1533 1126q1 -11 1 -33q0 -101 -29.5 -202.5t-90 -194t-144 -164t-201 -114t-252.5 -42.5
q-211 0 -387 113q30 -3 61 -3q176 0 313 108q-82 1 -147 50t-89 125q25 -5 48 -5q34 0 66 9q-87 17 -144.5 86.5t-57.5 160.5v3q53 -30 114 -31q-52 34 -82 90t-30 120q0 69 34 126q95 -117 230 -186.5t290 -76.5q-7 32 -7 57q0 104 74 178t178 74q110 0 184 -79
q84 16 160 61q-30 -92 -110 -140q73 9 144 40q-53 -78 -126 -130z" />
    <glyph glyph-name="uniE0C3" unicode="&#xe0c3;" 
d="M1664 1920h-1280q-159 0 -271.5 -112.5t-112.5 -271.5v-1280q0 -159 112.5 -271.5t271.5 -112.5h1280q159 0 271.5 112.5t112.5 271.5v1280q0 159 -112.5 271.5t-271.5 112.5zM1104 619q-26 2 -50 10.5t-37.5 17t-38 25.5t-39.5 26q-14 -75 -27 -126.5t-34.5 -111
t-53 -103.5t-73.5 -75q-11 56 -8.5 123t8 114.5t19 107.5t25 103.5t26.5 101.5t24 101q-26 44 -25.5 105t21.5 111t64.5 76.5t96.5 5.5q37 -15 49 -47t5 -73t-22 -87t-28 -91t-16.5 -83.5t16.5 -67t66 -37.5q68 -14 125 25t87.5 110t42.5 151.5t-5.5 157.5t-60.5 121
q-52 52 -120 73.5t-135 13t-130.5 -42t-109 -84.5t-68 -121t-10.5 -145q4 -23 18 -48.5t24.5 -43t9.5 -47t-21 -65.5q-66 15 -106.5 55.5t-55 95.5t-11.5 131q4 113 65.5 208t154 149.5t196.5 66.5q130 15 244.5 -19t194 -117t95.5 -201q14 -103 -7 -204.5t-70.5 -181
t-132 -126t-182.5 -38.5z" />
    <glyph glyph-name="uniE0C4" unicode="&#xe0c4;" 
d="M1664 1920h-1280q-159 0 -271.5 -112.5t-112.5 -271.5v-1280q0 -159 112.5 -271.5t271.5 -112.5h1280q159 0 271.5 112.5t112.5 271.5v1280q0 159 -112.5 271.5t-271.5 112.5zM738 207q-175 0 -296.5 66.5t-121.5 173.5q0 115 117.5 204.5t284.5 89.5h70q-55 53 -55 113
q0 36 21 76q-12 -1 -38 -1q-137 0 -224 86t-87 211q0 79 50.5 148.5t132.5 110t172 40.5h408l-91 -66h-130q62 -24 97 -89.5t35 -146.5q0 -122 -115 -213q-49 -39 -64 -61.5t-15 -55.5q0 -25 36 -63.5t72 -63.5q80 -56 111.5 -115.5t31.5 -149.5q0 -118 -109 -206t-293 -88z
M1792 1022h-256v-256h-128v256h-256v130h256v256h128v-256h256v-130zM936 1215q-13 103 -78.5 176.5t-144.5 75.5t-124.5 -67.5t-32.5 -172.5q14 -104 79 -179t144 -77t125 69t32 175zM866 686q-53 17 -101 17q-118 2 -207.5 -62t-89.5 -151q0 -91 77 -154.5t193 -63.5
q156 0 226.5 57.5t70.5 154.5q0 19 -5 42q-4 17 -13 32.5t-17 25.5t-27.5 26t-28.5 22.5t-38.5 26.5t-39.5 27z" />
    <glyph glyph-name="uniE0C5" unicode="&#xe0c5;" 
d="M1664 1920h-1280q-159 0 -271.5 -112.5t-112.5 -271.5v-1280q0 -159 112.5 -271.5t271.5 -112.5h1280q159 0 271.5 112.5t112.5 271.5v1280q0 159 -112.5 271.5t-271.5 112.5zM1408 973h-307v-281q0 -118 6 -133q13 -33 47 -53q40 -24 93 -24q49 0 82.5 9.5t78.5 38.5
v-184q-65 -31 -141 -49q-63 -15 -138 -15q-69 0 -133 21q-63 21 -110 61q-45 38 -63 83t-18 129v431h-165v174q96 32 137 67q51 43 83 106q31 60 43 156h198v-307h307v-230z" />
    <glyph glyph-name="uniE0C6" unicode="&#xe0c6;" 
d="M1664 1920h-1280q-159 0 -271.5 -112.5t-112.5 -271.5v-1280q0 -159 112.5 -271.5t271.5 -112.5h1280q159 0 271.5 112.5t112.5 271.5v1280q0 159 -112.5 271.5t-271.5 112.5zM1024 1170q-38 0 -65 -27t-27 -64v-366q0 -113 -80.5 -193.5t-193.5 -80.5t-193.5 80.5
t-80.5 193.5v183h183v-183q0 -37 26.5 -64t64.5 -27t65 27t27 64v366q0 113 80.5 193.5t193.5 80.5q112 0 193 -77t81 -177v-89l-117 -34l-66 34v89q0 24 -27.5 47.5t-63.5 23.5zM1664 713q0 -113 -80.5 -193.5t-193.5 -80.5q-115 0 -195 83.5t-80 210.5v177l66 -34l117 34
v-177q0 -51 26.5 -81t65.5 -30q38 0 64.5 27t26.5 64v183h183v-183z" />
    <glyph glyph-name="uniE0C7" unicode="&#xe0c7;" 
d="M1664 1920h-1280q-159 0 -271.5 -112.5t-112.5 -271.5v-1280q0 -159 112.5 -271.5t271.5 -112.5h1280q159 0 271.5 112.5t112.5 271.5v1280q0 159 -112.5 271.5t-271.5 112.5zM236 896q0 165 68 312l376 -1003q-201 95 -322.5 280.5t-121.5 410.5zM1024 128
q-113 0 -223 31l247 645l232 -622q2 -4 6 -10q-129 -44 -262 -44zM1132 1256l91 7q20 2 27 18.5t-2.5 31.5t-29.5 14q-129 -10 -211 -10q-34 0 -86 2.5t-87 4.5l-34 3q-20 1 -29.5 -14.5t-2.5 -32t27 -17.5q41 -5 83 -7l122 -328l-188 -504l-271 832l90 7q20 2 27 18.5
t-2.5 31.5t-29.5 14q-128 -10 -210 -10q-33 0 -51 1q108 159 282 252.5t377 93.5q151 0 288 -53t244 -149q-1 0 -4.5 0.5t-5.5 0.5q-57 0 -94.5 -40.5t-37.5 -95.5q0 -29 13 -63.5t24 -53.5t40 -64q2 -3 9.5 -16t9.5 -16t8 -14.5t7.5 -16.5t5.5 -16t5.5 -19.5t3.5 -21
t2.5 -25.5t0.5 -29q0 -62 -53 -227q-2 -4 -2.5 -7t-2 -7t-2.5 -7l-79 -256zM1420 232l241 678q60 147 60 276q0 39 -5 79q96 -169 96 -369q0 -209 -106.5 -385.5t-285.5 -278.5z" />
    <glyph glyph-name="uniE0C8" unicode="&#xe0c8;" 
d="M1664 1920h-1280q-159 0 -271.5 -112.5t-112.5 -271.5v-1280q0 -159 112.5 -271.5t271.5 -112.5h1280q159 0 271.5 112.5t112.5 271.5v1280q0 159 -112.5 271.5t-271.5 112.5zM1664 302q0 -19 -13.5 -32.5t-32.5 -13.5h-1188q-19 0 -32.5 13.5t-13.5 32.5v1188
q0 19 13.5 32.5t32.5 13.5h1188q19 0 32.5 -13.5t13.5 -32.5v-1188zM1280 1408h256v-256h-256v256zM768 896q0 -106 75 -181t181 -75t181 75t75 181t-75 181t-181 75t-181 -75t-75 -181zM1405 896q0 -158 -111.5 -269.5t-269.5 -111.5t-269.5 111.5t-111.5 269.5q0 17 9 64
h-140v-576h1024v576h-140q9 -39 9 -64z" />
    <glyph glyph-name="uniE0C9" unicode="&#xe0c9;" 
d="M988 1109q-101 179 -242 378q-138 -65 -235 -186t-128 -272q303 0 605 80zM1664 1920h-1280q-159 0 -271.5 -112.5t-112.5 -271.5v-1280q0 -159 112.5 -271.5t271.5 -112.5h1280q159 0 271.5 112.5t112.5 271.5v1280q0 159 -112.5 271.5t-271.5 112.5zM1024 130
q-125 0 -242 38.5t-211 109.5t-165 165t-109.5 211t-38.5 242t38.5 242t109.5 211t165 165t211 109.5t242 38.5t242 -38.5t211 -109.5t165 -165t109.5 -211t38.5 -242t-38.5 -242t-109.5 -211t-165 -165t-211 -109.5t-242 -38.5zM1070 889q22 7 25 8q-21 49 -53 111
q-146 -44 -314 -67t-242 -25t-116 -1q0 -4 -0.5 -10.5t-0.5 -9.5q0 -124 44.5 -236.5t124.5 -201.5q8 13 16.5 26.5t36 50.5t57 70t76 77t96 79.5t115.5 71t135 57.5zM1165 1051q15 -31 43 -95q2 -6 7 -17.5t8 -16.5q95 15 210 7.5t165.5 -15t79.5 -13.5q-1 114 -39.5 218.5
t-107.5 189.5q-11 -15 -31 -36.5t-64 -61t-115.5 -83t-155.5 -77.5zM1136 787q-104 -36 -194 -90.5t-143 -101.5t-97 -100.5t-57.5 -76.5t-22.5 -40q176 -138 402 -138q137 0 256 52q-43 245 -140 497q-2 0 -4 -2zM1458 1385q-186 165 -434 165q-80 0 -153 -18
q128 -171 244 -384q81 30 148.5 69.5t108 77t58.5 57t28 33.5zM1263 819q87 -237 127 -467q111 75 184.5 189.5t95.5 249.5q-13 4 -31.5 9t-62 13t-88 12.5t-106 3.5t-119.5 -10z" />
    <glyph glyph-name="uniE0CA" unicode="&#xe0ca;" 
d="M1664 1920h-1280q-159 0 -271.5 -112.5t-112.5 -271.5v-1280q0 -159 112.5 -271.5t271.5 -112.5h1280q159 0 271.5 112.5t112.5 271.5v1280q0 159 -112.5 271.5t-271.5 112.5zM1632 1175q-20 -110 -75 -223t-121 -200.5t-142 -166.5t-132 -125.5t-97 -73.5
q-44 -26 -83.5 -26t-75 22.5t-60.5 51.5t-40 61q-20 42 -105.5 320.5t-103.5 300.5q-20 17 -50.5 7.5t-58.5 -29.5l-28 -19l-50 65q9 10 24 27t59.5 62t87 81t97.5 69t100 42q35 7 62.5 -4t45.5 -37.5t31.5 -59t23 -77t16 -83t14.5 -85t15 -75.5q32 -131 54 -188.5t46 -57.5
q25 0 71 59.5t101 161.5q26 49 27.5 95t-20 71.5t-60 30.5t-91.5 -28q23 138 141 222q100 72 208.5 66t152.5 -89q34 -66 16 -168z" />
    <glyph glyph-name="uniE0CB" unicode="&#xe0cb;" 
d="M1664 1920h-1280q-159 0 -271.5 -112.5t-112.5 -271.5v-1280q0 -159 112.5 -271.5t271.5 -112.5h1280q159 0 271.5 112.5t112.5 271.5v1280q0 159 -112.5 271.5t-271.5 112.5zM768 400h-256v896h256v-896zM648 1351q-50 0 -85 35.5t-35 84.5t35 84.5t85 35.5t85 -35.5
t35 -84.5t-35 -84.5t-85 -35.5zM1664 400h-256v554q0 54 -21 82t-77 28q-37 0 -67 -11.5t-46 -27.5t-27 -32t-14 -27l-4 -12v-554h-256v896h256v-86q114 86 256 86q29 0 59 -7t66.5 -30t64.5 -59.5t47 -102.5t19 -151v-546z" />
    <glyph glyph-name="uniE0CC" unicode="&#xe0cc;" 
d="M1664 1920h-1280q-159 0 -271.5 -112.5t-112.5 -271.5v-1280q0 -159 112.5 -271.5t271.5 -112.5h1280q159 0 271.5 112.5t112.5 271.5v1280q0 159 -112.5 271.5t-271.5 112.5zM552 259q-69 0 -117.5 48.5t-48.5 117.5t48.5 118t117.5 49t118 -49.5t49 -117.5
q0 -69 -49 -117.5t-118 -48.5zM971 258q0 118 -44 225.5t-127 189.5q-83 83 -190 127.5t-224 44.5v240q224 0 414.5 -111t301.5 -301.5t111 -414.5h-242zM1398 258q0 206 -80.5 393t-216 322.5t-322.5 216t-393 80.5v240q170 0 332 -45t299.5 -126t253 -196.5t196.5 -252.5
t126 -299.5t45 -332.5h-240z" />
    <glyph glyph-name="uniE0CD" unicode="&#xe0cd;" 
d="M1664 1920h-1280q-159 0 -271.5 -112.5t-112.5 -271.5v-1280q0 -159 112.5 -271.5t271.5 -112.5h1280q159 0 271.5 112.5t112.5 271.5v1280q0 159 -112.5 271.5t-271.5 112.5zM1095 733l-162 292q98 17 183 12l92 -146l220 53q-180 175 -533 113q-3 0 -9.5 -1.5
t-9.5 -2.5l178 -331l-643 -176q-23 36 -34 69q-30 92 -8.5 179.5t88.5 162.5q80 91 213 142l-54 113q77 24 155 34l57 -105q3 1 9.5 2t9.5 1q275 42 492 -9q118 -23 218.5 -71t150.5 -106q20 -22 30 -48zM595 742l220 54l-98 205q-160 -85 -122 -259z" />
    <glyph glyph-name="uniE0CE" unicode="&#xe0ce;" 
d="M1664 1920h-1280q-159 0 -271.5 -112.5t-112.5 -271.5v-1280q0 -159 112.5 -271.5t271.5 -112.5h1280q159 0 271.5 112.5t112.5 271.5v1280q0 159 -112.5 271.5t-271.5 112.5zM1237 664q51 38 113 38q78 0 134 -55.5t56 -133.5t-56 -133.5t-134 -55.5t-133.5 55
t-55.5 134l-482 233q-47 -30 -102 -30q-78 0 -134 55.5t-56 133.5t56 133.5t134 55.5q67 0 117 -41l467 226q0 78 55.5 133.5t133.5 55.5t133.5 -55t55.5 -134t-55.5 -134t-133.5 -55q-63 0 -114 38l-471 -228v-8z" />
    <glyph glyph-name="uniE0CF" unicode="&#xe0cf;" 
d="M1664 1920h-1280q-159 0 -271.5 -112.5t-112.5 -271.5v-1280q0 -159 112.5 -271.5t271.5 -112.5h1280q159 0 271.5 112.5t112.5 271.5v1280q0 159 -112.5 271.5t-271.5 112.5zM1060 1409q16 37 45 66t66 45q36 16 81 16t81 -16q37 -16 66 -45t45 -66q16 -36 16 -81
q0 -46 -16 -82t-45 -65t-66 -45q-39 -17 -81 -17t-81 17q-37 16 -66 45t-45 65t-16 82q0 45 16 81zM736 1442q47 47 112 47q68 0 115 -47q46 -46 46 -112q0 -68 -47 -115q-46 -46 -114 -46q-66 0 -112 46q-47 47 -47 115q0 65 47 112zM457 1413q35 35 86 35q52 0 86 -35
q35 -37 35 -85q0 -50 -35 -87q-35 -36 -86 -36q-50 0 -86 36t-36 87q0 49 36 85zM1536 256h-563v256h-352v256h-210v233q0 30 0.5 41t6.5 30.5t20 33.5q43 43 105 43q54 0 92 -32q37 -30 51 -80q32 36 73 57q43 20 89 20q76 0 131 -45q56 -46 74 -112q41 38 90 58
q50 22 109 22q60 0 111 -22q53 -23 90 -60q39 -39 61 -90t22 -111v-498z" />
    <glyph glyph-name="uniE0D0" unicode="&#xe0d0;" 
d="M1664 1920h-1280q-159 0 -271.5 -112.5t-112.5 -271.5v-1280q0 -159 112.5 -271.5t271.5 -112.5h1280q159 0 271.5 112.5t112.5 271.5v1280q0 159 -112.5 271.5t-271.5 112.5zM1302 290q-95 0 -178 51q-50 -9 -103 -9q-153 0 -283 75t-205.5 204t-75.5 282q0 48 7 89
q-54 84 -54 183q0 140 98.5 238.5t237.5 98.5q101 0 184 -55q41 7 91 7q153 0 283 -75t205.5 -204t75.5 -282q0 -34 -5 -76q58 -85 58 -190q0 -140 -98.5 -238.5t-237.5 -98.5zM950 1001q-84 21 -88 72q-3 44 48 77q44 29 99 28q43 -1 84.5 -22t67.5 -46t53 -44.5t46 -17.5
q30 4 50.5 29.5t14.5 66t-49 76.5q-127 110 -333 91q-98 -9 -168.5 -71t-80.5 -169q-5 -54 21.5 -99t74.5 -74.5t101.5 -48.5t110.5 -27q33 -5 62.5 -13t57.5 -21.5t43.5 -30.5t14.5 -40.5t-25 -50.5q-26 -30 -65 -41t-77 -5t-66.5 15.5t-45.5 20.5q-12 7 -37 36t-53 49
t-59 18q-35 -3 -55 -29.5t-12 -68t49 -79.5q63 -59 138 -84t202 -19q66 3 127.5 32t101.5 74t56.5 100t-8.5 111q-13 31 -32.5 56t-47 43t-52.5 31t-63.5 24.5t-64.5 18t-71.5 16.5t-69.5 16z" />
    <glyph glyph-name="uniE0D1" unicode="&#xe0d1;" 
d="M896 640l384 256l-384 256v-512zM1664 1920h-1280q-159 0 -271.5 -112.5t-112.5 -271.5v-1280q0 -159 112.5 -271.5t271.5 -112.5h1280q159 0 271.5 112.5t112.5 271.5v1280q0 159 -112.5 271.5t-271.5 112.5zM1653 667q-6 -69 -52 -134t-110 -76q-437 -33 -934 0
q-66 8 -111 73.5t-51 136.5q-11 134 -11 230t11 230q6 70 51.5 135t110.5 72q420 35 934 0q72 -3 114 -62.5t48 -133.5q11 -134 11 -235.5t-11 -235.5z" />
    <glyph glyph-name="uniE0D2" unicode="&#xe0d2;" 
d="M1664 1920h-1280q-159 0 -271.5 -112.5t-112.5 -271.5v-1280q0 -159 112.5 -271.5t271.5 -112.5h1280q159 0 271.5 112.5t112.5 271.5v1280q0 159 -112.5 271.5t-271.5 112.5zM1024 1664q150 0 288 -56v-535l-547 546q126 45 259 45zM256 896q0 214 108.5 393.5
t289.5 279.5l241 -241l-617 -617q-22 87 -22 185zM640 231q-220 127 -321 360l321 320v-680zM1024 128q-150 0 -288 56v328h953q-101 -175 -278 -279.5t-387 -104.5zM1736 608h-328v953q175 -101 279.5 -278t104.5 -387q0 -150 -56 -288z" />
    <glyph glyph-name="uniE0D3" unicode="&#xe0d3;" 
d="M1664 1920h-1280q-159 0 -271.5 -112.5t-112.5 -271.5v-1280q0 -159 112.5 -271.5t271.5 -112.5h1280q159 0 271.5 112.5t112.5 271.5v1280q0 159 -112.5 271.5t-271.5 112.5zM1222 1409l338 -587h-394l-340 587h396zM432 725l338 587l198 -342l-339 -587zM1419 383h-653
l197 342h653z" />
    <glyph glyph-name="uniE0D4" unicode="&#xe0d4;" 
d="M1664 1920h-1280q-159 0 -271.5 -112.5t-112.5 -271.5v-1280q0 -159 112.5 -271.5t271.5 -112.5h1280q159 0 271.5 112.5t112.5 271.5v1280q0 159 -112.5 271.5t-271.5 112.5zM647 639q-107 0 -183.5 76.5t-76.5 183.5t76.5 183.5t183.5 76.5t183.5 -76.5t76.5 -183.5
t-76.5 -183.5t-183.5 -76.5zM1404 639q-107 0 -183.5 76.5t-76.5 183.5t76.5 183.5t183.5 76.5t183 -76.5t76 -183.5t-76 -183.5t-183 -76.5z" />
    <glyph glyph-name="uniE0D5" unicode="&#xe0d5;" 
d="M1664 1920h-1280q-159 0 -271.5 -112.5t-112.5 -271.5v-1280q0 -159 112.5 -271.5t271.5 -112.5h1280q159 0 271.5 112.5t112.5 271.5v1280q0 159 -112.5 271.5t-271.5 112.5zM1662 670q0 -171 -121 -291.5t-293 -120.5h-447q-172 0 -293.5 120.5t-121.5 291.5v452
q0 171 121.5 291.5t293.5 120.5h209q173 0 293 -114.5t120 -284.5q2 -32 27 -55.5t58 -23.5h2h70q33 0 57.5 -29.5t24.5 -64.5v-292zM1263 736h-478q-33 0 -56.5 -23t-23.5 -56t23.5 -56.5t56.5 -23.5h478q33 0 56.5 23.5t23.5 56.5t-23.5 56t-56.5 23zM785 1056h239
q33 0 56.5 23t23.5 56t-23.5 56.5t-56.5 23.5h-239q-33 0 -56.5 -23.5t-23.5 -56.5t23.5 -56t56.5 -23z" />
    <glyph glyph-name="uniE0D6" unicode="&#xe0d6;" 
d="M1450 818q-257 133 -546 133q-161 0 -314 -42q-24 -6 -37 -38.5t-6 -58.5q7 -25 29 -37.5t47 -5.5q135 37 281 37q260 0 489 -119q13 -7 29 -7q25 0 54 55q12 23 4.5 47t-30.5 36zM1664 1920h-1280q-159 0 -271.5 -112.5t-112.5 -271.5v-1280q0 -159 112.5 -271.5
t271.5 -112.5h1280q159 0 271.5 112.5t112.5 271.5v1280q0 159 -112.5 271.5t-271.5 112.5zM1024 128q-209 0 -385.5 103t-279.5 279.5t-103 385.5t103 385.5t279.5 279.5t385.5 103t385.5 -103t279.5 -279.5t103 -385.5t-103 -385.5t-279.5 -279.5t-385.5 -103zM903 1259
q-174 0 -349 -43q-28 -7 -43 -35t-8 -57q7 -28 31.5 -43.5t53.5 -8.5q161 39 316 39q308 0 582 -137q14 -7 31 -7q19 0 36.5 13t26.5 33q13 26 4 53.5t-35 40.5q-304 152 -646 152zM903 664q-144 0 -279 -42q-20 -6 -31 -40t-4 -56q7 -21 26 -31.5t40 -3.5q122 38 248 38
q216 0 404 -104q12 -6 26 -6q33 0 46 27q11 18 4.5 54.5t-25.5 46.5q-212 117 -455 117z" />
    <glyph glyph-name="uniE0D7" unicode="&#xe0d7;" 
d="M1025 1408h511v-513h-511v513zM1664 1920h-1280q-159 0 -271.5 -112.5t-112.5 -271.5v-1280q0 -159 112.5 -271.5t271.5 -112.5h1280q159 0 271.5 112.5t112.5 271.5v1280q0 159 -112.5 271.5t-271.5 112.5zM1664 895v-575v-18q0 -19 -13.5 -32.5t-32.5 -13.5h-18h-575
h-577q-26 0 -45 19t-19 45v575v577v18q0 19 13.5 32.5t32.5 13.5h18h577h575q26 0 45 -19t19 -45v-577zM512 895h513v-511h-513v511z" />
    <glyph glyph-name="uniE0D8" unicode="&#xe0d8;" 
d="M1408 384v384q0 53 37.5 90.5t90.5 37.5h384v256q0 53 -37.5 90.5t-90.5 37.5h-147l-62 371q-5 26 -27 42q-21 15 -48 10l-1264 -232q-25 -4 -41 -27q-15 -21 -10 -49l23 -115h-88q-53 0 -90.5 -37.5t-37.5 -90.5v-1152q0 -53 37.5 -90.5t90.5 -37.5h1664q53 0 90.5 37.5
t37.5 90.5v256h-384q-53 0 -90.5 37.5t-37.5 90.5zM331 1357l1136 209l48 -286h-1168zM1984 768h-448v-384h448q26 0 45 19t19 45v256q0 26 -19 45t-45 19zM1728 512q-26 0 -45 19t-19 45t19 45t45 19t45 -19t19 -45t-19 -45t-45 -19z" />
    <glyph glyph-name="uniE0D9" unicode="&#xe0d9;" 
d="M989 -123q20 -5 35 -5t35 5q128 37 239.5 95.5t194.5 129.5t151.5 156.5t115.5 174t81 184.5t53 187t27.5 181t7.5 166.5t-10 144.5q-6 48 -42 80t-85 32q-9 1 -20.5 4t-32 19t-36 41t-27.5 75.5t-12 116.5q0 53 -38 91q-13 13 -33 28t-71.5 41.5t-114 46t-164.5 34.5
t-219 15t-219 -15t-164.5 -34.5t-114 -46t-71.5 -41.5t-33 -28q-38 -38 -38 -91q0 -67 -12 -117t-27.5 -75t-37 -40.5t-33 -19t-22.5 -4.5q-48 0 -82.5 -32t-40.5 -80q-9 -68 -10 -144.5t7.5 -166.5t27.5 -181t53 -187t81 -184.5t115.5 -174t151.5 -156.5t194.5 -129.5
t239.5 -95.5zM256 1280q5 0 14.5 1t36 8.5t50.5 20.5t53.5 42t51 68t36 102.5t14.5 141.5q5 5 16 13.5t54 31t96 39t145.5 30.5t200.5 14v-896h754q-11 -73 -29 -142.5t-49 -148t-71.5 -148.5t-99.5 -140.5t-130.5 -128t-167.5 -107t-207 -81.5v896h-754q-15 96 -18.5 192
t0.5 144z" />
    <glyph glyph-name="uniE0DA" unicode="&#xe0da;" 
d="M640 1220q0 -28 20 -48t48 -20t48 20t20 48t-20 48t-48 20t-48 -20t-20 -48zM1024 1920q-209 0 -398.5 -81t-326.5 -218t-218 -326.5t-81 -398.5t81 -398.5t218 -326.5t326.5 -218t398.5 -81t398.5 81t326.5 218t218 326.5t81 398.5t-81 398.5t-218 326.5t-326.5 218
t-398.5 81zM512 1220q0 81 57.5 138.5t138.5 57.5t138.5 -57.5t57.5 -138.5t-57.5 -138.5t-138.5 -57.5t-138.5 57.5t-57.5 138.5zM685 467q-21 -19 -45 -19t-45 19q-19 19 -19 45t19 45l768 768q19 19 45 19t45 -19t19 -45t-19 -45zM1340 384q-81 0 -138.5 57.5
t-57.5 138.5t57.5 138.5t138.5 57.5t138.5 -57.5t57.5 -138.5t-57.5 -138.5t-138.5 -57.5zM1272 580q0 -28 20 -48t48 -20t48 20t20 48t-20 48t-48 20t-48 -20t-20 -48z" />
    <glyph glyph-name="uniE0DB" unicode="&#xe0db;" 
d="M256 1664v-128v-1024l19 -47l237 -593l256 640h-1l1 2v1022v128q0 106 -75 181t-181 75t-181 -75t-75 -181zM384 1664q0 53 37.5 90.5t90.5 37.5t90.5 -37.5t37.5 -90.5v-128h-256v128zM512 217l-66 164l-26 64l-1 5l93 47l93 -47l-1 -5l-26 -64zM1612 1539l-121 309h-1
q-5 31 -28 51.5t-54 20.5t-54.5 -20.5t-28.5 -51.5h-1l-120 -309l-52 -131v-1280q0 -106 75 -181t181 -75t181 75t75 181q53 0 90.5 37.5t37.5 90.5v384q0 53 -37.5 90.5t-90.5 37.5v640zM1493 1491l33 -83h-236l33 83l18 45l67 167l67 -167z" />
    <glyph glyph-name="uniE0DC" unicode="&#xe0dc;" 
d="M1657 1280q5 64 7 123q2 55 -36 94q-37 39 -92 39h-1408q-55 0 -92 -39q-38 -39 -36 -94q3 -80 10 -175.5t28.5 -269.5t51.5 -317t85 -281t124 -199q36 -33 85 -33h896q49 0 85 33q104 93 177 352h112q166 0 280 108.5t114 275.5q0 87 -29 156.5t-72 110.5t-98 68
t-102 37.5t-90 10.5zM1654 705h-41h-27q34 178 55 383h13q16 0 34.5 -2t50.5 -13t56 -29.5t42.5 -57t18.5 -89.5q0 -92 -61 -142t-141 -50z" />
    <glyph glyph-name="uniE0DD" unicode="&#xe0dd;" 
d="M1734 1280h-580v350q7 124 -27.5 207t-104.5 83q-47 0 -81 -14t-49.5 -34t-24 -40t-9.5 -34v-14q-6 -98 -35.5 -186t-71.5 -150.5t-92 -114.5t-98 -84.5t-88 -55t-65 -31.5l-24 -10v-1024l59 -8q97 0 164 -13.5t105.5 -35.5t71.5 -48.5t78 -53t109.5 -48.5t181.5 -35.5
t279 -13.5q125 0 224 32.5t162.5 80t109 127.5t68.5 148.5t35.5 172.5t14.5 169t2 166q0 105 -18.5 192.5t-49.5 145.5t-72 98t-84.5 58t-89.5 18zM128 0q53 0 90.5 37.5t37.5 90.5v1020q0 53 -37.5 90.5t-90.5 37.5t-90.5 -37.5t-37.5 -90.5v-1020q0 -53 37.5 -90.5
t90.5 -37.5z" />
    <glyph glyph-name="uniE0DE" unicode="&#xe0de;" 
d="M1928 535q-172 -171 -402 -232t-460.5 -0.5t-402.5 232.5q-127 127 -194 290t-67 342t67.5 342.5t193.5 289.5q19 19 19 45.5t-19 45.5t-45 19t-45 -19q-145 -145 -222 -331.5t-77 -391.5t77 -391t222 -331q240 -240 579 -288v-157h-192q-26 0 -45 -19t-19 -45t19 -45
t45 -19h512q26 0 45 19t19 45t-19 45t-45 19h-192v146h15q200 0 388 76t335 223q19 19 19 45t-19 45t-45 19t-45 -19zM543 1167q0 -153 59.5 -292t160.5 -240t240 -160.5t292 -59.5t292.5 59.5t240 160.5t160.5 240t60 292t-60 292.5t-160.5 240t-240 160.5t-292.5 60
t-292 -60t-240 -160.5t-160.5 -240t-59.5 -292.5z" />
    <glyph glyph-name="uniE0DF" unicode="&#xe0df;" 
d="M1920 640v256q0 53 -37.5 90.5t-90.5 37.5h-640v256h384q53 0 90.5 37.5t37.5 90.5v128q0 53 -37.5 90.5t-90.5 37.5h-896q-53 0 -90.5 -37.5t-37.5 -90.5v-128q0 -53 37.5 -90.5t90.5 -37.5h384v-256h-640q-53 0 -90.5 -37.5t-37.5 -90.5v-256q-53 0 -90.5 -37.5
t-37.5 -90.5v-256q0 -53 37.5 -90.5t90.5 -37.5h128q53 0 90.5 37.5t37.5 90.5v128v128q0 53 -37.5 90.5t-90.5 37.5v256h640v-256q-53 0 -90.5 -37.5t-37.5 -90.5v-128v-128q0 -53 37.5 -90.5t90.5 -37.5h128q53 0 90.5 37.5t37.5 90.5v128v128q0 53 -37.5 90.5t-90.5 37.5
v256h640v-256q-53 0 -90.5 -37.5t-37.5 -90.5v-128v-128q0 -53 37.5 -90.5t90.5 -37.5h128q53 0 90.5 37.5t37.5 90.5v256q0 53 -37.5 90.5t-90.5 37.5z" />
    <glyph glyph-name="uniE0E0" unicode="&#xe0e0;" 
d="M1920 1536h-1792q-53 0 -90.5 -37.5t-37.5 -90.5v-1152q0 -53 37.5 -90.5t90.5 -37.5h1792q53 0 90.5 37.5t37.5 90.5v1152q0 53 -37.5 90.5t-90.5 37.5zM1739 768h-779q-26 0 -45 19t-19 45t19 45t45 19h779q26 0 45 -19t19 -45t-19 -45t-45 -19zM1803 576
q0 -26 -19 -45t-45 -19h-779q-26 0 -45 19t-19 45t19 45t45 19h779q26 0 45 -19t19 -45zM1739 1024h-779q-26 0 -45 19t-19 45t19 45t45 19h779q26 0 45 -19t19 -45t-19 -45t-45 -19zM515 909q105 0 179 -99.5t74 -239.5q0 -45 -37.5 -77.5t-93.5 -47.5t-122 -15t-122 15
t-93.5 47.5t-37.5 77.5q0 140 74 239.5t179 99.5zM357 1125q0 64 45.5 109.5t109.5 45.5t109 -45.5t45 -109.5t-45 -109t-109 -45t-109.5 45t-45.5 109z" />
    <glyph glyph-name="uniE0E1" unicode="&#xe0e1;" 
d="M1664 1238v554h63q27 0 46 19t19 45t-19 45t-46 19h-1278q-27 0 -46 -19t-19 -45t19 -45t46 -19h63v-554q0 -57 43 -95l277 -247l-277 -247q-43 -38 -43 -95v-554h-63q-27 0 -46 -19t-19 -45t19 -45t46 -19h1278q27 0 46 19t19 45t-19 45t-46 19h-63v554q0 57 -43 95
l-277 247l277 247q43 38 43 95zM1536 1238l-384 -342l384 -342v-554h-896v554l384 342l-384 342v554h896v-554zM1408 1424v112h-640v-112l320 -286zM768 368v-240h640v240l-162 144h-316z" />
    <glyph glyph-name="uniE0E2" unicode="&#xe0e2;" 
d="M1928 535q-172 -171 -402 -232t-460.5 -0.5t-402.5 232.5q-127 127 -194 290t-67 342t67.5 342.5t193.5 289.5q19 19 19 45.5t-19 45.5t-45 19t-45 -19q-145 -145 -222 -331.5t-77 -391.5t77 -391t222 -331q240 -240 579 -288v-157h-192q-26 0 -45 -19t-19 -45t19 -45
t45 -19h512q26 0 45 19t19 45t-19 45t-45 19h-192v146h15q200 0 388 76t335 223q19 19 19 45t-19 45t-45 19t-45 -19zM1295 1920q-153 0 -292.5 -59.5t-240 -160.5t-160 -240.5t-59.5 -292.5t59.5 -292.5t160 -240t240 -160t292.5 -59.5t292.5 59.5t240.5 160t160.5 240
t59.5 292.5t-59.5 292.5t-160.5 240.5t-240.5 160.5t-292.5 59.5zM1295 543q-127 0 -242.5 49.5t-199 133t-133 199t-49.5 242.5q0 169 83.5 313t227.5 228t313 84t313 -84t228 -228t84 -313t-84 -313t-228 -227.5t-313 -83.5z" />
    <glyph glyph-name="uniE0E3" unicode="&#xe0e3;" 
d="M1088 1792q-195 0 -373 -76t-306.5 -204.5t-204.5 -306.5t-76 -373t76 -373t204.5 -306.5t306.5 -204.5t373 -76t373 76t306.5 204.5t204.5 306.5t76 373t-76 373t-204.5 306.5t-306.5 204.5t-373 76zM1788 1280h-191q-55 175 -149 301q212 -102 340 -301zM1152 1280v374
q92 -27 174.5 -125t136.5 -249h-311zM1501 1152q27 -117 33 -256h-382v256h349zM1024 1654v-374h-311q54 151 136.5 249t174.5 125zM1024 1152v-256h-382q6 139 33 256h349zM514 896h-255q10 133 61 256h225q-25 -118 -31 -256zM514 768q6 -138 31 -256h-225
q-51 123 -61 256h255zM642 768h382v-256h-349q-27 117 -33 256zM1024 384v-374q-92 27 -174.5 125t-136.5 249h311zM1152 10v374h311q-54 -151 -136.5 -249t-174.5 -125zM1152 512v256h382q-6 -139 -33 -256h-349zM1662 768h255q-10 -133 -61 -256h-225q25 118 31 256z
M1662 896q-6 138 -31 256h225q51 -123 61 -256h-255zM728 1581q-94 -126 -149 -301h-191q128 199 340 301zM388 384h191q55 -175 149 -301q-212 102 -340 301zM1448 83q94 126 149 301h191q-128 -199 -340 -301z" />
    <glyph glyph-name="uniE0E4" unicode="&#xe0e4;" 
d="M1536 1920h-1024h-384q-53 0 -90.5 -37.5t-37.5 -90.5v-1792q0 -53 37.5 -90.5t90.5 -37.5h1792q53 0 90.5 37.5t37.5 90.5v1536l-384 384h-128zM1408 1280v512h128v-512q0 -53 -37.5 -90.5t-90.5 -37.5h-768q-53 0 -90.5 37.5t-37.5 90.5v512h512v-512h384zM384 768
q0 53 37.5 90.5t90.5 37.5h1024q53 0 90.5 -37.5t37.5 -90.5v-768h-1280v768z" />
    <glyph glyph-name="uniE0E5" unicode="&#xe0e5;" 
d="M256 -128h1536q106 0 181 75t75 181v128q0 3 -1 8.5t-1 8.5q0 4 1 10.5t1 9.5l-128 1371q-6 98 -80 177t-176 79h-1280q-102 0 -176 -79t-80 -177l-128 -1371q0 -3 1 -9.5t1 -9.5t-1 -9t-1 -9v-128q0 -106 75 -181t181 -75zM128 128v128q0 53 37.5 90.5t90.5 37.5h1536
q53 0 90.5 -37.5t37.5 -90.5v-128q0 -53 -37.5 -90.5t-90.5 -37.5h-1536q-53 0 -90.5 37.5t-37.5 90.5zM1664 192q0 -26 19 -45t45 -19t45 19t19 45t-19 45t-45 19t-45 -19t-19 -45zM1421 195q0 -26 19 -45t45 -19t45 19t19 45t-19 45t-45 19t-45 -19t-19 -45zM320 128h896
q26 0 45 19t19 45t-19 45t-45 19h-896q-26 0 -45 -19t-19 -45t19 -45t45 -19z" />
    <glyph glyph-name="uniE0E6" unicode="&#xe0e6;" 
d="M1664 1792h-384q0 53 -37.5 90.5t-90.5 37.5h-256q-53 0 -90.5 -37.5t-37.5 -90.5h-384q-53 0 -90.5 -37.5t-37.5 -90.5v-1664q0 -53 37.5 -90.5t90.5 -37.5h1280q53 0 90.5 37.5t37.5 90.5v1664q0 53 -37.5 90.5t-90.5 37.5zM1664 128h-1280v1536h256q0 -53 37.5 -90.5
t90.5 -37.5h128h256h128q53 0 90.5 37.5t37.5 90.5h256v-1536zM512 1216q0 -26 19 -45t45 -19h896q26 0 45 19t19 45t-19 45t-45 19h-896q-26 0 -45 -19t-19 -45zM1472 896h-896q-26 0 -45 -19t-19 -45t19 -45t45 -19h896q26 0 45 19t19 45t-19 45t-45 19zM1472 512h-896
q-26 0 -45 -19t-19 -45t19 -45t45 -19h896q26 0 45 19t19 45t-19 45t-45 19z" />
    <glyph glyph-name="uniE0E7" unicode="&#xe0e7;" 
d="M384 -128h1280q53 0 90.5 37.5t37.5 90.5v1792q0 53 -37.5 90.5t-90.5 37.5h-1280q-53 0 -90.5 -37.5t-37.5 -90.5v-1792q0 -53 37.5 -90.5t90.5 -37.5zM1408 512q-53 0 -90.5 37.5t-37.5 90.5t37.5 90.5t90.5 37.5t90.5 -37.5t37.5 -90.5t-37.5 -90.5t-90.5 -37.5z
M1536 256q0 -53 -37.5 -90.5t-90.5 -37.5t-90.5 37.5t-37.5 90.5t37.5 90.5t90.5 37.5t90.5 -37.5t37.5 -90.5zM1408 896q-53 0 -90.5 37.5t-37.5 90.5t37.5 90.5t90.5 37.5t90.5 -37.5t37.5 -90.5t-37.5 -90.5t-90.5 -37.5zM512 1408v256h1024v-256h-1024zM1024 512
q-53 0 -90.5 37.5t-37.5 90.5t37.5 90.5t90.5 37.5t90.5 -37.5t37.5 -90.5t-37.5 -90.5t-90.5 -37.5zM1152 256q0 -53 -37.5 -90.5t-90.5 -37.5t-90.5 37.5t-37.5 90.5t37.5 90.5t90.5 37.5t90.5 -37.5t37.5 -90.5zM1024 896q-53 0 -90.5 37.5t-37.5 90.5t37.5 90.5
t90.5 37.5t90.5 -37.5t37.5 -90.5t-37.5 -90.5t-90.5 -37.5zM640 1152q53 0 90.5 -37.5t37.5 -90.5t-37.5 -90.5t-90.5 -37.5t-90.5 37.5t-37.5 90.5t37.5 90.5t90.5 37.5zM640 768q53 0 90.5 -37.5t37.5 -90.5t-37.5 -90.5t-90.5 -37.5t-90.5 37.5t-37.5 90.5t37.5 90.5
t90.5 37.5zM640 384q53 0 90.5 -37.5t37.5 -90.5t-37.5 -90.5t-90.5 -37.5t-90.5 37.5t-37.5 90.5t37.5 90.5t90.5 37.5z" />
    <glyph glyph-name="uniE0E8" unicode="&#xe0e8;" 
d="M1536 1920h-256h-768h-384q-53 0 -90.5 -37.5t-37.5 -90.5v-1792q0 -53 37.5 -90.5t90.5 -37.5h1792q53 0 90.5 37.5t37.5 90.5v1536l-384 384h-128zM1536 1792v-512h-256v512h256zM1152 1792v-512h-640v512h640zM512 0v768h1024v-768h-1024zM1920 0h-256v768
q0 53 -37.5 90.5t-90.5 37.5h-1024q-53 0 -90.5 -37.5t-37.5 -90.5v-768h-256v1792h256v-512q0 -53 37.5 -90.5t90.5 -37.5h768h256q53 0 90.5 37.5t37.5 90.5v459l256 -256v-1483z" />
    <glyph glyph-name="uniE0E9" unicode="&#xe0e9;" 
d="M578 864q30 0 50 25l282 363l193 -227q17 -20 49 -23q31 0 49 23l448 534q17 20 14.5 46.5t-22.5 43.5t-46.5 14.5t-43.5 -22.5l-399 -476l-195 230q-17 20 -50 22q-31 -2 -50 -25l-330 -425q-16 -21 -12.5 -47t24.5 -43q17 -13 39 -13zM1983 1920h-191h-1408h-191
q-27 0 -46 -19t-19 -45t19 -45t46 -19h63v-1152q0 -53 37.5 -90.5t90.5 -37.5h640v-200l-363 -329q-20 -18 -21 -44t17 -46t44 -21t46 17l277 251v-204q0 -26 19 -45t45 -19t45 19t19 45v204l277 -251q19 -17 43 -17q28 0 47 21q18 20 17 46t-21 44l-363 329v200h640
q53 0 90.5 37.5t37.5 90.5v1152h63q27 0 46 19t19 45t-19 45t-46 19zM1792 640h-1408v1152h1408v-1152z" />
    <glyph glyph-name="uniE0EA" unicode="&#xe0ea;" 
d="M1920 1664q-6 98 -80 177t-176 79h-1280q-102 0 -176 -79t-80 -177l-128 -1371q0 -3 1 -9.5t1 -9.5t-1 -9t-1 -9v-128q0 -106 75 -181t181 -75h1536q106 0 181 75t75 181v128q0 3 -1 8.5t-1 8.5q0 4 1 10.5t1 9.5zM128 128v128q0 53 37.5 90.5t90.5 37.5h1536
q53 0 90.5 -37.5t37.5 -90.5v-128q0 -53 -37.5 -90.5t-90.5 -37.5h-1536q-53 0 -90.5 37.5t-37.5 90.5zM256 1656q3 50 41.5 93t86.5 43h1280q49 0 87.5 -44t41.5 -96l108 -1165q-52 25 -109 25h-1536q-57 0 -109 -25zM1664 192q0 -26 19 -45t45 -19t45 19t19 45t-19 45
t-45 19t-45 -19t-19 -45zM1408 192q0 -26 19 -45t45 -19t45 19t19 45t-19 45t-45 19t-45 -19t-19 -45zM320 128h896q26 0 45 19t19 45t-19 45t-45 19h-896q-26 0 -45 -19t-19 -45t19 -45t45 -19z" />
    <glyph glyph-name="uniE0EB" unicode="&#xe0eb;" 
d="M314 512h582v-332q-3 -147 39 -227.5t149 -80.5q46 0 83 14t57 34t33.5 40t18.5 34l4 14q6 98 37.5 186t77 150.5t99.5 114.5t106.5 84.5t95.5 55t70 31.5l26 10v1024l-187 8q-97 0 -164 13.5t-105.5 35.5t-71.5 48.5t-78 53t-109.5 48.5t-181.5 35.5t-279 13.5
q-125 0 -224 -32.5t-162.5 -80t-109 -127.5t-68.5 -148.5t-35.5 -172.5t-14.5 -169t-2 -166q0 -105 18.5 -192.5t49.5 -145.5t72 -98t84.5 -58t89.5 -18zM616 1792q116 0 207 -8t144 -17.5t99 -29t65 -31.5t50 -35q41 -31 74.5 -51t82.5 -39t113.5 -28t147.5 -9l65 -3v-815
q-57 -27 -112 -60.5t-126.5 -95.5t-125 -134t-95.5 -178.5t-52 -225.5q-16 -32 -69 -32q-24 0 -32 8q-31 31 -28 172v332v128h-128h-582q-75 0 -130.5 102.5t-55.5 281.5q0 113 5.5 200t19.5 169.5t38 142.5t61 110t88 81t120 48t156 17zM1984 1792q-26 0 -45 -19t-19 -45
v-1147q0 -26 19 -45t45 -19t45 19t19 45v1147q0 26 -19 45t-45 19z" />
    <glyph glyph-name="uniE0EC" unicode="&#xe0ec;" 
d="M128 0q0 -53 37.5 -90.5t90.5 -37.5h1536q53 0 90.5 37.5t37.5 90.5v1792q0 53 -37.5 90.5t-90.5 37.5h-1536q-53 0 -90.5 -37.5t-37.5 -90.5v-1792zM256 1792h1536v-1792h-1536v1792zM512 768h256v-512h-256v512zM896 1408h256v-1152h-256v1152zM1280 1152h256v-896
h-256v896z" />
    <glyph glyph-name="uniE0ED" unicode="&#xe0ed;" 
d="M1088 1792q-195 0 -373 -76t-306.5 -204.5t-204.5 -306.5t-76 -373t76 -373t204.5 -306.5t306.5 -204.5t373 -76t373 76t306.5 204.5t204.5 306.5t76 373t-76 373t-204.5 306.5t-306.5 204.5t-373 76zM1088 0q-169 0 -323 66t-265.5 177.5t-177.5 265.5t-66 323t66 323
t177.5 265.5t265.5 177.5t323 66t323 -66t265.5 -177.5t177.5 -265.5t66 -323t-66 -323t-177.5 -265.5t-265.5 -177.5t-323 -66zM1198 1280q87 0 148.5 -56t61.5 -136q0 -26 19 -45t45 -19t45 19t19 45q0 133 -99 226.5t-239 93.5h-46v64q0 26 -19 45t-45 19t-45 -19
t-19 -45v-64h-46q-140 0 -239 -93.5t-99 -226.5t99 -226.5t239 -93.5h46v-384h-46q-87 0 -148.5 56t-61.5 136q0 26 -19 45t-45 19t-45 -19t-19 -45q0 -133 99 -226.5t239 -93.5h46v-64q0 -26 19 -45t45 -19t45 19t19 45v64h46q140 0 239 93.5t99 226.5t-99 226.5t-239 93.5
h-46v384h46zM1198 768q87 0 148.5 -56t61.5 -136t-61.5 -136t-148.5 -56h-46v384h46zM1024 896h-46q-87 0 -148.5 56t-61.5 136t61.5 136t148.5 56h46v-384z" />
    <glyph glyph-name="uniE0EE" unicode="&#xe0ee;" 
d="M384 -128h1280q53 0 90.5 37.5t37.5 90.5v1792q0 53 -37.5 90.5t-90.5 37.5h-1280q-53 0 -90.5 -37.5t-37.5 -90.5v-1792q0 -53 37.5 -90.5t90.5 -37.5zM384 1792h1280v-1792h-1280v1792zM1408 1664h-768q-53 0 -90.5 -37.5t-37.5 -90.5v-128q0 -53 37.5 -90.5
t90.5 -37.5h768q53 0 90.5 37.5t37.5 90.5v128q0 53 -37.5 90.5t-90.5 37.5zM1408 1408h-768v128h768v-128zM512 1024q0 -53 37.5 -90.5t90.5 -37.5t90.5 37.5t37.5 90.5t-37.5 90.5t-90.5 37.5t-90.5 -37.5t-37.5 -90.5zM512 640q0 -53 37.5 -90.5t90.5 -37.5t90.5 37.5
t37.5 90.5t-37.5 90.5t-90.5 37.5t-90.5 -37.5t-37.5 -90.5zM512 256q0 -53 37.5 -90.5t90.5 -37.5t90.5 37.5t37.5 90.5t-37.5 90.5t-90.5 37.5t-90.5 -37.5t-37.5 -90.5zM896 1024q0 -53 37.5 -90.5t90.5 -37.5t90.5 37.5t37.5 90.5t-37.5 90.5t-90.5 37.5t-90.5 -37.5
t-37.5 -90.5zM896 640q0 -53 37.5 -90.5t90.5 -37.5t90.5 37.5t37.5 90.5t-37.5 90.5t-90.5 37.5t-90.5 -37.5t-37.5 -90.5zM896 256q0 -53 37.5 -90.5t90.5 -37.5t90.5 37.5t37.5 90.5t-37.5 90.5t-90.5 37.5t-90.5 -37.5t-37.5 -90.5zM1280 1024q0 -53 37.5 -90.5
t90.5 -37.5t90.5 37.5t37.5 90.5t-37.5 90.5t-90.5 37.5t-90.5 -37.5t-37.5 -90.5zM1280 640q0 -53 37.5 -90.5t90.5 -37.5t90.5 37.5t37.5 90.5t-37.5 90.5t-90.5 37.5t-90.5 -37.5t-37.5 -90.5zM1280 256q0 -53 37.5 -90.5t90.5 -37.5t90.5 37.5t37.5 90.5t-37.5 90.5
t-90.5 37.5t-90.5 -37.5t-37.5 -90.5z" />
    <glyph glyph-name="uniE0EF" unicode="&#xe0ef;" 
d="M1280 1664h128v-128h-128v128zM1536 1664h128v-128h-128v128zM1280 1408h128v-128h-128v128zM1536 1408h128v-128h-128v128zM1280 1152h128v-128h-128v128zM1536 1152h128v-128h-128v128zM1280 896h128v-128h-128v128zM1536 896h128v-128h-128v128zM1280 640h128v-128
h-128v128zM1536 640h128v-128h-128v128zM1792 1920h-640q-53 0 -90.5 -37.5t-37.5 -90.5v-384h-640q-53 0 -90.5 -37.5t-37.5 -90.5v-1280q0 -53 37.5 -90.5t90.5 -37.5h1408q53 0 90.5 37.5t37.5 90.5v1792q0 53 -37.5 90.5t-90.5 37.5zM768 0h-128v256h128v-256zM896 0
v256v128h-128h-128h-128v-128v-256h-128v1280h640v-1280h-128zM1536 0h-128v256h128v-256zM1792 0h-128v256v128h-128h-128h-128v-384h-128v1280v512h640v-1792zM512 1152h128v-128h-128v128zM768 1152h128v-128h-128v128zM512 896h128v-128h-128v128zM768 896h128v-128
h-128v128zM512 640h128v-128h-128v128zM768 640h128v-128h-128v128z" />
    <glyph glyph-name="uniE0F0" unicode="&#xe0f0;" 
d="M1920 1920h-1664q-53 0 -90.5 -37.5t-37.5 -90.5t37.5 -90.5t90.5 -37.5v-1024q0 -53 37.5 -90.5t90.5 -37.5h640v-200l-363 -329q-20 -18 -21 -44t17 -46t44 -21t46 17l277 251v-204q0 -26 19 -45t45 -19t45 19t19 45v204l277 -251q19 -17 43 -17q28 0 47 21
q18 20 17 46t-21 44l-363 329v200h640q53 0 90.5 37.5t37.5 90.5v1024q53 0 90.5 37.5t37.5 90.5t-37.5 90.5t-90.5 37.5zM1644 1426l-448 -432q-19 -18 -44 -18t-44 18l-198 188l-286 -298q-20 -20 -46 -20q-24 0 -44 18q-19 18 -19.5 44t17.5 46l330 344q18 19 44.5 19.5
t45.5 -17.5l200 -189l404 389q19 18 45 17.5t45 -19.5t18 -45t-20 -45z" />
    <glyph glyph-name="uniE0F1" unicode="&#xe0f1;" 
d="M314 512h580v-350q-7 -124 27.5 -207t104.5 -83q47 0 81 14t49.5 34t24 40t9.5 34v14q6 98 35.5 186t71.5 150.5t92 114.5t98 84.5t88 55t65 31.5l24 10v1024l-59 8q-97 0 -164 13.5t-105.5 35.5t-71.5 48.5t-78 53t-109.5 48.5t-181.5 35.5t-279 13.5q-125 0 -224 -32.5
t-162.5 -80t-109 -127.5t-68.5 -148.5t-35.5 -172.5t-14.5 -169t-2 -166q0 -105 18.5 -192.5t49.5 -145.5t72 -98t84.5 -58t89.5 -18zM1920 1792q-53 0 -90.5 -37.5t-37.5 -90.5v-1020q0 -53 37.5 -90.5t90.5 -37.5t90.5 37.5t37.5 90.5v1020q0 53 -37.5 90.5t-90.5 37.5z
" />
    <glyph glyph-name="uniE0F2" unicode="&#xe0f2;" 
d="M256 1920q-53 0 -90.5 -37.5t-37.5 -90.5v-1792q0 -53 37.5 -90.5t90.5 -37.5h1664q53 0 90.5 37.5t37.5 90.5v1792q0 53 -37.5 90.5t-90.5 37.5h-1664zM1792 1223v-1095h-384v1095h384zM1280 1536v-1408h-384v1408h384zM768 754v-626h-384v626h384z" />
    <glyph glyph-name="uniE0F3" unicode="&#xe0f3;" 
d="M1088 1792q-195 0 -373 -76t-306.5 -204.5t-204.5 -306.5t-76 -373t76 -373t204.5 -306.5t306.5 -204.5t373 -76t373 76t306.5 204.5t204.5 306.5t76 373t-76 373t-204.5 306.5t-306.5 204.5t-373 76zM1198 896q140 0 239 -93.5t99 -226.5t-99 -226.5t-239 -93.5h-46v-64
q0 -26 -19 -45t-45 -19t-45 19t-19 45v64h-46q-140 0 -239 93.5t-99 226.5q0 26 19 45t45 19t45 -19t19 -45q0 -80 61.5 -136t148.5 -56h46v384h-46q-140 0 -239 93.5t-99 226.5t99 226.5t239 93.5h46v64q0 26 19 45t45 19t45 -19t19 -45v-64h46q140 0 239 -93.5t99 -226.5
q0 -26 -19 -45t-45 -19t-45 19t-19 45q0 80 -61.5 136t-148.5 56h-46v-384h46zM768 1088q0 -80 61.5 -136t148.5 -56h46v384h-46q-87 0 -148.5 -56t-61.5 -136zM1198 384q87 0 148.5 56t61.5 136t-61.5 136t-148.5 56h-46v-384h46z" />
    <glyph glyph-name="uniE0F4" unicode="&#xe0f4;" 
d="M1920 1408h-384v256q0 53 -37.5 90.5t-90.5 37.5h-768q-53 0 -90.5 -37.5t-37.5 -90.5v-256h-384q-53 0 -90.5 -37.5t-37.5 -90.5v-1152q0 -53 37.5 -90.5t90.5 -37.5h1792q53 0 90.5 37.5t37.5 90.5v1152q0 53 -37.5 90.5t-90.5 37.5zM640 1664h768v-256h-768v256z" />
    <glyph glyph-name="uniE0F5" unicode="&#xe0f5;" 
d="M1024 1920q-209 0 -398.5 -81t-326.5 -218t-218 -326.5t-81 -398.5t81 -398.5t218 -326.5t326.5 -218t398.5 -81t398.5 81t326.5 218t218 326.5t81 398.5t-81 398.5t-218 326.5t-326.5 218t-398.5 81zM1024 0q-182 0 -348 71t-286 191t-191 286t-71 348t71 348t191 286
t286 191t348 71t348 -71t286 -191t191 -286t71 -348t-71 -348t-191 -286t-286 -191t-348 -71zM1024 1536q-130 0 -248.5 -51t-204 -136.5t-136.5 -204t-51 -248.5t51 -248.5t136.5 -204t204 -136.5t248.5 -51t248.5 51t204 136.5t136.5 204t51 248.5t-51 248.5t-136.5 204
t-204 136.5t-248.5 51zM1024 512q-159 0 -271.5 112.5t-112.5 271.5t112.5 271.5t271.5 112.5t271.5 -112.5t112.5 -271.5t-112.5 -271.5t-271.5 -112.5zM896 896q0 -53 37.5 -90.5t90.5 -37.5t90.5 37.5t37.5 90.5t-37.5 90.5t-90.5 37.5t-90.5 -37.5t-37.5 -90.5z" />
    <glyph glyph-name="uniE0F6" unicode="&#xe0f6;" 
d="M989 -123q20 -5 35 -5t35 5q128 37 239.5 95.5t194.5 129.5t151.5 156.5t115.5 174t81 184.5t53 187t27.5 181t7.5 166.5t-10 144.5q-6 48 -42 80t-85 32q-9 1 -20.5 4t-32 19t-36 41t-27.5 75.5t-12 116.5q0 53 -38 91q-13 13 -33 28t-71.5 41.5t-114 46t-164.5 34.5
t-219 15t-219 -15t-164.5 -34.5t-114 -46t-71.5 -41.5t-33 -28q-38 -38 -38 -91q0 -67 -12 -117t-27.5 -75t-37 -40.5t-33 -19t-22.5 -4.5q-48 0 -82.5 -32t-40.5 -80q-9 -68 -10 -144.5t7.5 -166.5t27.5 -181t53 -187t81 -184.5t115.5 -174t151.5 -156.5t194.5 -129.5
t239.5 -95.5zM256 1280q5 0 14.5 1t36 8.5t50.5 20.5t53.5 42t51 68t36 102.5t14.5 141.5q5 5 16 13.5t54 31t96 39t145.5 30.5t200.5 14t200 -13t147 -32t94.5 -38t54.5 -32l16 -13q0 -78 14 -141.5t36.5 -102.5t50 -68t55 -42t50 -20.5t36.5 -8.5l14 -1q2 -13 4 -36
t2 -95.5t-6 -144.5t-26 -173t-52.5 -192.5t-92.5 -192.5t-138.5 -182t-196.5 -152t-262 -112q-183 52 -324 151t-220.5 215t-133 244.5t-71 246.5t-23.5 213.5t-1 152.5zM1024 640q53 0 90.5 37.5t37.5 90.5v640q0 53 -37.5 90.5t-90.5 37.5t-90.5 -37.5t-37.5 -90.5v-640
q0 -53 37.5 -90.5t90.5 -37.5zM896 384q0 -53 37.5 -90.5t90.5 -37.5t90.5 37.5t37.5 90.5t-37.5 90.5t-90.5 37.5t-90.5 -37.5t-37.5 -90.5z" />
    <glyph glyph-name="uniE0F7" unicode="&#xe0f7;" 
d="M128 0h1152q53 0 90.5 37.5t37.5 90.5v173q40 19 77 47l393 -393q19 -19 45 -19q24 0 45 19q19 19 19 45t-19 45l-393 393q89 120 89 266q0 131 -70.5 239.5t-185.5 163.5v685q0 53 -37.5 90.5t-90.5 37.5h-1152q-53 0 -90.5 -37.5t-37.5 -90.5v-1664q0 -53 37.5 -90.5
t90.5 -37.5zM1216 384q-132 0 -226 94t-94 226t94 226t226 94t226 -94t94 -226t-94 -226t-226 -94zM1088 1408h-768q-26 0 -45 19t-19 45t19 45t45 19h768q26 0 45 -19t19 -45t-19 -45t-45 -19zM320 1152h768q16 0 33 -10q-125 -27 -218 -118h-583q-26 0 -45 19t-19 45
t19 45t45 19zM320 768h454q-6 -42 -6 -64t6 -64h-454q-26 0 -45 19t-19 45t19 45t45 19z" />
    <glyph glyph-name="uniE0F8" unicode="&#xe0f8;" 
d="M1280 1024h-512v-640q0 -43 -40 -103.5t-88 -110t-88 -98.5t-40 -72v-64q0 -26 19 -45t45 -19h896q26 0 45 19t19 45v64q0 23 -40 72t-88 98.5t-88 110t-40 103.5v640zM1483 1790v2h-128v-2q-8 2 -11 2q-26 0 -45 -19t-19 -45v-64h-128v64q0 24 -15 41t-38 21v2h-128v-2
q-8 2 -11 2q-26 0 -45 -19t-19 -45v-64h-128v64q0 24 -15 41t-38 21v2h-128v-2q-8 2 -11 2q-26 0 -45 -19t-19 -45v-192v-128q0 -52 38 -90l128 -128q38 -38 90 -38h512q52 0 90 38l128 128q38 38 38 90v128v192q0 24 -15 41t-38 21z" />
    <glyph glyph-name="uniE0F9" unicode="&#xe0f9;" 
d="M760 317q-120 0 -201 88q-42 45 -79 47.5t-60 -27t-33 -78.5q-42 -230 -32 -335.5t43 -122.5l33 -17l1360 -4q106 0 181 75t75 181v896q0 148 -1 168q-10 127 -71 126q-18 0 -40 -10q-178 -80 -428 -29q-36 7 -62 23t-38 37.5t-2 51t44 61.5q88 81 88 200
q0 113 -79.5 192.5t-191.5 79.5t-192 -80t-80 -192q0 -111 100 -211q11 -11 17 -18t16 -21.5t11.5 -25.5t-3 -26t-20 -26.5t-47.5 -23.5t-79 -20q-69 -12 -147.5 -7t-136 19t-116 27t-88 17.5t-50.5 -10.5q-13 -13 -25 -32t-27 -59t-23 -88t-6 -123t18 -160q9 -47 21 -78.5
t23.5 -47.5t27 -19.5t25.5 -2t25.5 13t21 17l17.5 17.5q100 100 211 100q112 0 192 -80t80 -192t-79.5 -191.5t-192.5 -79.5z" />
    <glyph glyph-name="uniE0FA" unicode="&#xe0fa;" 
d="M1920 1280h-128v512q0 53 -37.5 90.5t-90.5 37.5h-1280q-53 0 -90.5 -37.5t-37.5 -90.5v-512h-128q-53 0 -90.5 -37.5t-37.5 -90.5v-640q0 -53 37.5 -90.5t90.5 -37.5h128v-384q0 -53 37.5 -90.5t90.5 -37.5h1280q53 0 90.5 37.5t37.5 90.5v384h128q53 0 90.5 37.5
t37.5 90.5v640q0 53 -37.5 90.5t-90.5 37.5zM384 640h1280v-640h-1280v640zM1408 960q0 26 19 45t45 19t45 -19t19 -45t-19 -45t-45 -19t-45 19t-19 45zM320 896q-26 0 -45 19t-19 45t19 45t45 19t45 -19t19 -45t-19 -45t-45 -19zM1728 896q-26 0 -45 19t-19 45t19 45t45 19
t45 -19t19 -45t-19 -45t-45 -19zM384 1792h1280v-512h-1280v512zM1536 448q0 26 -19 45t-45 19h-896q-26 0 -45 -19t-19 -45t19 -45t45 -19h896q26 0 45 19t19 45zM1472 256h-896q-26 0 -45 -19t-19 -45t19 -45t45 -19h896q26 0 45 19t19 45t-19 45t-45 19z" />
    <glyph glyph-name="uniE0FB" unicode="&#xe0fb;" 
d="M1024 1920q-209 0 -398.5 -81t-326.5 -218t-218 -326.5t-81 -398.5t81 -398.5t218 -326.5t326.5 -218t398.5 -81t398.5 81t326.5 218t218 326.5t81 398.5t-81 398.5t-218 326.5t-326.5 218t-398.5 81zM1024 0q-182 0 -348 71t-286 191t-191 286t-71 348t71 348t191 286
t286 191t348 71t348 -71t286 -191t191 -286t71 -348t-71 -348t-191 -286t-286 -191t-348 -71zM904 1220q0 81 -57.5 138.5t-138.5 57.5t-138.5 -57.5t-57.5 -138.5t57.5 -138.5t138.5 -57.5t138.5 57.5t57.5 138.5zM640 1220q0 28 20 48t48 20t48 -20t20 -48t-20 -48
t-48 -20t-48 20t-20 48zM1340 776q-81 0 -138.5 -57.5t-57.5 -138.5t57.5 -138.5t138.5 -57.5t138.5 57.5t57.5 138.5t-57.5 138.5t-138.5 57.5zM1340 512q-28 0 -48 20t-20 48t20 48t48 20t48 -20t20 -48t-20 -48t-48 -20zM1453 1325q-19 19 -45 19t-45 -19l-768 -768
q-19 -19 -19 -45t19 -45q18 -19 45 -19q24 0 45 19l768 768q19 19 19 45t-19 45z" />
    <glyph glyph-name="uniE0FC" unicode="&#xe0fc;" 
d="M1920 1536h-640v-128q53 0 90.5 -37.5t37.5 -90.5t-37.5 -90.5t-90.5 -37.5h-128h-256h-128q-53 0 -90.5 37.5t-37.5 90.5t37.5 90.5t90.5 37.5v128h-640q-53 0 -90.5 -37.5t-37.5 -90.5v-1408q0 -53 37.5 -90.5t90.5 -37.5h1792q53 0 90.5 37.5t37.5 90.5v1408
q0 53 -37.5 90.5t-90.5 37.5zM960 896h779q26 0 45 -19t19 -45t-19 -45t-45 -19h-779q-26 0 -45 19t-19 45t19 45t45 19zM960 640h779q26 0 45 -19t19 -45t-19 -45t-45 -19h-779q-26 0 -45 19t-19 45t19 45t45 19zM960 384h779q26 0 45 -19t19 -45t-19 -45t-45 -19h-779
q-26 0 -45 19t-19 45t19 45t45 19zM768 314q0 -53 -52 -89.5t-126.5 -45t-149 0t-126.5 45t-52 89.5q0 140 74 239.5t179 99.5t179 -99.5t74 -239.5zM666 869q0 -64 -45 -109t-109 -45t-109.5 45t-45.5 109t45.5 109.5t109.5 45.5t109 -45.5t45 -109.5zM896 1792h256v-512
h-256v512z" />
    <glyph glyph-name="uniE0FD" unicode="&#xe0fd;" 
d="M128 -128h1664q53 0 90.5 37.5t37.5 90.5v768q0 53 -37.5 90.5t-90.5 37.5h-384q-53 0 -90.5 -37.5t-37.5 -90.5v1024q0 53 -37.5 90.5t-90.5 37.5h-384q-53 0 -90.5 -37.5t-37.5 -90.5v-512q0 53 -37.5 90.5t-90.5 37.5h-384q-53 0 -90.5 -37.5t-37.5 -90.5v-1280
q0 -53 37.5 -90.5t90.5 -37.5zM128 0v256h128v-256h-128zM256 768v-128h-128v128h128zM128 896v128h128v-128h-128zM256 512v-128h-128v128h128zM384 640v128h128v-128h-128zM512 512v-128h-128v128h128zM384 896v128h128v-128h-128zM384 0v256h128v-256h-128zM512 1152
h-128v128h128v-128zM256 1152h-128v128h128v-128zM1024 0v256h128v-256h-128zM896 1280v-128h-128v128h128zM768 1408v128h128v-128h-128zM896 1024v-128h-128v128h128zM896 768v-128h-128v128h128zM896 512v-128h-128v128h128zM1024 640v128h128v-128h-128zM1152 512v-128
h-128v128h128zM1024 896v128h128v-128h-128zM1024 1152v128h128v-128h-128zM1024 1408v128h128v-128h-128zM1152 1664h-128v128h128v-128zM896 1664h-128v128h128v-128zM768 256h128v-256h-128v256zM1536 384h-128v128h128v-128zM1664 512h128v-128h-128v128zM1664 256h128
v-256h-128v256zM1792 640h-128v128h128v-128zM1536 640h-128v128h128v-128zM1408 256h128v-256h-128v256z" />
    <glyph glyph-name="uniE0FE" unicode="&#xe0fe;" 
d="M1920 1408h-384v256q0 53 -37.5 90.5t-90.5 37.5h-768q-53 0 -90.5 -37.5t-37.5 -90.5v-256h-384q-53 0 -90.5 -37.5t-37.5 -90.5v-1152q0 -53 37.5 -90.5t90.5 -37.5h1792q53 0 90.5 37.5t37.5 90.5v1152q0 53 -37.5 90.5t-90.5 37.5zM128 1280h512h768h512v-1152h-1792
v1152zM640 1664h768v-256h-768v256z" />
    <glyph glyph-name="uniE0FF" unicode="&#xe0ff;" 
d="M2029 1006l-309 561l-3 3q-11 18 -31.5 26t-41.5 1l-492 -164v167q0 26 -19 45t-45 19t-45 -19t-19 -45v-209l-534 -178q-2 -1 -6.5 -3.5t-5.5 -3.5q-13 -7 -21 -20q-1 0 -1 -1l-2 -1l-318 -560q-9 -18 -6 -40q0 -2 -1 -4t-1 -4q0 -65 56.5 -140t147.5 -127.5t180 -52.5
t180 52.5t147.5 127.5t56.5 140q0 11 -5 23v1v1q-1 12 -8 23l-279 492l420 140v-1064q0 -26 19 -45t45 -19t45 19t19 45v1106l377 126l-230 -418q-19 -19 -19 -46q0 -65 56.5 -140t147.5 -127.5t180 -52.5t180 52.5t147.5 127.5t56.5 140q0 27 -19 46zM293 640l217 382
l217 -382h-434zM1456 1024l208 379l208 -379h-416z" />
    <glyph glyph-name="uniE100" unicode="&#xe100;" 
d="M1920 1024v384q0 53 -37.5 90.5t-90.5 37.5h-38l-43 266q-5 27 -26 42q-22 16 -48 11l-1391 -226q-26 -5 -41.5 -26t-11.5 -47l3 -20h-68q-53 0 -90.5 -37.5t-37.5 -90.5v-1408q0 -53 37.5 -90.5t90.5 -37.5h1664q53 0 90.5 37.5t37.5 90.5v384q53 0 90.5 37.5t37.5 90.5
v384q0 53 -37.5 90.5t-90.5 37.5zM128 1408h1664v-384h-512q-53 0 -90.5 -37.5t-37.5 -90.5v-384q0 -53 37.5 -90.5t90.5 -37.5h512v-384h-1664v1408zM470 1536l1125 183l29 -183h-1154zM1280 512v384h640v-384h-640zM1408 704q0 -26 19 -45t45 -19t45 19t19 45t-19 45
t-45 19t-45 -19t-19 -45z" />
    <glyph glyph-name="uniE101" unicode="&#xe101;" 
d="M128 0h1152q53 0 90.5 37.5t37.5 90.5v173q40 19 77 47l393 -393q19 -19 45 -19q24 0 45 19q19 19 19 45t-19 45l-393 393q89 120 89 266q0 131 -70.5 239.5t-185.5 163.5v685q0 53 -37.5 90.5t-90.5 37.5h-1152q-53 0 -90.5 -37.5t-37.5 -90.5v-1664q0 -53 37.5 -90.5
t90.5 -37.5zM1216 384q-132 0 -226 94t-94 226t94 226t226 94t226 -94t94 -226t-94 -226t-226 -94zM128 1792h1152v-640h-942q-34 0 -58 -19t-24 -45t24 -45t58 -19h565q-108 -105 -129 -256h-454q-26 0 -45 -19t-19 -45t19 -45t45 -19h454q23 -164 148.5 -274t293.5 -110
q22 0 64 6v-134h-1152v1664zM320 1408h768q26 0 45 19t19 45t-19 45t-45 19h-768q-26 0 -45 -19t-19 -45t19 -45t45 -19z" />
    <glyph glyph-name="uniE102" unicode="&#xe102;" 
d="M720 420q-90 0 -151 63q-54 55 -113 61.5t-104 -33.5t-61 -114q-77 -358 16 -474q39 -48 89 -48l1336 -3q130 0 222.5 89.5t92.5 214.5v838l1 40q1 69 -0.5 106t-14 85t-38.5 74q-56 58 -147 19q-156 -67 -382 -23q-8 2 -15.5 4t-12.5 4t-9.5 3.5t-7.5 3t-5 3l-2 1.5h-1
q2 12 25 32q52 46 80.5 107.5t28.5 128.5q0 132 -97 225t-234 93t-234 -93.5t-97 -224.5t119 -244q11 -11 17 -18q-29 -14 -87 -23q-36 -6 -76.5 -7t-72.5 1.5t-72.5 9.5t-64.5 12.5t-62 14.5q-60 14 -96 19t-68 -0.5t-51 -24.5q-16 -17 -31 -38.5t-33 -65t-27 -94
t-7 -127.5t19 -165q37 -191 146 -191q25 0 50.5 12.5t37.5 22.5t31 28q46 44 98.5 62t99 9t85 -33t61 -65t22.5 -87q0 -79 -59.5 -134.5t-143.5 -55.5zM720 928q-136 0 -255 -115q-13 -13 -21 -19q-16 29 -27 83q-16 82 -17.5 149.5t10 110.5t22 66.5t23.5 39.5
q30 -1 102 -19q175 -42 287 -42q60 0 112 9q170 28 196 113q22 72 -60 147q-79 75 -79 151q0 79 59.5 134.5t143.5 55.5t143.5 -55.5t59.5 -134.5q0 -83 -65 -140q-87 -76 -65 -158q11 -42 51 -72t101 -42q262 -51 457 31q2 1 5 2t4 1q16 -33 13 -168l-1 -880
q0 -73 -55 -124.5t-132 -51.5l-1324 1q-3 3 -6.5 8t-10.5 31.5t-8 63t6.5 107t26.5 159.5q8 40 24 50q13 -1 37 -26q99 -102 243 -102q136 0 233 93.5t97 224.5t-97 224.5t-233 93.5z" />
    <glyph glyph-name="uniE103" unicode="&#xe103;" 
d="M1920 1280h-128v512q0 53 -37.5 90.5t-90.5 37.5h-1280q-53 0 -90.5 -37.5t-37.5 -90.5v-512h-128q-53 0 -90.5 -37.5t-37.5 -90.5v-640q0 -53 37.5 -90.5t90.5 -37.5h128v-384q0 -53 37.5 -90.5t90.5 -37.5h1280q53 0 90.5 37.5t37.5 90.5v384h128q53 0 90.5 37.5
t37.5 90.5v640q0 53 -37.5 90.5t-90.5 37.5zM384 640h1280v-640h-1280v640zM1664 768h-1280q-53 0 -90.5 -37.5t-37.5 -90.5v-128h-128v640h1792v-640h-128v128q0 53 -37.5 90.5t-90.5 37.5zM384 1792h1280v-512h-1280v512zM1408 960q0 -26 19 -45t45 -19t45 19t19 45
t-19 45t-45 19t-45 -19t-19 -45zM256 960q0 -26 19 -45t45 -19t45 19t19 45t-19 45t-45 19t-45 -19t-19 -45zM1664 960q0 -26 19 -45t45 -19t45 19t19 45t-19 45t-45 19t-45 -19t-19 -45zM1536 448q0 26 -19 45t-45 19h-896q-26 0 -45 -19t-19 -45t19 -45t45 -19h896
q26 0 45 19t19 45zM1472 256h-896q-26 0 -45 -19t-19 -45t19 -45t45 -19h896q26 0 45 19t19 45t-19 45t-45 19z" />
    <glyph glyph-name="uniE104" unicode="&#xe104;" 
d="M256 1536v-1024l19 -47l237 -593l256 640h-1l1 2v1022v128q0 106 -75 181t-181 75t-181 -75t-75 -181v-128zM384 1664q0 53 37.5 90.5t90.5 37.5t90.5 -37.5t37.5 -90.5v-128h-256v128zM512 217l-66 164l-26 64l-1 5l93 47l93 -47l-1 -5l-26 -64zM640 576l-128 64
l-128 -64v739v79v14h128h128v-14v-79v-739zM1612 1539l-123 317h-1q-7 28 -29 46t-51 18q-31 0 -54 -20.5t-28 -51.5h-2l-120 -309l-52 -131v-1280q0 -106 75 -181t181 -75t181 75t75 181q53 0 90.5 37.5t37.5 90.5v384q0 53 -37.5 90.5t-90.5 37.5v640zM1536 640v-384v-128
q0 -53 -37.5 -90.5t-90.5 -37.5t-90.5 37.5t-37.5 90.5v1280h10h236h10v-640v-128zM1475 1536h-134l67 167z" />
    <glyph glyph-name="uniE105" unicode="&#xe105;" 
d="M1657 1280q5 64 7 123q2 55 -36 94q-37 39 -92 39h-1408q-55 0 -92 -39q-38 -39 -36 -94q3 -80 10 -175.5t28.5 -269.5t51.5 -317t85 -281t124 -199q36 -33 85 -33h896q49 0 85 33q104 93 177 352h112q166 0 280 108.5t114 275.5q0 87 -29 156.5t-72 110.5t-98 68
t-102 37.5t-90 10.5zM1280 256h-896q-60 54 -109 192.5t-75 297.5t-43.5 310.5t-22.5 251.5l-6 100h1408q-1 -20 -3 -55t-10 -138.5t-19.5 -200.5t-32 -222t-46 -224.5t-63.5 -186t-82 -125.5zM1654 641h-41h-40q49 226 74 511h7q7 0 18.5 -0.5t39 -6t52.5 -14.5t54.5 -28
t51 -45t36 -68t14.5 -93q0 -111 -75.5 -183.5t-190.5 -72.5z" />
    <glyph glyph-name="uniE106" unicode="&#xe106;" 
d="M1734 1280h-582v332q4 147 -38.5 227.5t-149.5 80.5q-46 0 -83 -14t-57 -34t-33.5 -40t-18.5 -34l-4 -14q-6 -98 -37.5 -186t-77 -150.5t-99.5 -114.5t-106.5 -84.5t-95.5 -55t-70 -31.5l-26 -10v-1024l187 -8q97 0 164 -13.5t105.5 -35.5t71.5 -48.5t78 -53t109.5 -48.5
t181.5 -35.5t279 -13.5q125 0 224 32.5t162.5 80t109 127.5t68.5 148.5t35.5 172.5t14.5 169t2 166q0 105 -18.5 192.5t-49.5 145.5t-72 98t-84.5 58t-89.5 18zM1432 0q-116 0 -207 8t-144 17.5t-99 29t-65 31.5t-50 35q-86 65 -173.5 96t-244.5 31l-65 3v815
q39 18 77.5 39.5t88 57t92.5 75.5t87.5 96t77.5 117.5t57 141t31 166.5q17 33 69 33q24 0 32 -8q31 -31 28 -172v-332v-128h128h582q75 0 130.5 -102.5t55.5 -281.5q0 -113 -5.5 -200t-19.5 -169.5t-38 -142.5t-61 -110t-88 -81t-120 -48t-156 -17zM64 0q26 0 45 19t19 45
v1147q0 26 -19 45t-45 19t-45 -19t-19 -45v-1147q0 -26 19 -45t45 -19z" />
    <glyph glyph-name="uniE107" unicode="&#xe107;" 
d="M1920 1536h-1792q-53 0 -90.5 -37.5t-37.5 -90.5v-1152q0 -53 37.5 -90.5t90.5 -37.5h1792q53 0 90.5 37.5t37.5 90.5v1152q0 53 -37.5 90.5t-90.5 37.5zM128 1408h1792v-1152h-1792v1152zM1739 896h-779q-26 0 -45 -19t-19 -45t19 -45t45 -19h779q26 0 45 19t19 45
t-19 45t-45 19zM1739 640h-779q-26 0 -45 -19t-19 -45t19 -45t45 -19h779q26 0 45 19t19 45t-19 45t-45 19zM1739 1152h-779q-26 0 -45 -19t-19 -45t19 -45t45 -19h779q26 0 45 19t19 45t-19 45t-45 19zM357 1125q0 -64 45.5 -109t109.5 -45t109 45t45 109t-45 109.5
t-109 45.5t-109.5 -45.5t-45.5 -109.5zM515 909q-105 0 -179 -99.5t-74 -239.5q0 -45 37.5 -77.5t93.5 -47.5t122 -15t122 15t93.5 47.5t37.5 77.5q0 140 -74 239.5t-179 99.5z" />
    <glyph glyph-name="uniE108" unicode="&#xe108;" 
d="M1920 1536h-640v-256q0 -53 -37.5 -90.5t-90.5 -37.5h64q80 0 136 56t56 136q0 45 -1 64h513v-1408h-1792v1408h513q-1 -19 -1 -64q0 -80 56 -136t136 -56h64q-53 0 -90.5 37.5t-37.5 90.5v256h-640q-53 0 -90.5 -37.5t-37.5 -90.5v-1408q0 -53 37.5 -90.5t90.5 -37.5
h1792q53 0 90.5 37.5t37.5 90.5v1408q0 53 -37.5 90.5t-90.5 37.5zM1739 640h-779q-26 0 -45 -19t-19 -45t19 -45t45 -19h779q26 0 45 19t19 45t-19 45t-45 19zM1739 384h-779q-26 0 -45 -19t-19 -45t19 -45t45 -19h779q26 0 45 19t19 45t-19 45t-45 19zM960 768h779
q26 0 45 19t19 45t-19 45t-45 19h-779q-26 0 -45 -19t-19 -45t19 -45t45 -19zM357 869q0 -64 45.5 -109t109.5 -45t109 45t45 109t-45 109.5t-109 45.5t-109.5 -45.5t-45.5 -109.5zM515 653q-105 0 -179 -99.5t-74 -239.5q0 -53 52 -89.5t126.5 -45t149 0t126.5 45t52 89.5
q0 140 -74 239.5t-179 99.5zM768 1280q0 -53 37.5 -90.5t90.5 -37.5h256q53 0 90.5 37.5t37.5 90.5v256v256q0 53 -37.5 90.5t-90.5 37.5h-256q-53 0 -90.5 -37.5t-37.5 -90.5v-256v-256zM1152 1280h-256v512h256v-512z" />
    <glyph glyph-name="uniE109" unicode="&#xe109;" 
d="M1920 640v256q0 53 -37.5 90.5t-90.5 37.5h-640v256h384q53 0 90.5 37.5t37.5 90.5v128q0 53 -37.5 90.5t-90.5 37.5h-896q-53 0 -90.5 -37.5t-37.5 -90.5v-128q0 -53 37.5 -90.5t90.5 -37.5h384v-256h-640q-53 0 -90.5 -37.5t-37.5 -90.5v-256q-53 0 -90.5 -37.5
t-37.5 -90.5v-256q0 -53 37.5 -90.5t90.5 -37.5h128q53 0 90.5 37.5t37.5 90.5v128v128q0 53 -37.5 90.5t-90.5 37.5v256h640v-256q-53 0 -90.5 -37.5t-37.5 -90.5v-128v-128q0 -53 37.5 -90.5t90.5 -37.5h128q53 0 90.5 37.5t37.5 90.5v128v128q0 53 -37.5 90.5t-90.5 37.5
v256h640v-256q-53 0 -90.5 -37.5t-37.5 -90.5v-128v-128q0 -53 37.5 -90.5t90.5 -37.5h128q53 0 90.5 37.5t37.5 90.5v256q0 53 -37.5 90.5t-90.5 37.5zM640 1536h896v-128h-896v128zM384 384v-128h-128v256h128v-128zM1152 256h-128v256h128v-256zM1792 384v128h128v-256
h-128v128z" />
    </font>
</defs>
</svg>
